%TF.GenerationSoftware,KiCad,Pcbnew,(6.0.6)*%
%TF.CreationDate,2022-08-13T21:50:17-05:00*%
%TF.ProjectId,usb-led-controller,7573622d-6c65-4642-9d63-6f6e74726f6c,rev?*%
%TF.SameCoordinates,Original*%
%TF.FileFunction,Copper,L1,Top*%
%TF.FilePolarity,Positive*%
%FSLAX46Y46*%
G04 Gerber Fmt 4.6, Leading zero omitted, Abs format (unit mm)*
G04 Created by KiCad (PCBNEW (6.0.6)) date 2022-08-13 21:50:17*
%MOMM*%
%LPD*%
G01*
G04 APERTURE LIST*
G04 Aperture macros list*
%AMRoundRect*
0 Rectangle with rounded corners*
0 $1 Rounding radius*
0 $2 $3 $4 $5 $6 $7 $8 $9 X,Y pos of 4 corners*
0 Add a 4 corners polygon primitive as box body*
4,1,4,$2,$3,$4,$5,$6,$7,$8,$9,$2,$3,0*
0 Add four circle primitives for the rounded corners*
1,1,$1+$1,$2,$3*
1,1,$1+$1,$4,$5*
1,1,$1+$1,$6,$7*
1,1,$1+$1,$8,$9*
0 Add four rect primitives between the rounded corners*
20,1,$1+$1,$2,$3,$4,$5,0*
20,1,$1+$1,$4,$5,$6,$7,0*
20,1,$1+$1,$6,$7,$8,$9,0*
20,1,$1+$1,$8,$9,$2,$3,0*%
G04 Aperture macros list end*
%TA.AperFunction,SMDPad,CuDef*%
%ADD10RoundRect,0.140000X0.140000X0.170000X-0.140000X0.170000X-0.140000X-0.170000X0.140000X-0.170000X0*%
%TD*%
%TA.AperFunction,SMDPad,CuDef*%
%ADD11R,1.020000X3.170000*%
%TD*%
%TA.AperFunction,SMDPad,CuDef*%
%ADD12RoundRect,0.147500X-0.147500X-0.172500X0.147500X-0.172500X0.147500X0.172500X-0.147500X0.172500X0*%
%TD*%
%TA.AperFunction,SMDPad,CuDef*%
%ADD13R,0.400000X0.650000*%
%TD*%
%TA.AperFunction,SMDPad,CuDef*%
%ADD14R,0.375000X0.500000*%
%TD*%
%TA.AperFunction,SMDPad,CuDef*%
%ADD15R,0.300000X0.650000*%
%TD*%
%TA.AperFunction,SMDPad,CuDef*%
%ADD16RoundRect,0.140000X0.170000X-0.140000X0.170000X0.140000X-0.170000X0.140000X-0.170000X-0.140000X0*%
%TD*%
%TA.AperFunction,SMDPad,CuDef*%
%ADD17RoundRect,0.135000X0.135000X0.185000X-0.135000X0.185000X-0.135000X-0.185000X0.135000X-0.185000X0*%
%TD*%
%TA.AperFunction,SMDPad,CuDef*%
%ADD18R,2.500000X2.300000*%
%TD*%
%TA.AperFunction,SMDPad,CuDef*%
%ADD19RoundRect,0.250000X0.312500X1.450000X-0.312500X1.450000X-0.312500X-1.450000X0.312500X-1.450000X0*%
%TD*%
%TA.AperFunction,SMDPad,CuDef*%
%ADD20R,0.340000X0.700000*%
%TD*%
%TA.AperFunction,SMDPad,CuDef*%
%ADD21RoundRect,0.147500X0.172500X-0.147500X0.172500X0.147500X-0.172500X0.147500X-0.172500X-0.147500X0*%
%TD*%
%TA.AperFunction,SMDPad,CuDef*%
%ADD22RoundRect,0.225000X-0.225000X-0.250000X0.225000X-0.250000X0.225000X0.250000X-0.225000X0.250000X0*%
%TD*%
%TA.AperFunction,SMDPad,CuDef*%
%ADD23RoundRect,0.147500X0.147500X0.172500X-0.147500X0.172500X-0.147500X-0.172500X0.147500X-0.172500X0*%
%TD*%
%TA.AperFunction,ComponentPad*%
%ADD24C,0.600000*%
%TD*%
%TA.AperFunction,SMDPad,CuDef*%
%ADD25R,1.600000X0.550000*%
%TD*%
%TA.AperFunction,SMDPad,CuDef*%
%ADD26R,0.550000X1.600000*%
%TD*%
%TA.AperFunction,SMDPad,CuDef*%
%ADD27RoundRect,0.135000X-0.135000X-0.185000X0.135000X-0.185000X0.135000X0.185000X-0.135000X0.185000X0*%
%TD*%
%TA.AperFunction,SMDPad,CuDef*%
%ADD28RoundRect,0.135000X0.185000X-0.135000X0.185000X0.135000X-0.185000X0.135000X-0.185000X-0.135000X0*%
%TD*%
%TA.AperFunction,SMDPad,CuDef*%
%ADD29C,1.500000*%
%TD*%
%TA.AperFunction,SMDPad,CuDef*%
%ADD30R,0.760000X2.400000*%
%TD*%
%TA.AperFunction,SMDPad,CuDef*%
%ADD31RoundRect,0.135000X-0.185000X0.135000X-0.185000X-0.135000X0.185000X-0.135000X0.185000X0.135000X0*%
%TD*%
%TA.AperFunction,ViaPad*%
%ADD32C,0.800000*%
%TD*%
%TA.AperFunction,Conductor*%
%ADD33C,0.508000*%
%TD*%
%TA.AperFunction,Conductor*%
%ADD34C,0.254000*%
%TD*%
%TA.AperFunction,Conductor*%
%ADD35C,0.203200*%
%TD*%
G04 APERTURE END LIST*
D10*
%TO.P,C4,1*%
%TO.N,+3V3*%
X163460000Y-115100000D03*
%TO.P,C4,2*%
%TO.N,GND*%
X162500000Y-115100000D03*
%TD*%
D11*
%TO.P,J2,1,Pin_1*%
%TO.N,/+12V_RAW*%
X179990000Y-105200000D03*
%TO.P,J2,2,Pin_2*%
%TO.N,GND*%
X182530000Y-105200000D03*
%TO.P,J2,3,Pin_3*%
X185070000Y-105200000D03*
%TO.P,J2,4,Pin_4*%
X187610000Y-105200000D03*
%TD*%
D12*
%TO.P,R6,1*%
%TO.N,/WS2812_0_DATA*%
X155615000Y-121400000D03*
%TO.P,R6,2*%
%TO.N,/WS2812_0_DATA_R*%
X156585000Y-121400000D03*
%TD*%
%TO.P,R7,1*%
%TO.N,/WS2812_1_DATA*%
X143215000Y-121600000D03*
%TO.P,R7,2*%
%TO.N,/WS2812_1_DATA_R*%
X144185000Y-121600000D03*
%TD*%
D13*
%TO.P,U1,1,~{OE}*%
%TO.N,/WS2812_0_~{OE}*%
X159650000Y-119450000D03*
%TO.P,U1,2,A*%
%TO.N,/WS2812_0_DATA_UC*%
X159000000Y-119450000D03*
%TO.P,U1,3,GND*%
%TO.N,GND*%
X158350000Y-119450000D03*
%TO.P,U1,4,Y*%
%TO.N,/WS2812_0_DATA_R*%
X158350000Y-121350000D03*
%TO.P,U1,5,VCC*%
%TO.N,+5V*%
X159650000Y-121350000D03*
%TD*%
%TO.P,U2,1,~{OE}*%
%TO.N,/WS2812_1_~{OE}*%
X147250000Y-119650000D03*
%TO.P,U2,2,A*%
%TO.N,/WS2812_1_DATA_UC*%
X146600000Y-119650000D03*
%TO.P,U2,3,GND*%
%TO.N,GND*%
X145950000Y-119650000D03*
%TO.P,U2,4,Y*%
%TO.N,/WS2812_1_DATA_R*%
X145950000Y-121550000D03*
%TO.P,U2,5,VCC*%
%TO.N,+5V*%
X147250000Y-121550000D03*
%TD*%
D14*
%TO.P,U5,1,I/O1*%
%TO.N,/USB_D_TVS+*%
X153462500Y-106850000D03*
D15*
%TO.P,U5,2,GND*%
%TO.N,GND*%
X154000000Y-106925000D03*
D14*
%TO.P,U5,3,I/O2*%
%TO.N,/USB_D_TVS-*%
X154537500Y-106850000D03*
%TO.P,U5,4,I/O2*%
%TO.N,/USB_D-*%
X154537500Y-105150000D03*
D15*
%TO.P,U5,5,VBUS*%
%TO.N,+5V*%
X154000000Y-105075000D03*
D14*
%TO.P,U5,6,I/O1*%
%TO.N,/USB_D+*%
X153462500Y-105150000D03*
%TD*%
D16*
%TO.P,C9,1*%
%TO.N,+5V*%
X161100000Y-120880000D03*
%TO.P,C9,2*%
%TO.N,GND*%
X161100000Y-119920000D03*
%TD*%
%TO.P,C10,1*%
%TO.N,+5V*%
X148700000Y-121180000D03*
%TO.P,C10,2*%
%TO.N,GND*%
X148700000Y-120220000D03*
%TD*%
D17*
%TO.P,R10,1*%
%TO.N,/WS2812_0_DATA*%
X154310000Y-121400000D03*
%TO.P,R10,2*%
%TO.N,GND*%
X153290000Y-121400000D03*
%TD*%
%TO.P,R11,1*%
%TO.N,/WS2812_1_DATA*%
X141600000Y-121600000D03*
%TO.P,R11,2*%
%TO.N,GND*%
X140580000Y-121600000D03*
%TD*%
D11*
%TO.P,J3,1,Pin_1*%
%TO.N,/+5V_RAW*%
X142390000Y-105200000D03*
%TO.P,J3,2,Pin_2*%
%TO.N,/USB_D-*%
X144930000Y-105200000D03*
%TO.P,J3,3,Pin_3*%
%TO.N,/USB_D+*%
X147470000Y-105200000D03*
%TO.P,J3,4,Pin_4*%
%TO.N,GND*%
X150010000Y-105200000D03*
%TD*%
D18*
%TO.P,D1,1,K*%
%TO.N,+5V*%
X145850000Y-115400000D03*
%TO.P,D1,2,A*%
%TO.N,GND*%
X141550000Y-115400000D03*
%TD*%
D19*
%TO.P,F1,1*%
%TO.N,+5V*%
X146637500Y-110800000D03*
%TO.P,F1,2*%
%TO.N,/+5V_RAW*%
X142362500Y-110800000D03*
%TD*%
%TO.P,F2,1*%
%TO.N,+12V*%
X191137500Y-109700000D03*
%TO.P,F2,2*%
%TO.N,/+12V_RAW*%
X186862500Y-109700000D03*
%TD*%
D20*
%TO.P,Q2,1,D*%
%TO.N,/PWM_0_G*%
X188400000Y-119450000D03*
X188400000Y-120950000D03*
X188900000Y-119450000D03*
X188900000Y-120950000D03*
%TO.P,Q2,2,G*%
%TO.N,/GATE_0_G*%
X187900000Y-119450000D03*
%TO.P,Q2,3,S*%
%TO.N,GND*%
X187900000Y-120950000D03*
%TD*%
%TO.P,Q1,1,D*%
%TO.N,/PWM_0_R*%
X185500000Y-120950000D03*
X185500000Y-119450000D03*
X186000000Y-119450000D03*
X186000000Y-120950000D03*
%TO.P,Q1,2,G*%
%TO.N,/GATE_0_R*%
X185000000Y-119450000D03*
%TO.P,Q1,3,S*%
%TO.N,GND*%
X185000000Y-120950000D03*
%TD*%
%TO.P,Q6,1,D*%
%TO.N,/PWM_1_B*%
X167200000Y-120850000D03*
X167700000Y-119350000D03*
X167700000Y-120850000D03*
X167200000Y-119350000D03*
%TO.P,Q6,2,G*%
%TO.N,/GATE_1_B*%
X166700000Y-119350000D03*
%TO.P,Q6,3,S*%
%TO.N,GND*%
X166700000Y-120850000D03*
%TD*%
D11*
%TO.P,J4,1,Pin_1*%
%TO.N,+12V*%
X191110000Y-124800000D03*
%TO.P,J4,2,Pin_2*%
%TO.N,/PWM_0_G*%
X188570000Y-124800000D03*
%TO.P,J4,3,Pin_3*%
%TO.N,/PWM_0_R*%
X186030000Y-124800000D03*
%TO.P,J4,4,Pin_4*%
%TO.N,/PWM_0_B*%
X183490000Y-124800000D03*
%TD*%
D20*
%TO.P,Q5,1,D*%
%TO.N,/PWM_1_G*%
X173200000Y-119350000D03*
X173700000Y-119350000D03*
X173200000Y-120850000D03*
X173700000Y-120850000D03*
%TO.P,Q5,2,G*%
%TO.N,/GATE_1_G*%
X172700000Y-119350000D03*
%TO.P,Q5,3,S*%
%TO.N,GND*%
X172700000Y-120850000D03*
%TD*%
D11*
%TO.P,J5,1,Pin_1*%
%TO.N,+12V*%
X175870000Y-124800000D03*
%TO.P,J5,2,Pin_2*%
%TO.N,/PWM_1_G*%
X173330000Y-124800000D03*
%TO.P,J5,3,Pin_3*%
%TO.N,/PWM_1_R*%
X170790000Y-124800000D03*
%TO.P,J5,4,Pin_4*%
%TO.N,/PWM_1_B*%
X168250000Y-124800000D03*
%TD*%
D20*
%TO.P,Q3,1,D*%
%TO.N,/PWM_0_B*%
X182900000Y-120950000D03*
X182400000Y-120950000D03*
X182900000Y-119450000D03*
X182400000Y-119450000D03*
%TO.P,Q3,2,G*%
%TO.N,/GATE_0_B*%
X181900000Y-119450000D03*
%TO.P,Q3,3,S*%
%TO.N,GND*%
X181900000Y-120950000D03*
%TD*%
%TO.P,Q4,1,D*%
%TO.N,/PWM_1_R*%
X170700000Y-119350000D03*
X170700000Y-120850000D03*
X170200000Y-120850000D03*
X170200000Y-119350000D03*
%TO.P,Q4,2,G*%
%TO.N,/GATE_1_R*%
X169700000Y-119350000D03*
%TO.P,Q4,3,S*%
%TO.N,GND*%
X169700000Y-120850000D03*
%TD*%
D11*
%TO.P,J7,1,Pin_1*%
%TO.N,+5V*%
X144120000Y-124800000D03*
%TO.P,J7,2,Pin_2*%
%TO.N,/WS2812_1_DATA*%
X141580000Y-124800000D03*
%TO.P,J7,3,Pin_3*%
%TO.N,GND*%
X139040000Y-124800000D03*
%TD*%
%TO.P,J6,1,Pin_1*%
%TO.N,+5V*%
X156820000Y-124800000D03*
%TO.P,J6,2,Pin_2*%
%TO.N,/WS2812_0_DATA*%
X154280000Y-124800000D03*
%TO.P,J6,3,Pin_3*%
%TO.N,GND*%
X151740000Y-124800000D03*
%TD*%
D21*
%TO.P,R13,1*%
%TO.N,+3V3*%
X157200000Y-116285000D03*
%TO.P,R13,2*%
%TO.N,/WS2812_0_~{OE}*%
X157200000Y-115315000D03*
%TD*%
%TO.P,R12,1*%
%TO.N,+3V3*%
X156000000Y-116285000D03*
%TO.P,R12,2*%
%TO.N,/WS2812_1_~{OE}*%
X156000000Y-115315000D03*
%TD*%
D22*
%TO.P,C1,1*%
%TO.N,+5V*%
X149125000Y-115400000D03*
%TO.P,C1,2*%
%TO.N,GND*%
X150675000Y-115400000D03*
%TD*%
D12*
%TO.P,R9,1*%
%TO.N,/USB_D_TVS+*%
X155415000Y-110800000D03*
%TO.P,R9,2*%
%TO.N,/USB_D_R+*%
X156385000Y-110800000D03*
%TD*%
%TO.P,R8,1*%
%TO.N,/USB_D_TVS-*%
X155415000Y-109800000D03*
%TO.P,R8,2*%
%TO.N,/USB_D_R-*%
X156385000Y-109800000D03*
%TD*%
D22*
%TO.P,C3,1*%
%TO.N,+3V3*%
X164725000Y-115600000D03*
%TO.P,C3,2*%
%TO.N,GND*%
X166275000Y-115600000D03*
%TD*%
D23*
%TO.P,C6,1*%
%TO.N,+3V3*%
X163470000Y-116200000D03*
%TO.P,C6,2*%
%TO.N,GND*%
X162500000Y-116200000D03*
%TD*%
%TO.P,C5,1*%
%TO.N,+3V3*%
X165985000Y-101700000D03*
%TO.P,C5,2*%
%TO.N,GND*%
X165015000Y-101700000D03*
%TD*%
D24*
%TO.P,REF\u002A\u002A,1*%
%TO.N,GND*%
X182499995Y-107199994D03*
%TD*%
%TO.P,REF\u002A\u002A,1*%
%TO.N,GND*%
X145199995Y-119599994D03*
%TD*%
%TO.P,REF\u002A\u002A,1*%
%TO.N,GND*%
X151699995Y-126799994D03*
%TD*%
%TO.P,REF\u002A\u002A,1*%
%TO.N,+5V*%
X147828000Y-114600000D03*
%TD*%
%TO.P,REF\u002A\u002A,1*%
%TO.N,+3V3*%
X164600000Y-117100000D03*
%TD*%
%TO.P,REF\u002A\u002A,1*%
%TO.N,GND*%
X149999995Y-103199994D03*
%TD*%
%TO.P,REF\u002A\u002A,1*%
%TO.N,GND*%
X138999995Y-122799994D03*
%TD*%
%TO.P,REF\u002A\u002A,1*%
%TO.N,+5V*%
X156800000Y-126850000D03*
%TD*%
%TO.P,REF\u002A\u002A,1*%
%TO.N,GND*%
X152599995Y-121399994D03*
%TD*%
%TO.P,REF\u002A\u002A,1*%
%TO.N,GND*%
X164999995Y-100899994D03*
%TD*%
%TO.P,REF\u002A\u002A,1*%
%TO.N,GND*%
X151699995Y-122799994D03*
%TD*%
%TO.P,REF\u002A\u002A,1*%
%TO.N,GND*%
X161099995Y-119199994D03*
%TD*%
%TO.P,REF\u002A\u002A,1*%
%TO.N,GND*%
X182499995Y-103199994D03*
%TD*%
%TO.P,REF\u002A\u002A,1*%
%TO.N,GND*%
X169599995Y-121599994D03*
%TD*%
%TO.P,REF\u002A\u002A,1*%
%TO.N,+5V*%
X161100000Y-121700000D03*
%TD*%
%TO.P,REF\u002A\u002A,1*%
%TO.N,GND*%
X151499995Y-115399994D03*
%TD*%
%TO.P,REF\u002A\u002A,1*%
%TO.N,+3V3*%
X149300000Y-110600000D03*
%TD*%
%TO.P,REF\u002A\u002A,1*%
%TO.N,GND*%
X176799995Y-116599994D03*
%TD*%
D25*
%TO.P,U3,1,PA00*%
%TO.N,/GATE_0_R*%
X167250000Y-110700000D03*
%TO.P,U3,2,PA01*%
%TO.N,/GATE_1_R*%
X167250000Y-109900000D03*
%TO.P,U3,3,PA02*%
%TO.N,unconnected-(U3-Pad3)*%
X167250000Y-109100000D03*
%TO.P,U3,4,PA03*%
%TO.N,unconnected-(U3-Pad4)*%
X167250000Y-108300000D03*
%TO.P,U3,5,PA04*%
%TO.N,/GATE_0_G*%
X167250000Y-107500000D03*
%TO.P,U3,6,PA05*%
%TO.N,/GATE_1_G*%
X167250000Y-106700000D03*
%TO.P,U3,7,PA06*%
%TO.N,/GATE_0_B*%
X167250000Y-105900000D03*
%TO.P,U3,8,PA07*%
%TO.N,/GATE_1_B*%
X167250000Y-105100000D03*
D26*
%TO.P,U3,9,VDDANA*%
%TO.N,+3V3*%
X165800000Y-103650000D03*
%TO.P,U3,10,GND*%
%TO.N,GND*%
X165000000Y-103650000D03*
%TO.P,U3,11,PA08*%
%TO.N,/SWO_UC*%
X164200000Y-103650000D03*
%TO.P,U3,12,PA09*%
%TO.N,unconnected-(U3-Pad12)*%
X163400000Y-103650000D03*
%TO.P,U3,13,PA10*%
%TO.N,unconnected-(U3-Pad13)*%
X162600000Y-103650000D03*
%TO.P,U3,14,PA11*%
%TO.N,unconnected-(U3-Pad14)*%
X161800000Y-103650000D03*
%TO.P,U3,15,PA14*%
%TO.N,/WS2812_1_DATA_UC_R*%
X161000000Y-103650000D03*
%TO.P,U3,16,PA15*%
%TO.N,unconnected-(U3-Pad16)*%
X160200000Y-103650000D03*
D25*
%TO.P,U3,17,PA16*%
%TO.N,/WS2812_0_DATA_UC_R*%
X158750000Y-105100000D03*
%TO.P,U3,18,PA17*%
%TO.N,unconnected-(U3-Pad18)*%
X158750000Y-105900000D03*
%TO.P,U3,19,PA18*%
%TO.N,/WS2812_1_~{OE}*%
X158750000Y-106700000D03*
%TO.P,U3,20,PA19*%
%TO.N,/WS2812_0_~{OE}*%
X158750000Y-107500000D03*
%TO.P,U3,21,PA22*%
%TO.N,unconnected-(U3-Pad21)*%
X158750000Y-108300000D03*
%TO.P,U3,22,PA23*%
%TO.N,unconnected-(U3-Pad22)*%
X158750000Y-109100000D03*
%TO.P,U3,23,PA24*%
%TO.N,/USB_D_R-*%
X158750000Y-109900000D03*
%TO.P,U3,24,PA25*%
%TO.N,/USB_D_R+*%
X158750000Y-110700000D03*
D26*
%TO.P,U3,25,PA27*%
%TO.N,unconnected-(U3-Pad25)*%
X160200000Y-112150000D03*
%TO.P,U3,26,~{RESET}*%
%TO.N,/NRST*%
X161000000Y-112150000D03*
%TO.P,U3,27,PA28*%
%TO.N,unconnected-(U3-Pad27)*%
X161800000Y-112150000D03*
%TO.P,U3,28,GND*%
%TO.N,GND*%
X162600000Y-112150000D03*
%TO.P,U3,29,VDDCORE*%
%TO.N,+3V3*%
X163400000Y-112150000D03*
%TO.P,U3,30,VDDIN*%
X164200000Y-112150000D03*
%TO.P,U3,31,PA30*%
%TO.N,/SWCLK*%
X165000000Y-112150000D03*
%TO.P,U3,32,PA31*%
%TO.N,/SWDIO_UC*%
X165800000Y-112150000D03*
%TD*%
D24*
%TO.P,REF\u002A\u002A,1*%
%TO.N,GND*%
X162399995Y-117099994D03*
%TD*%
D27*
%TO.P,R15,1*%
%TO.N,/WS2812_0_DATA_UC*%
X159990000Y-101900000D03*
%TO.P,R15,2*%
%TO.N,/WS2812_1_DATA_UC_R*%
X161010000Y-101900000D03*
%TD*%
D24*
%TO.P,REF\u002A\u002A,1*%
%TO.N,+3V3*%
X163500000Y-117100000D03*
%TD*%
%TO.P,REF\u002A\u002A,1*%
%TO.N,GND*%
X166599995Y-121599994D03*
%TD*%
%TO.P,REF\u002A\u002A,1*%
%TO.N,GND*%
X150899995Y-110599994D03*
%TD*%
%TO.P,REF\u002A\u002A,1*%
%TO.N,+5V*%
X144100000Y-122750000D03*
%TD*%
%TO.P,REF\u002A\u002A,1*%
%TO.N,GND*%
X150699995Y-116299994D03*
%TD*%
%TO.P,REF\u002A\u002A,1*%
%TO.N,GND*%
X181799995Y-121699994D03*
%TD*%
D13*
%TO.P,U4,1,VIN*%
%TO.N,+5V*%
X149350000Y-113350000D03*
%TO.P,U4,2,GND*%
%TO.N,GND*%
X150000000Y-113350000D03*
%TO.P,U4,3,EN*%
%TO.N,/3V3_EN*%
X150650000Y-113350000D03*
%TO.P,U4,4,NC*%
%TO.N,unconnected-(U4-Pad4)*%
X150650000Y-111450000D03*
%TO.P,U4,5,VOUT*%
%TO.N,+3V3*%
X149350000Y-111450000D03*
%TD*%
D24*
%TO.P,REF\u002A\u002A,1*%
%TO.N,GND*%
X186099995Y-115599994D03*
%TD*%
%TO.P,REF\u002A\u002A,1*%
%TO.N,+3V3*%
X173900000Y-107100000D03*
%TD*%
D17*
%TO.P,R18,1*%
%TO.N,/SWDIO*%
X166810000Y-114050000D03*
%TO.P,R18,2*%
%TO.N,/SWDIO_UC*%
X165790000Y-114050000D03*
%TD*%
D24*
%TO.P,REF\u002A\u002A,1*%
%TO.N,GND*%
X184899995Y-121699994D03*
%TD*%
%TO.P,REF\u002A\u002A,1*%
%TO.N,GND*%
X187599995Y-103199994D03*
%TD*%
%TO.P,REF\u002A\u002A,1*%
%TO.N,+5V*%
X147828000Y-116200000D03*
%TD*%
D28*
%TO.P,R16,1*%
%TO.N,/WS2812_1_DATA_UC*%
X156900000Y-106110000D03*
%TO.P,R16,2*%
%TO.N,/WS2812_0_DATA_UC_R*%
X156900000Y-105090000D03*
%TD*%
D24*
%TO.P,REF\u002A\u002A,1*%
%TO.N,GND*%
X157699995Y-119499994D03*
%TD*%
D29*
%TO.P,TP1,1,1*%
%TO.N,/SWO*%
X189100000Y-114100000D03*
%TD*%
D24*
%TO.P,REF\u002A\u002A,1*%
%TO.N,+3V3*%
X156000000Y-117200000D03*
%TD*%
%TO.P,REF\u002A\u002A,1*%
%TO.N,GND*%
X187599995Y-107199994D03*
%TD*%
D28*
%TO.P,R2,1*%
%TO.N,+5V*%
X152200000Y-113410000D03*
%TO.P,R2,2*%
%TO.N,/3V3_EN*%
X152200000Y-112390000D03*
%TD*%
D24*
%TO.P,REF\u002A\u002A,1*%
%TO.N,GND*%
X185099995Y-103199994D03*
%TD*%
D30*
%TO.P,J1,1,Pin_1*%
%TO.N,/3V3_JTAG*%
X175560000Y-114950000D03*
%TO.P,J1,2,Pin_2*%
%TO.N,/SWDIO*%
X175560000Y-111050000D03*
%TO.P,J1,3,Pin_3*%
%TO.N,GND*%
X176830000Y-114950000D03*
%TO.P,J1,4,Pin_4*%
%TO.N,/SWCLK*%
X176830000Y-111050000D03*
%TO.P,J1,5,Pin_5*%
%TO.N,GND*%
X178100000Y-114950000D03*
%TO.P,J1,6,Pin_6*%
%TO.N,/SWO*%
X178100000Y-111050000D03*
%TO.P,J1,7,Pin_7*%
%TO.N,unconnected-(J1-Pad7)*%
X179370000Y-114950000D03*
%TO.P,J1,8,Pin_8*%
%TO.N,unconnected-(J1-Pad8)*%
X179370000Y-111050000D03*
%TO.P,J1,9,Pin_9*%
%TO.N,GND*%
X180640000Y-114950000D03*
%TO.P,J1,10,Pin_10*%
%TO.N,/NRST*%
X180640000Y-111050000D03*
%TD*%
D31*
%TO.P,R4,1*%
%TO.N,+3V3*%
X174700000Y-107090000D03*
%TO.P,R4,2*%
%TO.N,/SWDIO*%
X174700000Y-108110000D03*
%TD*%
D24*
%TO.P,REF\u002A\u002A,1*%
%TO.N,+5V*%
X156800000Y-122750000D03*
%TD*%
D31*
%TO.P,R1,1*%
%TO.N,+3V3*%
X177000000Y-107090000D03*
%TO.P,R1,2*%
%TO.N,/NRST*%
X177000000Y-108110000D03*
%TD*%
%TO.P,R14,1*%
%TO.N,+3V3*%
X175900000Y-107090000D03*
%TO.P,R14,2*%
%TO.N,/SWCLK*%
X175900000Y-108110000D03*
%TD*%
D24*
%TO.P,REF\u002A\u002A,1*%
%TO.N,+12V*%
X175800000Y-126800000D03*
%TD*%
%TO.P,REF\u002A\u002A,1*%
%TO.N,GND*%
X149999995Y-107099994D03*
%TD*%
%TO.P,REF\u002A\u002A,1*%
%TO.N,GND*%
X139899995Y-121599994D03*
%TD*%
%TO.P,REF\u002A\u002A,1*%
%TO.N,+12V*%
X191100000Y-126800000D03*
%TD*%
%TO.P,REF\u002A\u002A,1*%
%TO.N,GND*%
X178099995Y-116599994D03*
%TD*%
%TO.P,REF\u002A\u002A,1*%
%TO.N,GND*%
X153999995Y-107599994D03*
%TD*%
%TO.P,REF\u002A\u002A,1*%
%TO.N,+3V3*%
X166000000Y-100850000D03*
%TD*%
%TO.P,REF\u002A\u002A,1*%
%TO.N,GND*%
X166299995Y-116499994D03*
%TD*%
%TO.P,REF\u002A\u002A,1*%
%TO.N,+12V*%
X175800000Y-122800000D03*
%TD*%
%TO.P,REF\u002A\u002A,1*%
%TO.N,+12V*%
X191100000Y-111900000D03*
%TD*%
%TO.P,REF\u002A\u002A,1*%
%TO.N,+5V*%
X144100000Y-126850000D03*
%TD*%
%TO.P,REF\u002A\u002A,1*%
%TO.N,GND*%
X172599995Y-121599994D03*
%TD*%
%TO.P,REF\u002A\u002A,1*%
%TO.N,GND*%
X141599995Y-113799994D03*
%TD*%
%TO.P,REF\u002A\u002A,1*%
%TO.N,+12V*%
X191100000Y-122800000D03*
%TD*%
%TO.P,REF\u002A\u002A,1*%
%TO.N,+5V*%
X154000000Y-104400000D03*
%TD*%
D27*
%TO.P,R17,1*%
%TO.N,/SWO*%
X162690000Y-101900000D03*
%TO.P,R17,2*%
%TO.N,/SWO_UC*%
X163710000Y-101900000D03*
%TD*%
D22*
%TO.P,C7,1*%
%TO.N,+3V3*%
X149325000Y-109600000D03*
%TO.P,C7,2*%
%TO.N,GND*%
X150875000Y-109600000D03*
%TD*%
D31*
%TO.P,R3,1*%
%TO.N,/3V3_JTAG*%
X175600000Y-117490000D03*
%TO.P,R3,2*%
%TO.N,+3V3*%
X175600000Y-118510000D03*
%TD*%
D24*
%TO.P,REF\u002A\u002A,1*%
%TO.N,GND*%
X141599995Y-116999994D03*
%TD*%
%TO.P,REF\u002A\u002A,1*%
%TO.N,GND*%
X148700000Y-119500000D03*
%TD*%
%TO.P,REF\u002A\u002A,1*%
%TO.N,+3V3*%
X175600000Y-119200000D03*
%TD*%
%TO.P,REF\u002A\u002A,1*%
%TO.N,GND*%
X167199995Y-116499994D03*
%TD*%
D31*
%TO.P,R5,1*%
%TO.N,/SWO*%
X186100000Y-113790000D03*
%TO.P,R5,2*%
%TO.N,GND*%
X186100000Y-114810000D03*
%TD*%
D24*
%TO.P,REF\u002A\u002A,1*%
%TO.N,GND*%
X150699995Y-114499994D03*
%TD*%
%TO.P,REF\u002A\u002A,1*%
%TO.N,GND*%
X180599995Y-116599994D03*
%TD*%
%TO.P,REF\u002A\u002A,1*%
%TO.N,GND*%
X185099995Y-107199994D03*
%TD*%
%TO.P,REF\u002A\u002A,1*%
%TO.N,+3V3*%
X149300000Y-108600000D03*
%TD*%
%TO.P,REF\u002A\u002A,1*%
%TO.N,GND*%
X187799995Y-121699994D03*
%TD*%
%TO.P,REF\u002A\u002A,1*%
%TO.N,GND*%
X150899995Y-108699994D03*
%TD*%
%TO.P,REF\u002A\u002A,1*%
%TO.N,+5V*%
X152800000Y-114000000D03*
%TD*%
%TO.P,REF\u002A\u002A,1*%
%TO.N,+5V*%
X147828000Y-115400000D03*
%TD*%
%TO.P,REF\u002A\u002A,1*%
%TO.N,GND*%
X138999995Y-126799994D03*
%TD*%
%TO.P,REF\u002A\u002A,1*%
%TO.N,+12V*%
X191100000Y-107500000D03*
%TD*%
%TO.P,REF\u002A\u002A,1*%
%TO.N,+5V*%
X148700000Y-121900000D03*
%TD*%
D32*
%TO.N,/NRST*%
X162200000Y-110100000D03*
X177019999Y-108836286D03*
%TO.N,/SWCLK*%
X164700497Y-110600000D03*
X175900000Y-108800000D03*
%TO.N,/SWDIO*%
X174700000Y-108800000D03*
X167250000Y-113100000D03*
%TO.N,/GATE_0_R*%
X185413391Y-117027501D03*
X168500000Y-112200000D03*
%TO.N,/GATE_0_G*%
X168950000Y-109100000D03*
X187450000Y-117300000D03*
%TO.N,/GATE_0_B*%
X182900000Y-116100000D03*
X168850000Y-105950000D03*
%TO.N,/GATE_1_R*%
X168600000Y-116400000D03*
X170200000Y-117499503D03*
%TO.N,/GATE_1_G*%
X170200000Y-116500000D03*
X169100000Y-114300000D03*
%TO.N,/GATE_1_B*%
X166200000Y-117900000D03*
X170700000Y-113150000D03*
%TO.N,/WS2812_0_~{OE}*%
X157400000Y-114400000D03*
X159800000Y-115000000D03*
X161100000Y-108500000D03*
%TO.N,/WS2812_1_~{OE}*%
X160745153Y-107125412D03*
X156500000Y-113500000D03*
%TO.N,/WS2812_0_DATA_UC*%
X156886286Y-112086286D03*
X158800000Y-102000000D03*
%TO.N,/WS2812_1_DATA_UC*%
X156300000Y-108800000D03*
X155200000Y-112200000D03*
%TO.N,/SWO*%
X161900000Y-101900000D03*
X186100000Y-112750000D03*
%TD*%
D33*
%TO.N,GND*%
X151699995Y-126799994D02*
X151699995Y-124840005D01*
X150010000Y-105200000D02*
X150010000Y-103209999D01*
X185070000Y-105200000D02*
X185070000Y-107169999D01*
X176799995Y-116599994D02*
X176799995Y-114980005D01*
X138999995Y-122799994D02*
X138999995Y-124759995D01*
X150010000Y-105200000D02*
X150010000Y-107089989D01*
X182530000Y-105200000D02*
X182530000Y-107169989D01*
X161100000Y-119920000D02*
X161100000Y-119199999D01*
X187610000Y-105200000D02*
X187610000Y-107189989D01*
X145899994Y-119599994D02*
X145946500Y-119646500D01*
X141599995Y-113799994D02*
X141599995Y-115350005D01*
X185070000Y-105200000D02*
X185070000Y-103229989D01*
D34*
X153999995Y-107599994D02*
X153999995Y-106925005D01*
D33*
X186099995Y-115599994D02*
X186099995Y-114810005D01*
X145199995Y-119599994D02*
X145899994Y-119599994D01*
X180599995Y-116599994D02*
X180599995Y-114990005D01*
X153290000Y-121400000D02*
X152600001Y-121400000D01*
X151699995Y-122799994D02*
X151699995Y-124759995D01*
X148700000Y-119500000D02*
X148700000Y-120220000D01*
X157699995Y-119499994D02*
X158300006Y-119499994D01*
X187610000Y-105200000D02*
X187610000Y-103209999D01*
X178099995Y-116599994D02*
X178099995Y-114950005D01*
X158300006Y-119499994D02*
X158346500Y-119453500D01*
X140580000Y-121600000D02*
X139900001Y-121600000D01*
X138999995Y-126799994D02*
X138999995Y-124840005D01*
X182530000Y-105200000D02*
X182530000Y-103229999D01*
X141599995Y-116999994D02*
X141599995Y-115449995D01*
%TO.N,+5V*%
X156800000Y-122750000D02*
X156800000Y-124780000D01*
X144100000Y-122750000D02*
X144100000Y-124780000D01*
X152790000Y-114000000D02*
X152200000Y-113410000D01*
X152800000Y-114000000D02*
X152790000Y-114000000D01*
X144100000Y-126850000D02*
X144100000Y-124820000D01*
D34*
X154000000Y-105075000D02*
X154000000Y-104400000D01*
D33*
X156800000Y-126850000D02*
X156800000Y-124820000D01*
%TO.N,+3V3*%
X173900000Y-107100000D02*
X174690000Y-107100000D01*
X175900000Y-107090000D02*
X177000000Y-107090000D01*
X157200000Y-116285000D02*
X156000000Y-116285000D01*
X156000000Y-116285000D02*
X156000000Y-117200000D01*
X174700000Y-107090000D02*
X175900000Y-107090000D01*
X175600000Y-119200000D02*
X175600000Y-118510000D01*
D34*
%TO.N,/NRST*%
X177000000Y-108816287D02*
X177019999Y-108836286D01*
X177000000Y-108110000D02*
X177000000Y-108816287D01*
X178810000Y-108110000D02*
X177000000Y-108110000D01*
X161000000Y-111300000D02*
X161000000Y-112150000D01*
X162200000Y-110100000D02*
X161000000Y-111300000D01*
X180640000Y-109940000D02*
X178810000Y-108110000D01*
X180640000Y-111050000D02*
X180640000Y-109940000D01*
%TO.N,/SWCLK*%
X175900000Y-108800000D02*
X175900000Y-108110000D01*
X165000000Y-112150000D02*
X165000000Y-110899503D01*
X176830000Y-111050000D02*
X176830000Y-109730000D01*
X165000000Y-110899503D02*
X164700497Y-110600000D01*
X176830000Y-109730000D02*
X175900000Y-108800000D01*
%TO.N,/SWDIO*%
X175560000Y-111050000D02*
X175560000Y-109660000D01*
X175560000Y-109660000D02*
X174700000Y-108800000D01*
X166810000Y-113540000D02*
X167250000Y-113100000D01*
X174700000Y-108800000D02*
X174700000Y-108110000D01*
X166810000Y-114050000D02*
X166810000Y-113540000D01*
D33*
%TO.N,+12V*%
X175870000Y-126730000D02*
X175800000Y-126800000D01*
X175870000Y-122870000D02*
X175800000Y-122800000D01*
X191137500Y-109700000D02*
X191137500Y-107537500D01*
X191100000Y-122800000D02*
X191100000Y-124790000D01*
X191137500Y-109700000D02*
X191137500Y-111862500D01*
X191137500Y-107537500D02*
X191100000Y-107500000D01*
X191100000Y-126800000D02*
X191100000Y-124810000D01*
X175870000Y-124800000D02*
X175870000Y-126730000D01*
X191137500Y-111862500D02*
X191100000Y-111900000D01*
X175870000Y-124800000D02*
X175870000Y-122870000D01*
D35*
%TO.N,/USB_D+*%
X151805310Y-101028600D02*
X153771400Y-102994690D01*
X153771400Y-103728600D02*
X153398400Y-104101600D01*
X146428600Y-102294690D02*
X147694690Y-101028600D01*
X153398400Y-104101600D02*
X153398400Y-105085900D01*
X147694690Y-101028600D02*
X151805310Y-101028600D01*
X153398400Y-105085900D02*
X153462500Y-105150000D01*
X146428600Y-103083600D02*
X146428600Y-102294690D01*
X147470000Y-105200000D02*
X147470000Y-104125000D01*
X147470000Y-104125000D02*
X146428600Y-103083600D01*
X153771400Y-102994690D02*
X153771400Y-103728600D01*
%TO.N,/USB_D-*%
X144930000Y-105200000D02*
X144930000Y-104125000D01*
X145971400Y-102105310D02*
X147505310Y-100571400D01*
X154228600Y-102805310D02*
X154228600Y-103728600D01*
X145971400Y-103083600D02*
X145971400Y-102105310D01*
X144930000Y-104125000D02*
X145971400Y-103083600D01*
X154601600Y-104101600D02*
X154601600Y-105085900D01*
X147505310Y-100571400D02*
X151994690Y-100571400D01*
X151994690Y-100571400D02*
X154228600Y-102805310D01*
X154228600Y-103728600D02*
X154601600Y-104101600D01*
X154601600Y-105085900D02*
X154537500Y-105150000D01*
D34*
%TO.N,/WS2812_0_DATA*%
X154280000Y-121430000D02*
X154280000Y-124800000D01*
X154310000Y-121400000D02*
X155615000Y-121400000D01*
%TO.N,/WS2812_1_DATA*%
X141580000Y-124800000D02*
X141580000Y-121620000D01*
X141600000Y-121600000D02*
X143215000Y-121600000D01*
%TO.N,/GATE_0_R*%
X167775000Y-110700000D02*
X168500000Y-111425000D01*
X168500000Y-111425000D02*
X168500000Y-112200000D01*
X185000000Y-119450000D02*
X185000000Y-117440892D01*
X185000000Y-117440892D02*
X185413391Y-117027501D01*
%TO.N,/GATE_0_G*%
X187450000Y-118250000D02*
X187900000Y-118700000D01*
X168304000Y-107500000D02*
X168950000Y-108146000D01*
X187450000Y-117300000D02*
X187450000Y-118250000D01*
X187900000Y-118700000D02*
X187900000Y-119450000D01*
X168950000Y-108146000D02*
X168950000Y-109100000D01*
X167250000Y-107500000D02*
X168304000Y-107500000D01*
%TO.N,/GATE_0_B*%
X181900000Y-119450000D02*
X181900000Y-117100000D01*
X181900000Y-117100000D02*
X182900000Y-116100000D01*
X168850000Y-105950000D02*
X167300000Y-105950000D01*
X167300000Y-105950000D02*
X167250000Y-105900000D01*
%TO.N,/GATE_1_R*%
X169226500Y-112500927D02*
X169226500Y-111067847D01*
X168600000Y-116400000D02*
X168273500Y-116073500D01*
X169700000Y-117999503D02*
X170200000Y-117499503D01*
X169700000Y-119350000D02*
X169700000Y-117999503D01*
X168058653Y-109900000D02*
X167250000Y-109900000D01*
X168273500Y-113453927D02*
X169226500Y-112500927D01*
X168273500Y-116073500D02*
X168273500Y-113453927D01*
X169226500Y-111067847D02*
X168058653Y-109900000D01*
%TO.N,/GATE_1_G*%
X170150000Y-112750000D02*
X170150000Y-108546000D01*
X171500000Y-116500000D02*
X172700000Y-117700000D01*
X169100000Y-114300000D02*
X169100000Y-113800000D01*
X172700000Y-117700000D02*
X172700000Y-119350000D01*
X168304000Y-106700000D02*
X167250000Y-106700000D01*
X169100000Y-113800000D02*
X170150000Y-112750000D01*
X170150000Y-108546000D02*
X168304000Y-106700000D01*
X170200000Y-116500000D02*
X171500000Y-116500000D01*
%TO.N,/GATE_1_B*%
X166700000Y-118400000D02*
X166200000Y-117900000D01*
X167250000Y-105100000D02*
X169150000Y-105100000D01*
X169150000Y-105100000D02*
X170700000Y-106650000D01*
X166700000Y-119350000D02*
X166700000Y-118400000D01*
X170700000Y-106650000D02*
X170700000Y-113150000D01*
%TO.N,/WS2812_0_DATA_R*%
X156585000Y-121400000D02*
X158300000Y-121400000D01*
%TO.N,/WS2812_1_DATA_R*%
X144185000Y-121600000D02*
X145900000Y-121600000D01*
D35*
%TO.N,/USB_D_R-*%
X157549999Y-109900000D02*
X158750000Y-109900000D01*
X156656399Y-110071399D02*
X157378599Y-110071400D01*
X156385000Y-109800000D02*
X156656399Y-110071399D01*
X157378599Y-110071400D02*
X157549999Y-109900000D01*
%TO.N,/USB_D_TVS-*%
X154228600Y-108371400D02*
X154228600Y-108967021D01*
X154700000Y-107900000D02*
X154228600Y-108371400D01*
X154228600Y-108967021D02*
X155061579Y-109800000D01*
X154537500Y-106850000D02*
X154700000Y-107012500D01*
X154700000Y-107012500D02*
X154700000Y-107900000D01*
X155061579Y-109800000D02*
X155415000Y-109800000D01*
%TO.N,/USB_D_R+*%
X157378599Y-110528600D02*
X157549999Y-110700000D01*
X156385000Y-110800000D02*
X156656399Y-110528601D01*
X156656399Y-110528601D02*
X157378599Y-110528600D01*
X157549999Y-110700000D02*
X158750000Y-110700000D01*
%TO.N,/USB_D_TVS+*%
X155415000Y-110800000D02*
X153771400Y-109156400D01*
X153771400Y-108371400D02*
X153300000Y-107900000D01*
X153300000Y-107012500D02*
X153462500Y-106850000D01*
X153300000Y-107900000D02*
X153300000Y-107012500D01*
X153771400Y-109156400D02*
X153771400Y-108371400D01*
D34*
%TO.N,/WS2812_0_~{OE}*%
X160298000Y-107698000D02*
X161100000Y-108500000D01*
X159650000Y-115150000D02*
X159650000Y-119450000D01*
X158750000Y-107500000D02*
X158948000Y-107698000D01*
X157200000Y-114600000D02*
X157400000Y-114400000D01*
X159800000Y-115000000D02*
X159650000Y-115150000D01*
X157200000Y-115315000D02*
X157200000Y-114600000D01*
X158948000Y-107698000D02*
X160298000Y-107698000D01*
%TO.N,/WS2812_1_~{OE}*%
X156000000Y-115315000D02*
X156000000Y-114000000D01*
X147250000Y-119650000D02*
X148027000Y-118873000D01*
X158750000Y-106700000D02*
X160319741Y-106700000D01*
X160319741Y-106700000D02*
X160745153Y-107125412D01*
X156000000Y-114000000D02*
X156500000Y-113500000D01*
X152273000Y-118873000D02*
X155831000Y-115315000D01*
X148027000Y-118873000D02*
X152273000Y-118873000D01*
%TO.N,/WS2812_0_DATA_UC*%
X159000000Y-119450000D02*
X159000000Y-114200000D01*
X159990000Y-101900000D02*
X158900000Y-101900000D01*
X158900000Y-101900000D02*
X158800000Y-102000000D01*
X159000000Y-114200000D02*
X156886286Y-112086286D01*
%TO.N,/WS2812_1_DATA_UC*%
X147471000Y-118200000D02*
X151600000Y-118200000D01*
X155200000Y-114600000D02*
X155200000Y-112200000D01*
X146600000Y-119650000D02*
X146600000Y-119071000D01*
X146600000Y-119071000D02*
X147471000Y-118200000D01*
X156900000Y-108200000D02*
X156900000Y-106110000D01*
X151600000Y-118200000D02*
X155200000Y-114600000D01*
X156300000Y-108800000D02*
X156900000Y-108200000D01*
%TO.N,/SWO_UC*%
X163710000Y-101900000D02*
X164200000Y-102390000D01*
X164200000Y-102390000D02*
X164200000Y-103650000D01*
%TO.N,/SWDIO_UC*%
X165800000Y-114040000D02*
X165790000Y-114050000D01*
X165800000Y-112150000D02*
X165800000Y-114040000D01*
%TO.N,/3V3_EN*%
X150650000Y-113350000D02*
X150650000Y-112750000D01*
X150650000Y-112750000D02*
X151010000Y-112390000D01*
X151010000Y-112390000D02*
X152200000Y-112390000D01*
%TO.N,/3V3_JTAG*%
X175560000Y-117450000D02*
X175560000Y-114950000D01*
%TO.N,/SWO*%
X179380000Y-113150000D02*
X185700000Y-113150000D01*
X178100000Y-111870000D02*
X179380000Y-113150000D01*
X178100000Y-111050000D02*
X178100000Y-111870000D01*
X186100000Y-113790000D02*
X186100000Y-112750000D01*
X162690000Y-101900000D02*
X161900000Y-101900000D01*
X187200000Y-113800000D02*
X186110000Y-113800000D01*
X187500000Y-114100000D02*
X187200000Y-113800000D01*
X189100000Y-114100000D02*
X187500000Y-114100000D01*
X185700000Y-113150000D02*
X186100000Y-112750000D01*
X186110000Y-113800000D02*
X186100000Y-113790000D01*
%TO.N,/WS2812_1_DATA_UC_R*%
X161000000Y-103650000D02*
X161000000Y-101910000D01*
%TO.N,/WS2812_0_DATA_UC_R*%
X156900000Y-105090000D02*
X158740000Y-105090000D01*
%TD*%
%TA.AperFunction,Conductor*%
%TO.N,/PWM_0_G*%
G36*
X189088931Y-118920002D02*
G01*
X189109905Y-118936905D01*
X189163095Y-118990095D01*
X189197121Y-119052407D01*
X189200000Y-119079190D01*
X189200000Y-126320810D01*
X189179998Y-126388931D01*
X189163095Y-126409905D01*
X189109905Y-126463095D01*
X189047593Y-126497121D01*
X189020810Y-126500000D01*
X188079190Y-126500000D01*
X188011069Y-126479998D01*
X187990095Y-126463095D01*
X187936905Y-126409905D01*
X187902879Y-126347593D01*
X187900000Y-126320810D01*
X187900000Y-123152063D01*
X187909591Y-123103845D01*
X187980212Y-122933351D01*
X188007526Y-122892474D01*
X188200000Y-122700000D01*
X188200000Y-122132335D01*
X188220002Y-122064214D01*
X188226037Y-122055631D01*
X188279323Y-121986187D01*
X188284350Y-121979636D01*
X188340223Y-121844748D01*
X188359280Y-121699994D01*
X188340223Y-121555240D01*
X188337063Y-121547611D01*
X188311345Y-121485521D01*
X188303756Y-121414931D01*
X188307257Y-121403008D01*
X188309734Y-121399301D01*
X188324500Y-121325067D01*
X188324499Y-120574934D01*
X188309734Y-120500699D01*
X188253484Y-120416516D01*
X188243168Y-120409623D01*
X188236905Y-120403360D01*
X188202879Y-120341048D01*
X188200000Y-120314265D01*
X188200000Y-120085735D01*
X188220002Y-120017614D01*
X188236905Y-119996640D01*
X188243168Y-119990377D01*
X188253484Y-119983484D01*
X188309734Y-119899301D01*
X188324500Y-119825067D01*
X188324499Y-119074934D01*
X188320531Y-119054983D01*
X188319655Y-119050579D01*
X188325984Y-118979865D01*
X188369540Y-118923799D01*
X188443234Y-118900000D01*
X189020810Y-118900000D01*
X189088931Y-118920002D01*
G37*
%TD.AperFunction*%
%TD*%
%TA.AperFunction,Conductor*%
%TO.N,+5V*%
G36*
X147288931Y-108920002D02*
G01*
X147309905Y-108936905D01*
X147363095Y-108990095D01*
X147397121Y-109052407D01*
X147400000Y-109079190D01*
X147400000Y-110700000D01*
X149492473Y-112792473D01*
X149519787Y-112833350D01*
X149544917Y-112894019D01*
X149552087Y-112966818D01*
X149545500Y-112999933D01*
X149545501Y-113700066D01*
X149560266Y-113774301D01*
X149567161Y-113784621D01*
X149567162Y-113784622D01*
X149578764Y-113801986D01*
X149600000Y-113871989D01*
X149600000Y-116620810D01*
X149579998Y-116688931D01*
X149563095Y-116709905D01*
X149509905Y-116763095D01*
X149447593Y-116797121D01*
X149420810Y-116800000D01*
X144579190Y-116800000D01*
X144511069Y-116779998D01*
X144490095Y-116763095D01*
X144436905Y-116709905D01*
X144402879Y-116647593D01*
X144400000Y-116620810D01*
X144400000Y-114179190D01*
X144420002Y-114111069D01*
X144436905Y-114090095D01*
X144490095Y-114036905D01*
X144552407Y-114002879D01*
X144579190Y-114000000D01*
X145200000Y-114000000D01*
X145900000Y-113300000D01*
X145900000Y-109079190D01*
X145920002Y-109011069D01*
X145936905Y-108990095D01*
X145990095Y-108936905D01*
X146052407Y-108902879D01*
X146079190Y-108900000D01*
X147220810Y-108900000D01*
X147288931Y-108920002D01*
G37*
%TD.AperFunction*%
%TD*%
%TA.AperFunction,Conductor*%
%TO.N,GND*%
G36*
X167488931Y-115020002D02*
G01*
X167509905Y-115036905D01*
X167563095Y-115090095D01*
X167597121Y-115152407D01*
X167600000Y-115179190D01*
X167600000Y-116620810D01*
X167579998Y-116688931D01*
X167563095Y-116709905D01*
X167509905Y-116763095D01*
X167447593Y-116797121D01*
X167420810Y-116800000D01*
X165779190Y-116800000D01*
X165711069Y-116779998D01*
X165690095Y-116763095D01*
X165636905Y-116709905D01*
X165602879Y-116647593D01*
X165600000Y-116620810D01*
X165600000Y-115179190D01*
X165620002Y-115111069D01*
X165636905Y-115090095D01*
X165690095Y-115036905D01*
X165752407Y-115002879D01*
X165779190Y-115000000D01*
X167420810Y-115000000D01*
X167488931Y-115020002D01*
G37*
%TD.AperFunction*%
%TD*%
%TA.AperFunction,Conductor*%
%TO.N,/PWM_0_B*%
G36*
X183088931Y-118920002D02*
G01*
X183109905Y-118936905D01*
X183163095Y-118990095D01*
X183197121Y-119052407D01*
X183200000Y-119079190D01*
X183200000Y-122100000D01*
X183992474Y-122892474D01*
X184019788Y-122933351D01*
X184090409Y-123103845D01*
X184100000Y-123152063D01*
X184100000Y-126320810D01*
X184079998Y-126388931D01*
X184063095Y-126409905D01*
X184009905Y-126463095D01*
X183947593Y-126497121D01*
X183920810Y-126500000D01*
X182979190Y-126500000D01*
X182911069Y-126479998D01*
X182890095Y-126463095D01*
X182836905Y-126409905D01*
X182802879Y-126347593D01*
X182800000Y-126320810D01*
X182800000Y-123000000D01*
X182307526Y-122507526D01*
X182280212Y-122466649D01*
X182209591Y-122296155D01*
X182200000Y-122247937D01*
X182200000Y-122132335D01*
X182220002Y-122064214D01*
X182226037Y-122055631D01*
X182279323Y-121986187D01*
X182284350Y-121979636D01*
X182340223Y-121844748D01*
X182359280Y-121699994D01*
X182340223Y-121555240D01*
X182337063Y-121547611D01*
X182311345Y-121485521D01*
X182303756Y-121414931D01*
X182307257Y-121403008D01*
X182309734Y-121399301D01*
X182324500Y-121325067D01*
X182324499Y-120574934D01*
X182309734Y-120500699D01*
X182253484Y-120416516D01*
X182243168Y-120409623D01*
X182236905Y-120403360D01*
X182202879Y-120341048D01*
X182200000Y-120314265D01*
X182200000Y-120085735D01*
X182220002Y-120017614D01*
X182236905Y-119996640D01*
X182243168Y-119990377D01*
X182253484Y-119983484D01*
X182309734Y-119899301D01*
X182324500Y-119825067D01*
X182324499Y-119074934D01*
X182320531Y-119054983D01*
X182319655Y-119050579D01*
X182325984Y-118979865D01*
X182369540Y-118923799D01*
X182443234Y-118900000D01*
X183020810Y-118900000D01*
X183088931Y-118920002D01*
G37*
%TD.AperFunction*%
%TD*%
%TA.AperFunction,Conductor*%
%TO.N,GND*%
G36*
X162812621Y-111220002D02*
G01*
X162859114Y-111273658D01*
X162870500Y-111326000D01*
X162870501Y-112975066D01*
X162885266Y-113049301D01*
X162941516Y-113133484D01*
X162951832Y-113140377D01*
X162960609Y-113149154D01*
X162957940Y-113151823D01*
X162989528Y-113189619D01*
X163000000Y-113239910D01*
X163000000Y-114658826D01*
X162986267Y-114716028D01*
X162940132Y-114806573D01*
X162925500Y-114898955D01*
X162925501Y-115301044D01*
X162940132Y-115393427D01*
X162944635Y-115402264D01*
X162986267Y-115483971D01*
X163000000Y-115541174D01*
X163000000Y-115744711D01*
X162986267Y-115801913D01*
X162939912Y-115892890D01*
X162939911Y-115892893D01*
X162935410Y-115901727D01*
X162920500Y-115995863D01*
X162920501Y-116404136D01*
X162935410Y-116498273D01*
X162939912Y-116507108D01*
X162986267Y-116598087D01*
X163000000Y-116655289D01*
X163000000Y-116833063D01*
X162990409Y-116881281D01*
X162962932Y-116947617D01*
X162959772Y-116955246D01*
X162940715Y-117100000D01*
X162959772Y-117244754D01*
X162962932Y-117252384D01*
X162962933Y-117252386D01*
X162976898Y-117286101D01*
X162984488Y-117356690D01*
X162949585Y-117423415D01*
X162909905Y-117463095D01*
X162847593Y-117497121D01*
X162820810Y-117500000D01*
X161979190Y-117500000D01*
X161911069Y-117479998D01*
X161890095Y-117463095D01*
X161836905Y-117409905D01*
X161802879Y-117347593D01*
X161800000Y-117320810D01*
X161800000Y-113330499D01*
X161820002Y-113262378D01*
X161873658Y-113215885D01*
X161925999Y-113204499D01*
X162100066Y-113204499D01*
X162135818Y-113197388D01*
X162162126Y-113192156D01*
X162162128Y-113192155D01*
X162174301Y-113189734D01*
X162184621Y-113182839D01*
X162184622Y-113182838D01*
X162248168Y-113140377D01*
X162258484Y-113133484D01*
X162314734Y-113049301D01*
X162329500Y-112975067D01*
X162329499Y-111326000D01*
X162349501Y-111257879D01*
X162403157Y-111211386D01*
X162455499Y-111200000D01*
X162744500Y-111200000D01*
X162812621Y-111220002D01*
G37*
%TD.AperFunction*%
%TD*%
%TA.AperFunction,Conductor*%
%TO.N,GND*%
G36*
X185024886Y-120420002D02*
G01*
X185071379Y-120473658D01*
X185080344Y-120550581D01*
X185075500Y-120574933D01*
X185075501Y-121325066D01*
X185090266Y-121399301D01*
X185097161Y-121409621D01*
X185097162Y-121409622D01*
X185134366Y-121465301D01*
X185153187Y-121511909D01*
X185153332Y-121513260D01*
X185171598Y-121584826D01*
X185181055Y-121607657D01*
X185189567Y-121639424D01*
X185195376Y-121683549D01*
X185195376Y-121716441D01*
X185189567Y-121760561D01*
X185181054Y-121792331D01*
X185164026Y-121833440D01*
X185147580Y-121861925D01*
X185120162Y-121897657D01*
X185113759Y-121906371D01*
X185107724Y-121914954D01*
X185105490Y-121919589D01*
X185105486Y-121919595D01*
X185101091Y-121928713D01*
X185053493Y-121981391D01*
X184987590Y-122000000D01*
X184779190Y-122000000D01*
X184711069Y-121979998D01*
X184690095Y-121963095D01*
X184636905Y-121909905D01*
X184602879Y-121847593D01*
X184600000Y-121820810D01*
X184600000Y-120579190D01*
X184620002Y-120511069D01*
X184636905Y-120490095D01*
X184690095Y-120436905D01*
X184752407Y-120402879D01*
X184779190Y-120400000D01*
X184956765Y-120400000D01*
X185024886Y-120420002D01*
G37*
%TD.AperFunction*%
%TD*%
%TA.AperFunction,Conductor*%
%TO.N,+5V*%
G36*
X148355280Y-120713733D02*
G01*
X148374476Y-120723514D01*
X148406573Y-120739868D01*
X148416363Y-120741419D01*
X148416364Y-120741419D01*
X148442101Y-120745495D01*
X148498955Y-120754500D01*
X148699959Y-120754500D01*
X148901044Y-120754499D01*
X148993427Y-120739868D01*
X149002259Y-120735368D01*
X149008916Y-120733205D01*
X149079883Y-120731179D01*
X149136944Y-120763944D01*
X149163095Y-120790095D01*
X149197121Y-120852407D01*
X149200000Y-120879190D01*
X149200000Y-122020810D01*
X149179998Y-122088931D01*
X149163095Y-122109905D01*
X149109905Y-122163095D01*
X149047593Y-122197121D01*
X149020810Y-122200000D01*
X147079190Y-122200000D01*
X147011069Y-122179998D01*
X146990095Y-122163095D01*
X146936905Y-122109905D01*
X146902879Y-122047593D01*
X146900000Y-122020810D01*
X146900000Y-120879190D01*
X146920002Y-120811069D01*
X146936905Y-120790095D01*
X146990095Y-120736905D01*
X147052407Y-120702879D01*
X147079190Y-120700000D01*
X148298077Y-120700000D01*
X148355280Y-120713733D01*
G37*
%TD.AperFunction*%
%TD*%
%TA.AperFunction,Conductor*%
%TO.N,+3V3*%
G36*
X164412621Y-111220002D02*
G01*
X164459114Y-111273658D01*
X164470500Y-111326000D01*
X164470501Y-112975066D01*
X164485266Y-113049301D01*
X164541516Y-113133484D01*
X164551832Y-113140377D01*
X164615378Y-113182838D01*
X164615379Y-113182839D01*
X164625699Y-113189734D01*
X164627771Y-113190146D01*
X164677498Y-113230218D01*
X164700000Y-113302080D01*
X164700000Y-114700000D01*
X164900000Y-114900000D01*
X165220810Y-114900000D01*
X165288931Y-114920002D01*
X165309905Y-114936905D01*
X165327217Y-114954217D01*
X165361243Y-115016529D01*
X165359019Y-115078808D01*
X165351011Y-115106081D01*
X165350371Y-115110529D01*
X165350370Y-115110536D01*
X165341139Y-115174742D01*
X165340500Y-115179190D01*
X165340500Y-116620810D01*
X165341986Y-116648545D01*
X165342166Y-116650222D01*
X165342167Y-116650231D01*
X165342711Y-116655289D01*
X165344865Y-116675328D01*
X165362095Y-116730355D01*
X165372017Y-116762040D01*
X165375123Y-116771961D01*
X165378088Y-116777391D01*
X165378089Y-116777393D01*
X165384586Y-116789291D01*
X165400000Y-116849679D01*
X165400000Y-117320810D01*
X165379998Y-117388931D01*
X165363095Y-117409905D01*
X165309905Y-117463095D01*
X165247593Y-117497121D01*
X165220810Y-117500000D01*
X163364974Y-117500000D01*
X163296853Y-117479998D01*
X163250360Y-117426342D01*
X163239475Y-117362772D01*
X163241950Y-117335112D01*
X163241950Y-117335105D01*
X163242501Y-117328947D01*
X163234911Y-117258358D01*
X163216646Y-117186797D01*
X163215736Y-117184600D01*
X163210723Y-117162808D01*
X163204619Y-117116448D01*
X163204619Y-117083552D01*
X163207982Y-117058014D01*
X163210428Y-117039431D01*
X163218941Y-117007663D01*
X163228973Y-116983444D01*
X163228975Y-116983437D01*
X163230156Y-116980587D01*
X163244923Y-116931906D01*
X163254514Y-116883688D01*
X163259500Y-116833063D01*
X163259500Y-116655289D01*
X163258902Y-116650231D01*
X163252766Y-116598396D01*
X163252330Y-116594710D01*
X163238597Y-116537508D01*
X163217484Y-116480278D01*
X163194346Y-116434865D01*
X163182163Y-116397364D01*
X163181551Y-116393498D01*
X163180001Y-116373797D01*
X163180000Y-116026202D01*
X163181552Y-116006486D01*
X163182164Y-116002623D01*
X163194345Y-115965137D01*
X163215800Y-115923028D01*
X163215803Y-115923022D01*
X163217484Y-115919722D01*
X163238597Y-115862492D01*
X163252330Y-115805290D01*
X163259500Y-115744711D01*
X163259500Y-115541174D01*
X163252330Y-115480596D01*
X163238597Y-115423393D01*
X163217483Y-115366159D01*
X163199068Y-115330018D01*
X163186884Y-115292512D01*
X163186549Y-115290392D01*
X163185001Y-115270706D01*
X163185000Y-114929294D01*
X163186551Y-114909585D01*
X163186885Y-114907476D01*
X163199067Y-114869982D01*
X163215797Y-114837147D01*
X163217483Y-114833839D01*
X163238597Y-114776607D01*
X163252330Y-114719405D01*
X163259500Y-114658826D01*
X163259500Y-113239910D01*
X163254051Y-113187009D01*
X163243579Y-113136718D01*
X163237171Y-113112073D01*
X163230333Y-113099550D01*
X163191613Y-113028641D01*
X163191609Y-113028636D01*
X163188645Y-113023207D01*
X163162602Y-112992046D01*
X163154515Y-112981243D01*
X163151232Y-112976329D01*
X163130001Y-112906333D01*
X163130000Y-111326000D01*
X163150002Y-111257879D01*
X163203658Y-111211386D01*
X163256000Y-111200000D01*
X164344500Y-111200000D01*
X164412621Y-111220002D01*
G37*
%TD.AperFunction*%
%TD*%
%TA.AperFunction,Conductor*%
%TO.N,/PWM_0_R*%
G36*
X186188931Y-118920002D02*
G01*
X186209905Y-118936905D01*
X186263095Y-118990095D01*
X186297121Y-119052407D01*
X186300000Y-119079190D01*
X186300000Y-122600000D01*
X186592474Y-122892474D01*
X186619788Y-122933351D01*
X186690409Y-123103845D01*
X186700000Y-123152063D01*
X186700000Y-126320810D01*
X186679998Y-126388931D01*
X186663095Y-126409905D01*
X186609905Y-126463095D01*
X186547593Y-126497121D01*
X186520810Y-126500000D01*
X185579190Y-126500000D01*
X185511069Y-126479998D01*
X185490095Y-126463095D01*
X185436905Y-126409905D01*
X185402879Y-126347593D01*
X185400000Y-126320810D01*
X185400000Y-123000000D01*
X185350000Y-122950000D01*
X185309591Y-122852444D01*
X185300000Y-122804226D01*
X185300000Y-122132335D01*
X185320002Y-122064214D01*
X185326037Y-122055631D01*
X185379323Y-121986187D01*
X185384350Y-121979636D01*
X185440223Y-121844748D01*
X185459280Y-121699994D01*
X185440223Y-121555240D01*
X185437063Y-121547611D01*
X185411345Y-121485521D01*
X185403756Y-121414931D01*
X185407257Y-121403008D01*
X185409734Y-121399301D01*
X185424500Y-121325067D01*
X185424499Y-120574934D01*
X185409734Y-120500699D01*
X185353484Y-120416516D01*
X185343168Y-120409623D01*
X185336905Y-120403360D01*
X185302879Y-120341048D01*
X185300000Y-120314265D01*
X185300000Y-120085735D01*
X185320002Y-120017614D01*
X185336905Y-119996640D01*
X185343168Y-119990377D01*
X185353484Y-119983484D01*
X185409734Y-119899301D01*
X185424500Y-119825067D01*
X185424499Y-119074934D01*
X185420531Y-119054983D01*
X185419655Y-119050579D01*
X185425984Y-118979865D01*
X185469540Y-118923799D01*
X185543234Y-118900000D01*
X186120810Y-118900000D01*
X186188931Y-118920002D01*
G37*
%TD.AperFunction*%
%TD*%
%TA.AperFunction,Conductor*%
%TO.N,GND*%
G36*
X181924886Y-120420002D02*
G01*
X181971379Y-120473658D01*
X181980344Y-120550581D01*
X181975500Y-120574933D01*
X181975501Y-121325066D01*
X181990266Y-121399301D01*
X181997161Y-121409621D01*
X181997162Y-121409622D01*
X182034366Y-121465301D01*
X182053187Y-121511909D01*
X182053332Y-121513260D01*
X182071598Y-121584826D01*
X182081055Y-121607657D01*
X182089567Y-121639424D01*
X182095376Y-121683549D01*
X182095376Y-121716441D01*
X182089567Y-121760561D01*
X182081054Y-121792331D01*
X182064026Y-121833440D01*
X182047580Y-121861925D01*
X182020162Y-121897657D01*
X182013759Y-121906371D01*
X182007724Y-121914954D01*
X182005490Y-121919589D01*
X182005486Y-121919595D01*
X182001091Y-121928713D01*
X181953493Y-121981391D01*
X181887590Y-122000000D01*
X181679190Y-122000000D01*
X181611069Y-121979998D01*
X181590095Y-121963095D01*
X181536905Y-121909905D01*
X181502879Y-121847593D01*
X181500000Y-121820810D01*
X181500000Y-120579190D01*
X181520002Y-120511069D01*
X181536905Y-120490095D01*
X181590095Y-120436905D01*
X181652407Y-120402879D01*
X181679190Y-120400000D01*
X181856765Y-120400000D01*
X181924886Y-120420002D01*
G37*
%TD.AperFunction*%
%TD*%
%TA.AperFunction,Conductor*%
%TO.N,GND*%
G36*
X187924886Y-120420002D02*
G01*
X187971379Y-120473658D01*
X187980344Y-120550581D01*
X187975500Y-120574933D01*
X187975501Y-121325066D01*
X187990266Y-121399301D01*
X187997161Y-121409621D01*
X187997162Y-121409622D01*
X188034366Y-121465301D01*
X188053187Y-121511909D01*
X188053332Y-121513260D01*
X188071598Y-121584826D01*
X188081055Y-121607657D01*
X188089567Y-121639424D01*
X188095376Y-121683549D01*
X188095376Y-121716441D01*
X188089567Y-121760561D01*
X188081054Y-121792331D01*
X188064026Y-121833440D01*
X188047580Y-121861925D01*
X188020162Y-121897657D01*
X188013759Y-121906371D01*
X188007724Y-121914954D01*
X188005490Y-121919589D01*
X188005486Y-121919595D01*
X188001091Y-121928713D01*
X187953493Y-121981391D01*
X187887590Y-122000000D01*
X187679190Y-122000000D01*
X187611069Y-121979998D01*
X187590095Y-121963095D01*
X187536905Y-121909905D01*
X187502879Y-121847593D01*
X187500000Y-121820810D01*
X187500000Y-120579190D01*
X187520002Y-120511069D01*
X187536905Y-120490095D01*
X187590095Y-120436905D01*
X187652407Y-120402879D01*
X187679190Y-120400000D01*
X187856765Y-120400000D01*
X187924886Y-120420002D01*
G37*
%TD.AperFunction*%
%TD*%
%TA.AperFunction,Conductor*%
%TO.N,/PWM_1_B*%
G36*
X167888931Y-118920002D02*
G01*
X167909905Y-118936905D01*
X167963095Y-118990095D01*
X167997121Y-119052407D01*
X168000000Y-119079190D01*
X168000000Y-122100000D01*
X168792474Y-122892474D01*
X168819788Y-122933351D01*
X168890409Y-123103845D01*
X168900000Y-123152063D01*
X168900000Y-126320810D01*
X168879998Y-126388931D01*
X168863095Y-126409905D01*
X168809905Y-126463095D01*
X168747593Y-126497121D01*
X168720810Y-126500000D01*
X167779190Y-126500000D01*
X167711069Y-126479998D01*
X167690095Y-126463095D01*
X167636905Y-126409905D01*
X167602879Y-126347593D01*
X167600000Y-126320810D01*
X167600000Y-123000000D01*
X167107526Y-122507526D01*
X167080212Y-122466649D01*
X167009591Y-122296155D01*
X167000000Y-122247937D01*
X167000000Y-122032335D01*
X167020002Y-121964214D01*
X167026037Y-121955631D01*
X167079323Y-121886187D01*
X167084350Y-121879636D01*
X167140223Y-121744748D01*
X167159280Y-121599994D01*
X167140223Y-121455240D01*
X167137063Y-121447611D01*
X167111345Y-121385521D01*
X167103756Y-121314931D01*
X167107257Y-121303008D01*
X167109734Y-121299301D01*
X167124500Y-121225067D01*
X167124499Y-120474934D01*
X167109734Y-120400699D01*
X167053484Y-120316516D01*
X167043168Y-120309623D01*
X167036905Y-120303360D01*
X167002879Y-120241048D01*
X167000000Y-120214265D01*
X167000000Y-119985735D01*
X167020002Y-119917614D01*
X167036905Y-119896640D01*
X167043168Y-119890377D01*
X167053484Y-119883484D01*
X167109734Y-119799301D01*
X167124500Y-119725067D01*
X167124499Y-119026000D01*
X167144501Y-118957879D01*
X167198157Y-118911386D01*
X167250499Y-118900000D01*
X167820810Y-118900000D01*
X167888931Y-118920002D01*
G37*
%TD.AperFunction*%
%TD*%
%TA.AperFunction,Conductor*%
%TO.N,/+5V_RAW*%
G36*
X142988931Y-103520002D02*
G01*
X143009905Y-103536905D01*
X143063095Y-103590095D01*
X143097121Y-103652407D01*
X143100000Y-103679190D01*
X143100000Y-112420810D01*
X143079998Y-112488931D01*
X143063095Y-112509905D01*
X143009905Y-112563095D01*
X142947593Y-112597121D01*
X142920810Y-112600000D01*
X141879190Y-112600000D01*
X141811069Y-112579998D01*
X141790095Y-112563095D01*
X141736905Y-112509905D01*
X141702879Y-112447593D01*
X141700000Y-112420810D01*
X141700000Y-103679190D01*
X141720002Y-103611069D01*
X141736905Y-103590095D01*
X141790095Y-103536905D01*
X141852407Y-103502879D01*
X141879190Y-103500000D01*
X142920810Y-103500000D01*
X142988931Y-103520002D01*
G37*
%TD.AperFunction*%
%TD*%
%TA.AperFunction,Conductor*%
%TO.N,GND*%
G36*
X169724886Y-120320002D02*
G01*
X169771379Y-120373658D01*
X169780344Y-120450581D01*
X169775500Y-120474933D01*
X169775501Y-121225066D01*
X169790266Y-121299301D01*
X169797161Y-121309621D01*
X169797162Y-121309622D01*
X169834366Y-121365301D01*
X169853187Y-121411909D01*
X169853332Y-121413260D01*
X169871598Y-121484826D01*
X169881055Y-121507657D01*
X169889567Y-121539424D01*
X169895376Y-121583549D01*
X169895376Y-121616441D01*
X169889567Y-121660561D01*
X169881054Y-121692331D01*
X169864026Y-121733440D01*
X169847580Y-121761925D01*
X169820162Y-121797657D01*
X169813759Y-121806371D01*
X169807724Y-121814954D01*
X169805490Y-121819589D01*
X169805486Y-121819595D01*
X169801091Y-121828713D01*
X169753493Y-121881391D01*
X169687590Y-121900000D01*
X169479190Y-121900000D01*
X169411069Y-121879998D01*
X169390095Y-121863095D01*
X169336905Y-121809905D01*
X169302879Y-121747593D01*
X169300000Y-121720810D01*
X169300000Y-120479190D01*
X169320002Y-120411069D01*
X169336905Y-120390095D01*
X169390095Y-120336905D01*
X169452407Y-120302879D01*
X169479190Y-120300000D01*
X169656765Y-120300000D01*
X169724886Y-120320002D01*
G37*
%TD.AperFunction*%
%TD*%
%TA.AperFunction,Conductor*%
%TO.N,/+12V_RAW*%
G36*
X180588931Y-103420002D02*
G01*
X180609905Y-103436905D01*
X180663095Y-103490095D01*
X180697121Y-103552407D01*
X180700000Y-103579190D01*
X180700000Y-107000000D01*
X181500000Y-107800000D01*
X187420810Y-107800000D01*
X187488931Y-107820002D01*
X187509905Y-107836905D01*
X187563095Y-107890095D01*
X187597121Y-107952407D01*
X187600000Y-107979190D01*
X187600000Y-111420810D01*
X187579998Y-111488931D01*
X187563095Y-111509905D01*
X187509905Y-111563095D01*
X187447593Y-111597121D01*
X187420810Y-111600000D01*
X183952063Y-111600000D01*
X183903845Y-111590409D01*
X183733350Y-111519787D01*
X183692474Y-111492474D01*
X181500000Y-109300000D01*
X180591713Y-109300000D01*
X180523592Y-109279998D01*
X180502618Y-109263095D01*
X179336905Y-108097382D01*
X179302879Y-108035070D01*
X179300000Y-108008287D01*
X179300000Y-103579190D01*
X179320002Y-103511069D01*
X179336905Y-103490095D01*
X179390095Y-103436905D01*
X179452407Y-103402879D01*
X179479190Y-103400000D01*
X180520810Y-103400000D01*
X180588931Y-103420002D01*
G37*
%TD.AperFunction*%
%TD*%
%TA.AperFunction,Conductor*%
%TO.N,+3V3*%
G36*
X149788931Y-108220002D02*
G01*
X149809905Y-108236905D01*
X149863095Y-108290095D01*
X149897121Y-108352407D01*
X149900000Y-108379190D01*
X149900000Y-111720810D01*
X149879998Y-111788931D01*
X149863095Y-111809905D01*
X149809905Y-111863095D01*
X149747593Y-111897121D01*
X149720810Y-111900000D01*
X149019178Y-111900000D01*
X148951057Y-111879998D01*
X148930083Y-111863095D01*
X148836905Y-111769917D01*
X148802879Y-111707605D01*
X148800000Y-111680822D01*
X148800000Y-108379190D01*
X148820002Y-108311069D01*
X148836905Y-108290095D01*
X148890095Y-108236905D01*
X148952407Y-108202879D01*
X148979190Y-108200000D01*
X149720810Y-108200000D01*
X149788931Y-108220002D01*
G37*
%TD.AperFunction*%
%TD*%
%TA.AperFunction,Conductor*%
%TO.N,GND*%
G36*
X165288931Y-100420002D02*
G01*
X165309905Y-100436905D01*
X165363095Y-100490095D01*
X165397121Y-100552407D01*
X165400000Y-100579190D01*
X165400000Y-102560090D01*
X165379998Y-102628211D01*
X165359173Y-102649410D01*
X165360609Y-102650846D01*
X165351832Y-102659623D01*
X165341516Y-102666516D01*
X165285266Y-102750699D01*
X165270500Y-102824933D01*
X165270500Y-102831120D01*
X165270501Y-104474000D01*
X165250499Y-104542121D01*
X165196843Y-104588614D01*
X165144501Y-104600000D01*
X164855500Y-104600000D01*
X164787379Y-104579998D01*
X164740886Y-104526342D01*
X164729500Y-104474000D01*
X164729499Y-102831123D01*
X164729499Y-102824934D01*
X164714734Y-102750699D01*
X164658484Y-102666516D01*
X164648168Y-102659623D01*
X164639391Y-102650846D01*
X164642060Y-102648177D01*
X164610472Y-102610381D01*
X164600000Y-102560090D01*
X164600000Y-100579190D01*
X164620002Y-100511069D01*
X164636905Y-100490095D01*
X164690095Y-100436905D01*
X164752407Y-100402879D01*
X164779190Y-100400000D01*
X165220810Y-100400000D01*
X165288931Y-100420002D01*
G37*
%TD.AperFunction*%
%TD*%
%TA.AperFunction,Conductor*%
%TO.N,GND*%
G36*
X166724886Y-120320002D02*
G01*
X166771379Y-120373658D01*
X166780344Y-120450581D01*
X166775500Y-120474933D01*
X166775501Y-121225066D01*
X166790266Y-121299301D01*
X166797161Y-121309621D01*
X166797162Y-121309622D01*
X166834366Y-121365301D01*
X166853187Y-121411909D01*
X166853332Y-121413260D01*
X166871598Y-121484826D01*
X166881055Y-121507657D01*
X166889567Y-121539424D01*
X166895376Y-121583549D01*
X166895376Y-121616441D01*
X166889567Y-121660561D01*
X166881054Y-121692331D01*
X166864026Y-121733440D01*
X166847580Y-121761925D01*
X166820162Y-121797657D01*
X166813759Y-121806371D01*
X166807724Y-121814954D01*
X166805490Y-121819589D01*
X166805486Y-121819595D01*
X166801091Y-121828713D01*
X166753493Y-121881391D01*
X166687590Y-121900000D01*
X166479190Y-121900000D01*
X166411069Y-121879998D01*
X166390095Y-121863095D01*
X166336905Y-121809905D01*
X166302879Y-121747593D01*
X166300000Y-121720810D01*
X166300000Y-120479190D01*
X166320002Y-120411069D01*
X166336905Y-120390095D01*
X166390095Y-120336905D01*
X166452407Y-120302879D01*
X166479190Y-120300000D01*
X166656765Y-120300000D01*
X166724886Y-120320002D01*
G37*
%TD.AperFunction*%
%TD*%
%TA.AperFunction,Conductor*%
%TO.N,GND*%
G36*
X172724886Y-120320002D02*
G01*
X172771379Y-120373658D01*
X172780344Y-120450581D01*
X172775500Y-120474933D01*
X172775501Y-121225066D01*
X172790266Y-121299301D01*
X172797161Y-121309621D01*
X172797162Y-121309622D01*
X172834366Y-121365301D01*
X172853187Y-121411909D01*
X172853332Y-121413260D01*
X172871598Y-121484826D01*
X172881055Y-121507657D01*
X172889567Y-121539424D01*
X172895376Y-121583549D01*
X172895376Y-121616441D01*
X172889567Y-121660561D01*
X172881054Y-121692331D01*
X172864026Y-121733440D01*
X172847580Y-121761925D01*
X172820162Y-121797657D01*
X172813759Y-121806371D01*
X172807724Y-121814954D01*
X172805490Y-121819589D01*
X172805486Y-121819595D01*
X172801091Y-121828713D01*
X172753493Y-121881391D01*
X172687590Y-121900000D01*
X172479190Y-121900000D01*
X172411069Y-121879998D01*
X172390095Y-121863095D01*
X172336905Y-121809905D01*
X172302879Y-121747593D01*
X172300000Y-121720810D01*
X172300000Y-120479190D01*
X172320002Y-120411069D01*
X172336905Y-120390095D01*
X172390095Y-120336905D01*
X172452407Y-120302879D01*
X172479190Y-120300000D01*
X172656765Y-120300000D01*
X172724886Y-120320002D01*
G37*
%TD.AperFunction*%
%TD*%
%TA.AperFunction,Conductor*%
%TO.N,+3V3*%
G36*
X166388931Y-100420002D02*
G01*
X166409905Y-100436905D01*
X166463095Y-100490095D01*
X166497121Y-100552407D01*
X166500000Y-100579190D01*
X166500000Y-101947937D01*
X166490409Y-101996155D01*
X166419788Y-102166649D01*
X166404072Y-102190169D01*
X166405472Y-102191105D01*
X166398578Y-102201422D01*
X166300000Y-102300000D01*
X166300000Y-104420810D01*
X166279998Y-104488931D01*
X166263095Y-104509905D01*
X166209905Y-104563095D01*
X166147593Y-104597121D01*
X166120810Y-104600000D01*
X165679190Y-104600000D01*
X165611069Y-104579998D01*
X165590095Y-104563095D01*
X165566906Y-104539906D01*
X165532880Y-104477594D01*
X165530001Y-104450811D01*
X165530000Y-102897298D01*
X165550002Y-102829177D01*
X165563981Y-102811225D01*
X165564032Y-102811170D01*
X165565118Y-102810065D01*
X165566143Y-102808914D01*
X165576910Y-102796820D01*
X165576912Y-102796817D01*
X165582056Y-102791039D01*
X165628987Y-102701320D01*
X165648989Y-102633199D01*
X165651895Y-102612991D01*
X165658861Y-102564538D01*
X165658861Y-102564531D01*
X165659500Y-102560090D01*
X165659500Y-100579190D01*
X165658014Y-100551455D01*
X165656725Y-100539468D01*
X165669330Y-100469602D01*
X165717708Y-100417639D01*
X165782003Y-100400000D01*
X166320810Y-100400000D01*
X166388931Y-100420002D01*
G37*
%TD.AperFunction*%
%TD*%
%TA.AperFunction,Conductor*%
%TO.N,+5V*%
G36*
X161488931Y-120520002D02*
G01*
X161509905Y-120536905D01*
X161563095Y-120590095D01*
X161597121Y-120652407D01*
X161600000Y-120679190D01*
X161600000Y-121820810D01*
X161579998Y-121888931D01*
X161563095Y-121909905D01*
X161509905Y-121963095D01*
X161447593Y-121997121D01*
X161420810Y-122000000D01*
X159479190Y-122000000D01*
X159411069Y-121979998D01*
X159390095Y-121963095D01*
X159336905Y-121909905D01*
X159302879Y-121847593D01*
X159300000Y-121820810D01*
X159300000Y-120679190D01*
X159320002Y-120611069D01*
X159336905Y-120590095D01*
X159390095Y-120536905D01*
X159452407Y-120502879D01*
X159479190Y-120500000D01*
X161420810Y-120500000D01*
X161488931Y-120520002D01*
G37*
%TD.AperFunction*%
%TD*%
%TA.AperFunction,Conductor*%
%TO.N,/PWM_1_G*%
G36*
X173888931Y-118920002D02*
G01*
X173909905Y-118936905D01*
X173963095Y-118990095D01*
X173997121Y-119052407D01*
X174000000Y-119079190D01*
X174000000Y-126320810D01*
X173979998Y-126388931D01*
X173963095Y-126409905D01*
X173909905Y-126463095D01*
X173847593Y-126497121D01*
X173820810Y-126500000D01*
X172879190Y-126500000D01*
X172811069Y-126479998D01*
X172790095Y-126463095D01*
X172736905Y-126409905D01*
X172702879Y-126347593D01*
X172700000Y-126320810D01*
X172700000Y-123152063D01*
X172709591Y-123103845D01*
X172780212Y-122933351D01*
X172807526Y-122892474D01*
X173000000Y-122700000D01*
X173000000Y-122032335D01*
X173020002Y-121964214D01*
X173026037Y-121955631D01*
X173079323Y-121886187D01*
X173084350Y-121879636D01*
X173140223Y-121744748D01*
X173159280Y-121599994D01*
X173140223Y-121455240D01*
X173137063Y-121447611D01*
X173111345Y-121385521D01*
X173103756Y-121314931D01*
X173107257Y-121303008D01*
X173109734Y-121299301D01*
X173124500Y-121225067D01*
X173124499Y-120474934D01*
X173109734Y-120400699D01*
X173053484Y-120316516D01*
X173043168Y-120309623D01*
X173036905Y-120303360D01*
X173002879Y-120241048D01*
X173000000Y-120214265D01*
X173000000Y-119985735D01*
X173020002Y-119917614D01*
X173036905Y-119896640D01*
X173043168Y-119890377D01*
X173053484Y-119883484D01*
X173109734Y-119799301D01*
X173124500Y-119725067D01*
X173124499Y-119026000D01*
X173144501Y-118957879D01*
X173198157Y-118911386D01*
X173250499Y-118900000D01*
X173820810Y-118900000D01*
X173888931Y-118920002D01*
G37*
%TD.AperFunction*%
%TD*%
%TA.AperFunction,Conductor*%
%TO.N,GND*%
G36*
X150137621Y-112920002D02*
G01*
X150184114Y-112973658D01*
X150195500Y-113026000D01*
X150195501Y-113700066D01*
X150210266Y-113774301D01*
X150266516Y-113858484D01*
X150350699Y-113914734D01*
X150424933Y-113929500D01*
X150429500Y-113929500D01*
X150500000Y-114000000D01*
X151820810Y-114000000D01*
X151888931Y-114020002D01*
X151909905Y-114036905D01*
X151963095Y-114090095D01*
X151997121Y-114152407D01*
X152000000Y-114179190D01*
X152000000Y-116420810D01*
X151979998Y-116488931D01*
X151963095Y-116509905D01*
X151909905Y-116563095D01*
X151847593Y-116597121D01*
X151820810Y-116600000D01*
X149985500Y-116600000D01*
X149917379Y-116579998D01*
X149870886Y-116526342D01*
X149859500Y-116474000D01*
X149859500Y-113871989D01*
X149848325Y-113796657D01*
X149837850Y-113762126D01*
X149828438Y-113731100D01*
X149828437Y-113731097D01*
X149827089Y-113726654D01*
X149817097Y-113705528D01*
X149805001Y-113651660D01*
X149805000Y-113035375D01*
X149805878Y-113021079D01*
X149806601Y-113017444D01*
X149806829Y-113012802D01*
X149807103Y-113010580D01*
X149835291Y-112945419D01*
X149894234Y-112905842D01*
X149932156Y-112900000D01*
X150069500Y-112900000D01*
X150137621Y-112920002D01*
G37*
%TD.AperFunction*%
%TD*%
%TA.AperFunction,Conductor*%
%TO.N,/PWM_1_R*%
G36*
X170888931Y-118920002D02*
G01*
X170909905Y-118936905D01*
X170963095Y-118990095D01*
X170997121Y-119052407D01*
X171000000Y-119079190D01*
X171000000Y-122600000D01*
X171292474Y-122892474D01*
X171319788Y-122933351D01*
X171390409Y-123103845D01*
X171400000Y-123152063D01*
X171400000Y-126320810D01*
X171379998Y-126388931D01*
X171363095Y-126409905D01*
X171309905Y-126463095D01*
X171247593Y-126497121D01*
X171220810Y-126500000D01*
X170279190Y-126500000D01*
X170211069Y-126479998D01*
X170190095Y-126463095D01*
X170136905Y-126409905D01*
X170102879Y-126347593D01*
X170100000Y-126320810D01*
X170100000Y-123000000D01*
X170050000Y-122950000D01*
X170009591Y-122852444D01*
X170000000Y-122804226D01*
X170000000Y-122032335D01*
X170020002Y-121964214D01*
X170026037Y-121955631D01*
X170079323Y-121886187D01*
X170084350Y-121879636D01*
X170140223Y-121744748D01*
X170159280Y-121599994D01*
X170140223Y-121455240D01*
X170137063Y-121447611D01*
X170111345Y-121385521D01*
X170103756Y-121314931D01*
X170107257Y-121303008D01*
X170109734Y-121299301D01*
X170124500Y-121225067D01*
X170124499Y-120474934D01*
X170109734Y-120400699D01*
X170053484Y-120316516D01*
X170043168Y-120309623D01*
X170036905Y-120303360D01*
X170002879Y-120241048D01*
X170000000Y-120214265D01*
X170000000Y-119985735D01*
X170020002Y-119917614D01*
X170036905Y-119896640D01*
X170043168Y-119890377D01*
X170053484Y-119883484D01*
X170109734Y-119799301D01*
X170124500Y-119725067D01*
X170124499Y-119026000D01*
X170144501Y-118957879D01*
X170198157Y-118911386D01*
X170250499Y-118900000D01*
X170820810Y-118900000D01*
X170888931Y-118920002D01*
G37*
%TD.AperFunction*%
%TD*%
%TA.AperFunction,Conductor*%
%TO.N,GND*%
G36*
X151388931Y-108220002D02*
G01*
X151409905Y-108236905D01*
X151463095Y-108290095D01*
X151497121Y-108352407D01*
X151500000Y-108379190D01*
X151500000Y-110820810D01*
X151479998Y-110888931D01*
X151463095Y-110909905D01*
X151409905Y-110963095D01*
X151347593Y-110997121D01*
X151320810Y-111000000D01*
X151139910Y-111000000D01*
X151071789Y-110979998D01*
X151050590Y-110959173D01*
X151049154Y-110960609D01*
X151040377Y-110951832D01*
X151033484Y-110941516D01*
X150949301Y-110885266D01*
X150875067Y-110870500D01*
X150868880Y-110870500D01*
X150491092Y-110870501D01*
X150426000Y-110870501D01*
X150357879Y-110850499D01*
X150311386Y-110796844D01*
X150300000Y-110744501D01*
X150300000Y-108379190D01*
X150320002Y-108311069D01*
X150336905Y-108290095D01*
X150390095Y-108236905D01*
X150452407Y-108202879D01*
X150479190Y-108200000D01*
X151320810Y-108200000D01*
X151388931Y-108220002D01*
G37*
%TD.AperFunction*%
%TD*%
M02*
