%TF.GenerationSoftware,KiCad,Pcbnew,(6.0.6)*%
%TF.CreationDate,2022-08-13T21:50:17-05:00*%
%TF.ProjectId,usb-led-controller,7573622d-6c65-4642-9d63-6f6e74726f6c,rev?*%
%TF.SameCoordinates,Original*%
%TF.FileFunction,Legend,Top*%
%TF.FilePolarity,Positive*%
%FSLAX46Y46*%
G04 Gerber Fmt 4.6, Leading zero omitted, Abs format (unit mm)*
G04 Created by KiCad (PCBNEW (6.0.6)) date 2022-08-13 21:50:17*
%MOMM*%
%LPD*%
G01*
G04 APERTURE LIST*
%ADD10C,0.150000*%
%ADD11C,0.125000*%
%ADD12C,0.120000*%
%ADD13C,0.100000*%
G04 APERTURE END LIST*
D10*
X161808142Y-128357142D02*
X161836714Y-128271428D01*
X161865285Y-128242857D01*
X161922428Y-128214285D01*
X162008142Y-128214285D01*
X162065285Y-128242857D01*
X162093857Y-128271428D01*
X162122428Y-128328571D01*
X162122428Y-128557142D01*
X161522428Y-128557142D01*
X161522428Y-128357142D01*
X161551000Y-128300000D01*
X161579571Y-128271428D01*
X161636714Y-128242857D01*
X161693857Y-128242857D01*
X161751000Y-128271428D01*
X161779571Y-128300000D01*
X161808142Y-128357142D01*
X161808142Y-128557142D01*
X163088428Y-128214285D02*
X162802714Y-128414285D01*
X163088428Y-128557142D02*
X162488428Y-128557142D01*
X162488428Y-128328571D01*
X162517000Y-128271428D01*
X162545571Y-128242857D01*
X162602714Y-128214285D01*
X162688428Y-128214285D01*
X162745571Y-128242857D01*
X162774142Y-128271428D01*
X162802714Y-128328571D01*
X162802714Y-128557142D01*
X163483000Y-128242857D02*
X163454428Y-128300000D01*
X163454428Y-128385714D01*
X163483000Y-128471428D01*
X163540142Y-128528571D01*
X163597285Y-128557142D01*
X163711571Y-128585714D01*
X163797285Y-128585714D01*
X163911571Y-128557142D01*
X163968714Y-128528571D01*
X164025857Y-128471428D01*
X164054428Y-128385714D01*
X164054428Y-128328571D01*
X164025857Y-128242857D01*
X163997285Y-128214285D01*
X163797285Y-128214285D01*
X163797285Y-128328571D01*
X165020428Y-128771428D02*
X165020428Y-129114285D01*
X165020428Y-128942857D02*
X164420428Y-128942857D01*
X164506142Y-129000000D01*
X164563285Y-129057142D01*
X164591857Y-129114285D01*
X164477571Y-128542857D02*
X164449000Y-128514285D01*
X164420428Y-128457142D01*
X164420428Y-128314285D01*
X164449000Y-128257142D01*
X164477571Y-128228571D01*
X164534714Y-128200000D01*
X164591857Y-128200000D01*
X164677571Y-128228571D01*
X165020428Y-128571428D01*
X165020428Y-128200000D01*
X164420428Y-128028571D02*
X165020428Y-127828571D01*
X164420428Y-127628571D01*
X178516666Y-129050000D02*
X178516666Y-129450000D01*
X178516666Y-129250000D02*
X177816666Y-129250000D01*
X177916666Y-129316666D01*
X177983333Y-129383333D01*
X178016666Y-129450000D01*
X177883333Y-128783333D02*
X177850000Y-128750000D01*
X177816666Y-128683333D01*
X177816666Y-128516666D01*
X177850000Y-128450000D01*
X177883333Y-128416666D01*
X177950000Y-128383333D01*
X178016666Y-128383333D01*
X178116666Y-128416666D01*
X178516666Y-128816666D01*
X178516666Y-128383333D01*
X177816666Y-128183333D02*
X178516666Y-127950000D01*
X177816666Y-127716666D01*
X178516666Y-126950000D02*
X177816666Y-126950000D01*
X177816666Y-126683333D01*
X177850000Y-126616666D01*
X177883333Y-126583333D01*
X177950000Y-126550000D01*
X178050000Y-126550000D01*
X178116666Y-126583333D01*
X178150000Y-126616666D01*
X178183333Y-126683333D01*
X178183333Y-126950000D01*
X177816666Y-126316666D02*
X178516666Y-126150000D01*
X178016666Y-126016666D01*
X178516666Y-125883333D01*
X177816666Y-125716666D01*
X178516666Y-125450000D02*
X177816666Y-125450000D01*
X178316666Y-125216666D01*
X177816666Y-124983333D01*
X178516666Y-124983333D01*
X178516666Y-123750000D02*
X178516666Y-124150000D01*
X178516666Y-123950000D02*
X177816666Y-123950000D01*
X177916666Y-124016666D01*
X177983333Y-124083333D01*
X178016666Y-124150000D01*
X193816666Y-129150000D02*
X193816666Y-129550000D01*
X193816666Y-129350000D02*
X193116666Y-129350000D01*
X193216666Y-129416666D01*
X193283333Y-129483333D01*
X193316666Y-129550000D01*
X193183333Y-128883333D02*
X193150000Y-128850000D01*
X193116666Y-128783333D01*
X193116666Y-128616666D01*
X193150000Y-128550000D01*
X193183333Y-128516666D01*
X193250000Y-128483333D01*
X193316666Y-128483333D01*
X193416666Y-128516666D01*
X193816666Y-128916666D01*
X193816666Y-128483333D01*
X193116666Y-128283333D02*
X193816666Y-128050000D01*
X193116666Y-127816666D01*
X193816666Y-127050000D02*
X193116666Y-127050000D01*
X193116666Y-126783333D01*
X193150000Y-126716666D01*
X193183333Y-126683333D01*
X193250000Y-126650000D01*
X193350000Y-126650000D01*
X193416666Y-126683333D01*
X193450000Y-126716666D01*
X193483333Y-126783333D01*
X193483333Y-127050000D01*
X193116666Y-126416666D02*
X193816666Y-126250000D01*
X193316666Y-126116666D01*
X193816666Y-125983333D01*
X193116666Y-125816666D01*
X193816666Y-125550000D02*
X193116666Y-125550000D01*
X193616666Y-125316666D01*
X193116666Y-125083333D01*
X193816666Y-125083333D01*
X193116666Y-124083333D02*
X193116666Y-124016666D01*
X193150000Y-123950000D01*
X193183333Y-123916666D01*
X193250000Y-123883333D01*
X193383333Y-123850000D01*
X193550000Y-123850000D01*
X193683333Y-123883333D01*
X193750000Y-123916666D01*
X193783333Y-123950000D01*
X193816666Y-124016666D01*
X193816666Y-124083333D01*
X193783333Y-124150000D01*
X193750000Y-124183333D01*
X193683333Y-124216666D01*
X193550000Y-124250000D01*
X193383333Y-124250000D01*
X193250000Y-124216666D01*
X193183333Y-124183333D01*
X193150000Y-124150000D01*
X193116666Y-124083333D01*
X146016666Y-129366666D02*
X146716666Y-129200000D01*
X146216666Y-129066666D01*
X146716666Y-128933333D01*
X146016666Y-128766666D01*
X146683333Y-128533333D02*
X146716666Y-128433333D01*
X146716666Y-128266666D01*
X146683333Y-128200000D01*
X146650000Y-128166666D01*
X146583333Y-128133333D01*
X146516666Y-128133333D01*
X146450000Y-128166666D01*
X146416666Y-128200000D01*
X146383333Y-128266666D01*
X146350000Y-128400000D01*
X146316666Y-128466666D01*
X146283333Y-128500000D01*
X146216666Y-128533333D01*
X146150000Y-128533333D01*
X146083333Y-128500000D01*
X146050000Y-128466666D01*
X146016666Y-128400000D01*
X146016666Y-128233333D01*
X146050000Y-128133333D01*
X146083333Y-127866666D02*
X146050000Y-127833333D01*
X146016666Y-127766666D01*
X146016666Y-127600000D01*
X146050000Y-127533333D01*
X146083333Y-127500000D01*
X146150000Y-127466666D01*
X146216666Y-127466666D01*
X146316666Y-127500000D01*
X146716666Y-127900000D01*
X146716666Y-127466666D01*
X146316666Y-127066666D02*
X146283333Y-127133333D01*
X146250000Y-127166666D01*
X146183333Y-127200000D01*
X146150000Y-127200000D01*
X146083333Y-127166666D01*
X146050000Y-127133333D01*
X146016666Y-127066666D01*
X146016666Y-126933333D01*
X146050000Y-126866666D01*
X146083333Y-126833333D01*
X146150000Y-126800000D01*
X146183333Y-126800000D01*
X146250000Y-126833333D01*
X146283333Y-126866666D01*
X146316666Y-126933333D01*
X146316666Y-127066666D01*
X146350000Y-127133333D01*
X146383333Y-127166666D01*
X146450000Y-127200000D01*
X146583333Y-127200000D01*
X146650000Y-127166666D01*
X146683333Y-127133333D01*
X146716666Y-127066666D01*
X146716666Y-126933333D01*
X146683333Y-126866666D01*
X146650000Y-126833333D01*
X146583333Y-126800000D01*
X146450000Y-126800000D01*
X146383333Y-126833333D01*
X146350000Y-126866666D01*
X146316666Y-126933333D01*
X146716666Y-126133333D02*
X146716666Y-126533333D01*
X146716666Y-126333333D02*
X146016666Y-126333333D01*
X146116666Y-126400000D01*
X146183333Y-126466666D01*
X146216666Y-126533333D01*
X146083333Y-125866666D02*
X146050000Y-125833333D01*
X146016666Y-125766666D01*
X146016666Y-125600000D01*
X146050000Y-125533333D01*
X146083333Y-125500000D01*
X146150000Y-125466666D01*
X146216666Y-125466666D01*
X146316666Y-125500000D01*
X146716666Y-125900000D01*
X146716666Y-125466666D01*
X146716666Y-124266666D02*
X146716666Y-124666666D01*
X146716666Y-124466666D02*
X146016666Y-124466666D01*
X146116666Y-124533333D01*
X146183333Y-124600000D01*
X146216666Y-124666666D01*
X136647619Y-106890476D02*
X137123809Y-106557142D01*
X136647619Y-106319047D02*
X137647619Y-106319047D01*
X137647619Y-106700000D01*
X137600000Y-106795238D01*
X137552380Y-106842857D01*
X137457142Y-106890476D01*
X137314285Y-106890476D01*
X137219047Y-106842857D01*
X137171428Y-106795238D01*
X137123809Y-106700000D01*
X137123809Y-106319047D01*
X136695238Y-107700000D02*
X136647619Y-107604761D01*
X136647619Y-107414285D01*
X136695238Y-107319047D01*
X136790476Y-107271428D01*
X137171428Y-107271428D01*
X137266666Y-107319047D01*
X137314285Y-107414285D01*
X137314285Y-107604761D01*
X137266666Y-107700000D01*
X137171428Y-107747619D01*
X137076190Y-107747619D01*
X136980952Y-107271428D01*
X137314285Y-108080952D02*
X136647619Y-108319047D01*
X137314285Y-108557142D01*
X136933333Y-109652380D02*
X136933333Y-110128571D01*
X136647619Y-109557142D02*
X137647619Y-109890476D01*
X136647619Y-110223809D01*
X152989285Y-103846428D02*
X153596428Y-103846428D01*
X153667857Y-103810714D01*
X153703571Y-103775000D01*
X153739285Y-103703571D01*
X153739285Y-103560714D01*
X153703571Y-103489285D01*
X153667857Y-103453571D01*
X153596428Y-103417857D01*
X152989285Y-103417857D01*
X153703571Y-103096428D02*
X153739285Y-102989285D01*
X153739285Y-102810714D01*
X153703571Y-102739285D01*
X153667857Y-102703571D01*
X153596428Y-102667857D01*
X153525000Y-102667857D01*
X153453571Y-102703571D01*
X153417857Y-102739285D01*
X153382142Y-102810714D01*
X153346428Y-102953571D01*
X153310714Y-103025000D01*
X153275000Y-103060714D01*
X153203571Y-103096428D01*
X153132142Y-103096428D01*
X153060714Y-103060714D01*
X153025000Y-103025000D01*
X152989285Y-102953571D01*
X152989285Y-102775000D01*
X153025000Y-102667857D01*
X153346428Y-102096428D02*
X153382142Y-101989285D01*
X153417857Y-101953571D01*
X153489285Y-101917857D01*
X153596428Y-101917857D01*
X153667857Y-101953571D01*
X153703571Y-101989285D01*
X153739285Y-102060714D01*
X153739285Y-102346428D01*
X152989285Y-102346428D01*
X152989285Y-102096428D01*
X153025000Y-102025000D01*
X153060714Y-101989285D01*
X153132142Y-101953571D01*
X153203571Y-101953571D01*
X153275000Y-101989285D01*
X153310714Y-102025000D01*
X153346428Y-102096428D01*
X153346428Y-102346428D01*
X191216666Y-105466666D02*
X191216666Y-105800000D01*
X190516666Y-105800000D01*
X190850000Y-105233333D02*
X190850000Y-105000000D01*
X191216666Y-104900000D02*
X191216666Y-105233333D01*
X190516666Y-105233333D01*
X190516666Y-104900000D01*
X191216666Y-104600000D02*
X190516666Y-104600000D01*
X190516666Y-104433333D01*
X190550000Y-104333333D01*
X190616666Y-104266666D01*
X190683333Y-104233333D01*
X190816666Y-104200000D01*
X190916666Y-104200000D01*
X191050000Y-104233333D01*
X191116666Y-104266666D01*
X191183333Y-104333333D01*
X191216666Y-104433333D01*
X191216666Y-104600000D01*
X191216666Y-103366666D02*
X190516666Y-103366666D01*
X190516666Y-103100000D01*
X190550000Y-103033333D01*
X190583333Y-103000000D01*
X190650000Y-102966666D01*
X190750000Y-102966666D01*
X190816666Y-103000000D01*
X190850000Y-103033333D01*
X190883333Y-103100000D01*
X190883333Y-103366666D01*
X191216666Y-102566666D02*
X191183333Y-102633333D01*
X191150000Y-102666666D01*
X191083333Y-102700000D01*
X190883333Y-102700000D01*
X190816666Y-102666666D01*
X190783333Y-102633333D01*
X190750000Y-102566666D01*
X190750000Y-102466666D01*
X190783333Y-102400000D01*
X190816666Y-102366666D01*
X190883333Y-102333333D01*
X191083333Y-102333333D01*
X191150000Y-102366666D01*
X191183333Y-102400000D01*
X191216666Y-102466666D01*
X191216666Y-102566666D01*
X190750000Y-102100000D02*
X191216666Y-101966666D01*
X190883333Y-101833333D01*
X191216666Y-101700000D01*
X190750000Y-101566666D01*
X191183333Y-101033333D02*
X191216666Y-101100000D01*
X191216666Y-101233333D01*
X191183333Y-101300000D01*
X191116666Y-101333333D01*
X190850000Y-101333333D01*
X190783333Y-101300000D01*
X190750000Y-101233333D01*
X190750000Y-101100000D01*
X190783333Y-101033333D01*
X190850000Y-101000000D01*
X190916666Y-101000000D01*
X190983333Y-101333333D01*
X191216666Y-100700000D02*
X190750000Y-100700000D01*
X190883333Y-100700000D02*
X190816666Y-100666666D01*
X190783333Y-100633333D01*
X190750000Y-100566666D01*
X190750000Y-100500000D01*
X139147619Y-106304761D02*
X138338095Y-106304761D01*
X138242857Y-106352380D01*
X138195238Y-106400000D01*
X138147619Y-106495238D01*
X138147619Y-106685714D01*
X138195238Y-106780952D01*
X138242857Y-106828571D01*
X138338095Y-106876190D01*
X139147619Y-106876190D01*
X138195238Y-107304761D02*
X138147619Y-107447619D01*
X138147619Y-107685714D01*
X138195238Y-107780952D01*
X138242857Y-107828571D01*
X138338095Y-107876190D01*
X138433333Y-107876190D01*
X138528571Y-107828571D01*
X138576190Y-107780952D01*
X138623809Y-107685714D01*
X138671428Y-107495238D01*
X138719047Y-107400000D01*
X138766666Y-107352380D01*
X138861904Y-107304761D01*
X138957142Y-107304761D01*
X139052380Y-107352380D01*
X139100000Y-107400000D01*
X139147619Y-107495238D01*
X139147619Y-107733333D01*
X139100000Y-107876190D01*
X138671428Y-108638095D02*
X138623809Y-108780952D01*
X138576190Y-108828571D01*
X138480952Y-108876190D01*
X138338095Y-108876190D01*
X138242857Y-108828571D01*
X138195238Y-108780952D01*
X138147619Y-108685714D01*
X138147619Y-108304761D01*
X139147619Y-108304761D01*
X139147619Y-108638095D01*
X139100000Y-108733333D01*
X139052380Y-108780952D01*
X138957142Y-108828571D01*
X138861904Y-108828571D01*
X138766666Y-108780952D01*
X138719047Y-108733333D01*
X138671428Y-108638095D01*
X138671428Y-108304761D01*
X138147619Y-110542857D02*
X138147619Y-110066666D01*
X139147619Y-110066666D01*
X138671428Y-110876190D02*
X138671428Y-111209523D01*
X138147619Y-111352380D02*
X138147619Y-110876190D01*
X139147619Y-110876190D01*
X139147619Y-111352380D01*
X138147619Y-111780952D02*
X139147619Y-111780952D01*
X139147619Y-112019047D01*
X139100000Y-112161904D01*
X139004761Y-112257142D01*
X138909523Y-112304761D01*
X138719047Y-112352380D01*
X138576190Y-112352380D01*
X138385714Y-112304761D01*
X138290476Y-112257142D01*
X138195238Y-112161904D01*
X138147619Y-112019047D01*
X138147619Y-111780952D01*
X138242857Y-114114285D02*
X138195238Y-114066666D01*
X138147619Y-113923809D01*
X138147619Y-113828571D01*
X138195238Y-113685714D01*
X138290476Y-113590476D01*
X138385714Y-113542857D01*
X138576190Y-113495238D01*
X138719047Y-113495238D01*
X138909523Y-113542857D01*
X139004761Y-113590476D01*
X139100000Y-113685714D01*
X139147619Y-113828571D01*
X139147619Y-113923809D01*
X139100000Y-114066666D01*
X139052380Y-114114285D01*
X138147619Y-114685714D02*
X138195238Y-114590476D01*
X138242857Y-114542857D01*
X138338095Y-114495238D01*
X138623809Y-114495238D01*
X138719047Y-114542857D01*
X138766666Y-114590476D01*
X138814285Y-114685714D01*
X138814285Y-114828571D01*
X138766666Y-114923809D01*
X138719047Y-114971428D01*
X138623809Y-115019047D01*
X138338095Y-115019047D01*
X138242857Y-114971428D01*
X138195238Y-114923809D01*
X138147619Y-114828571D01*
X138147619Y-114685714D01*
X138814285Y-115447619D02*
X138147619Y-115447619D01*
X138719047Y-115447619D02*
X138766666Y-115495238D01*
X138814285Y-115590476D01*
X138814285Y-115733333D01*
X138766666Y-115828571D01*
X138671428Y-115876190D01*
X138147619Y-115876190D01*
X138814285Y-116209523D02*
X138814285Y-116590476D01*
X139147619Y-116352380D02*
X138290476Y-116352380D01*
X138195238Y-116400000D01*
X138147619Y-116495238D01*
X138147619Y-116590476D01*
X138147619Y-116923809D02*
X138814285Y-116923809D01*
X138623809Y-116923809D02*
X138719047Y-116971428D01*
X138766666Y-117019047D01*
X138814285Y-117114285D01*
X138814285Y-117209523D01*
X138147619Y-117685714D02*
X138195238Y-117590476D01*
X138242857Y-117542857D01*
X138338095Y-117495238D01*
X138623809Y-117495238D01*
X138719047Y-117542857D01*
X138766666Y-117590476D01*
X138814285Y-117685714D01*
X138814285Y-117828571D01*
X138766666Y-117923809D01*
X138719047Y-117971428D01*
X138623809Y-118019047D01*
X138338095Y-118019047D01*
X138242857Y-117971428D01*
X138195238Y-117923809D01*
X138147619Y-117828571D01*
X138147619Y-117685714D01*
X138147619Y-118590476D02*
X138195238Y-118495238D01*
X138290476Y-118447619D01*
X139147619Y-118447619D01*
X138147619Y-119114285D02*
X138195238Y-119019047D01*
X138290476Y-118971428D01*
X139147619Y-118971428D01*
X138195238Y-119876190D02*
X138147619Y-119780952D01*
X138147619Y-119590476D01*
X138195238Y-119495238D01*
X138290476Y-119447619D01*
X138671428Y-119447619D01*
X138766666Y-119495238D01*
X138814285Y-119590476D01*
X138814285Y-119780952D01*
X138766666Y-119876190D01*
X138671428Y-119923809D01*
X138576190Y-119923809D01*
X138480952Y-119447619D01*
X138147619Y-120352380D02*
X138814285Y-120352380D01*
X138623809Y-120352380D02*
X138719047Y-120400000D01*
X138766666Y-120447619D01*
X138814285Y-120542857D01*
X138814285Y-120638095D01*
X192952380Y-121190476D02*
X191952380Y-121190476D01*
X192952380Y-120761904D02*
X192428571Y-120761904D01*
X192333333Y-120809523D01*
X192285714Y-120904761D01*
X192285714Y-121047619D01*
X192333333Y-121142857D01*
X192380952Y-121190476D01*
X192285714Y-120428571D02*
X192285714Y-120047619D01*
X191952380Y-120285714D02*
X192809523Y-120285714D01*
X192904761Y-120238095D01*
X192952380Y-120142857D01*
X192952380Y-120047619D01*
X192285714Y-119857142D02*
X192285714Y-119476190D01*
X191952380Y-119714285D02*
X192809523Y-119714285D01*
X192904761Y-119666666D01*
X192952380Y-119571428D01*
X192952380Y-119476190D01*
X192285714Y-119142857D02*
X193285714Y-119142857D01*
X192333333Y-119142857D02*
X192285714Y-119047619D01*
X192285714Y-118857142D01*
X192333333Y-118761904D01*
X192380952Y-118714285D01*
X192476190Y-118666666D01*
X192761904Y-118666666D01*
X192857142Y-118714285D01*
X192904761Y-118761904D01*
X192952380Y-118857142D01*
X192952380Y-119047619D01*
X192904761Y-119142857D01*
X192857142Y-118238095D02*
X192904761Y-118190476D01*
X192952380Y-118238095D01*
X192904761Y-118285714D01*
X192857142Y-118238095D01*
X192952380Y-118238095D01*
X192333333Y-118238095D02*
X192380952Y-118190476D01*
X192428571Y-118238095D01*
X192380952Y-118285714D01*
X192333333Y-118238095D01*
X192428571Y-118238095D01*
X191904761Y-117047619D02*
X193190476Y-117904761D01*
X191904761Y-116000000D02*
X193190476Y-116857142D01*
X192952380Y-115666666D02*
X191952380Y-115666666D01*
X192571428Y-115571428D02*
X192952380Y-115285714D01*
X192285714Y-115285714D02*
X192666666Y-115666666D01*
X192904761Y-114476190D02*
X192952380Y-114571428D01*
X192952380Y-114761904D01*
X192904761Y-114857142D01*
X192809523Y-114904761D01*
X192428571Y-114904761D01*
X192333333Y-114857142D01*
X192285714Y-114761904D01*
X192285714Y-114571428D01*
X192333333Y-114476190D01*
X192428571Y-114428571D01*
X192523809Y-114428571D01*
X192619047Y-114904761D01*
X192285714Y-114095238D02*
X192952380Y-113857142D01*
X192285714Y-113619047D01*
X192952380Y-113238095D02*
X192285714Y-113238095D01*
X191952380Y-113238095D02*
X192000000Y-113285714D01*
X192047619Y-113238095D01*
X192000000Y-113190476D01*
X191952380Y-113238095D01*
X192047619Y-113238095D01*
X192285714Y-112761904D02*
X192952380Y-112761904D01*
X192380952Y-112761904D02*
X192333333Y-112714285D01*
X192285714Y-112619047D01*
X192285714Y-112476190D01*
X192333333Y-112380952D01*
X192428571Y-112333333D01*
X192952380Y-112333333D01*
X192904761Y-111428571D02*
X192952380Y-111523809D01*
X192952380Y-111714285D01*
X192904761Y-111809523D01*
X192857142Y-111857142D01*
X192761904Y-111904761D01*
X192476190Y-111904761D01*
X192380952Y-111857142D01*
X192333333Y-111809523D01*
X192285714Y-111714285D01*
X192285714Y-111523809D01*
X192333333Y-111428571D01*
X192285714Y-110571428D02*
X192952380Y-110571428D01*
X192285714Y-111000000D02*
X192809523Y-111000000D01*
X192904761Y-110952380D01*
X192952380Y-110857142D01*
X192952380Y-110714285D01*
X192904761Y-110619047D01*
X192857142Y-110571428D01*
X192285714Y-110190476D02*
X192285714Y-109666666D01*
X192952380Y-110190476D01*
X192952380Y-109666666D01*
X192285714Y-109285714D02*
X192952380Y-109285714D01*
X192380952Y-109285714D02*
X192333333Y-109238095D01*
X192285714Y-109142857D01*
X192285714Y-109000000D01*
X192333333Y-108904761D01*
X192428571Y-108857142D01*
X192952380Y-108857142D01*
X192904761Y-108000000D02*
X192952380Y-108095238D01*
X192952380Y-108285714D01*
X192904761Y-108380952D01*
X192809523Y-108428571D01*
X192428571Y-108428571D01*
X192333333Y-108380952D01*
X192285714Y-108285714D01*
X192285714Y-108095238D01*
X192333333Y-108000000D01*
X192428571Y-107952380D01*
X192523809Y-107952380D01*
X192619047Y-108428571D01*
X192952380Y-107523809D02*
X192285714Y-107523809D01*
X192476190Y-107523809D02*
X192380952Y-107476190D01*
X192333333Y-107428571D01*
X192285714Y-107333333D01*
X192285714Y-107238095D01*
X192857142Y-106904761D02*
X192904761Y-106857142D01*
X192952380Y-106904761D01*
X192904761Y-106952380D01*
X192857142Y-106904761D01*
X192952380Y-106904761D01*
X192904761Y-106000000D02*
X192952380Y-106095238D01*
X192952380Y-106285714D01*
X192904761Y-106380952D01*
X192857142Y-106428571D01*
X192761904Y-106476190D01*
X192476190Y-106476190D01*
X192380952Y-106428571D01*
X192333333Y-106380952D01*
X192285714Y-106285714D01*
X192285714Y-106095238D01*
X192333333Y-106000000D01*
X192952380Y-105428571D02*
X192904761Y-105523809D01*
X192857142Y-105571428D01*
X192761904Y-105619047D01*
X192476190Y-105619047D01*
X192380952Y-105571428D01*
X192333333Y-105523809D01*
X192285714Y-105428571D01*
X192285714Y-105285714D01*
X192333333Y-105190476D01*
X192380952Y-105142857D01*
X192476190Y-105095238D01*
X192761904Y-105095238D01*
X192857142Y-105142857D01*
X192904761Y-105190476D01*
X192952380Y-105285714D01*
X192952380Y-105428571D01*
X192952380Y-104666666D02*
X192285714Y-104666666D01*
X192380952Y-104666666D02*
X192333333Y-104619047D01*
X192285714Y-104523809D01*
X192285714Y-104380952D01*
X192333333Y-104285714D01*
X192428571Y-104238095D01*
X192952380Y-104238095D01*
X192428571Y-104238095D02*
X192333333Y-104190476D01*
X192285714Y-104095238D01*
X192285714Y-103952380D01*
X192333333Y-103857142D01*
X192428571Y-103809523D01*
X192952380Y-103809523D01*
X158716666Y-129366666D02*
X159416666Y-129200000D01*
X158916666Y-129066666D01*
X159416666Y-128933333D01*
X158716666Y-128766666D01*
X159383333Y-128533333D02*
X159416666Y-128433333D01*
X159416666Y-128266666D01*
X159383333Y-128200000D01*
X159350000Y-128166666D01*
X159283333Y-128133333D01*
X159216666Y-128133333D01*
X159150000Y-128166666D01*
X159116666Y-128200000D01*
X159083333Y-128266666D01*
X159050000Y-128400000D01*
X159016666Y-128466666D01*
X158983333Y-128500000D01*
X158916666Y-128533333D01*
X158850000Y-128533333D01*
X158783333Y-128500000D01*
X158750000Y-128466666D01*
X158716666Y-128400000D01*
X158716666Y-128233333D01*
X158750000Y-128133333D01*
X158783333Y-127866666D02*
X158750000Y-127833333D01*
X158716666Y-127766666D01*
X158716666Y-127600000D01*
X158750000Y-127533333D01*
X158783333Y-127500000D01*
X158850000Y-127466666D01*
X158916666Y-127466666D01*
X159016666Y-127500000D01*
X159416666Y-127900000D01*
X159416666Y-127466666D01*
X159016666Y-127066666D02*
X158983333Y-127133333D01*
X158950000Y-127166666D01*
X158883333Y-127200000D01*
X158850000Y-127200000D01*
X158783333Y-127166666D01*
X158750000Y-127133333D01*
X158716666Y-127066666D01*
X158716666Y-126933333D01*
X158750000Y-126866666D01*
X158783333Y-126833333D01*
X158850000Y-126800000D01*
X158883333Y-126800000D01*
X158950000Y-126833333D01*
X158983333Y-126866666D01*
X159016666Y-126933333D01*
X159016666Y-127066666D01*
X159050000Y-127133333D01*
X159083333Y-127166666D01*
X159150000Y-127200000D01*
X159283333Y-127200000D01*
X159350000Y-127166666D01*
X159383333Y-127133333D01*
X159416666Y-127066666D01*
X159416666Y-126933333D01*
X159383333Y-126866666D01*
X159350000Y-126833333D01*
X159283333Y-126800000D01*
X159150000Y-126800000D01*
X159083333Y-126833333D01*
X159050000Y-126866666D01*
X159016666Y-126933333D01*
X159416666Y-126133333D02*
X159416666Y-126533333D01*
X159416666Y-126333333D02*
X158716666Y-126333333D01*
X158816666Y-126400000D01*
X158883333Y-126466666D01*
X158916666Y-126533333D01*
X158783333Y-125866666D02*
X158750000Y-125833333D01*
X158716666Y-125766666D01*
X158716666Y-125600000D01*
X158750000Y-125533333D01*
X158783333Y-125500000D01*
X158850000Y-125466666D01*
X158916666Y-125466666D01*
X159016666Y-125500000D01*
X159416666Y-125900000D01*
X159416666Y-125466666D01*
X158716666Y-124500000D02*
X158716666Y-124433333D01*
X158750000Y-124366666D01*
X158783333Y-124333333D01*
X158850000Y-124300000D01*
X158983333Y-124266666D01*
X159150000Y-124266666D01*
X159283333Y-124300000D01*
X159350000Y-124333333D01*
X159383333Y-124366666D01*
X159416666Y-124433333D01*
X159416666Y-124500000D01*
X159383333Y-124566666D01*
X159350000Y-124600000D01*
X159283333Y-124633333D01*
X159150000Y-124666666D01*
X158983333Y-124666666D01*
X158850000Y-124633333D01*
X158783333Y-124600000D01*
X158750000Y-124566666D01*
X158716666Y-124500000D01*
X136822428Y-101614285D02*
X136822428Y-101900000D01*
X137108142Y-101928571D01*
X137079571Y-101900000D01*
X137051000Y-101842857D01*
X137051000Y-101700000D01*
X137079571Y-101642857D01*
X137108142Y-101614285D01*
X137165285Y-101585714D01*
X137308142Y-101585714D01*
X137365285Y-101614285D01*
X137393857Y-101642857D01*
X137422428Y-101700000D01*
X137422428Y-101842857D01*
X137393857Y-101900000D01*
X137365285Y-101928571D01*
X136822428Y-101414285D02*
X137422428Y-101214285D01*
X136822428Y-101014285D01*
X138388428Y-102028571D02*
X137788428Y-102028571D01*
X137788428Y-101885714D01*
X137817000Y-101800000D01*
X137874142Y-101742857D01*
X137931285Y-101714285D01*
X138045571Y-101685714D01*
X138131285Y-101685714D01*
X138245571Y-101714285D01*
X138302714Y-101742857D01*
X138359857Y-101800000D01*
X138388428Y-101885714D01*
X138388428Y-102028571D01*
X138159857Y-101428571D02*
X138159857Y-100971428D01*
X139354428Y-102028571D02*
X138754428Y-102028571D01*
X138754428Y-101885714D01*
X138783000Y-101800000D01*
X138840142Y-101742857D01*
X138897285Y-101714285D01*
X139011571Y-101685714D01*
X139097285Y-101685714D01*
X139211571Y-101714285D01*
X139268714Y-101742857D01*
X139325857Y-101800000D01*
X139354428Y-101885714D01*
X139354428Y-102028571D01*
X139125857Y-101428571D02*
X139125857Y-100971428D01*
X139354428Y-101200000D02*
X138897285Y-101200000D01*
X139749000Y-101957142D02*
X139720428Y-102014285D01*
X139720428Y-102100000D01*
X139749000Y-102185714D01*
X139806142Y-102242857D01*
X139863285Y-102271428D01*
X139977571Y-102300000D01*
X140063285Y-102300000D01*
X140177571Y-102271428D01*
X140234714Y-102242857D01*
X140291857Y-102185714D01*
X140320428Y-102100000D01*
X140320428Y-102042857D01*
X140291857Y-101957142D01*
X140263285Y-101928571D01*
X140063285Y-101928571D01*
X140063285Y-102042857D01*
X140320428Y-101671428D02*
X139720428Y-101671428D01*
X140320428Y-101328571D01*
X139720428Y-101328571D01*
X140320428Y-101042857D02*
X139720428Y-101042857D01*
X139720428Y-100900000D01*
X139749000Y-100814285D01*
X139806142Y-100757142D01*
X139863285Y-100728571D01*
X139977571Y-100700000D01*
X140063285Y-100700000D01*
X140177571Y-100728571D01*
X140234714Y-100757142D01*
X140291857Y-100814285D01*
X140320428Y-100900000D01*
X140320428Y-101042857D01*
X133034000Y-128857142D02*
X133005428Y-128914285D01*
X133005428Y-129000000D01*
X133034000Y-129085714D01*
X133091142Y-129142857D01*
X133148285Y-129171428D01*
X133262571Y-129200000D01*
X133348285Y-129200000D01*
X133462571Y-129171428D01*
X133519714Y-129142857D01*
X133576857Y-129085714D01*
X133605428Y-129000000D01*
X133605428Y-128942857D01*
X133576857Y-128857142D01*
X133548285Y-128828571D01*
X133348285Y-128828571D01*
X133348285Y-128942857D01*
X133605428Y-128571428D02*
X133005428Y-128571428D01*
X133605428Y-128228571D01*
X133005428Y-128228571D01*
X133605428Y-127942857D02*
X133005428Y-127942857D01*
X133005428Y-127800000D01*
X133034000Y-127714285D01*
X133091142Y-127657142D01*
X133148285Y-127628571D01*
X133262571Y-127600000D01*
X133348285Y-127600000D01*
X133462571Y-127628571D01*
X133519714Y-127657142D01*
X133576857Y-127714285D01*
X133605428Y-127800000D01*
X133605428Y-127942857D01*
X134571428Y-129300000D02*
X133971428Y-129300000D01*
X133971428Y-129157142D01*
X134000000Y-129071428D01*
X134057142Y-129014285D01*
X134114285Y-128985714D01*
X134228571Y-128957142D01*
X134314285Y-128957142D01*
X134428571Y-128985714D01*
X134485714Y-129014285D01*
X134542857Y-129071428D01*
X134571428Y-129157142D01*
X134571428Y-129300000D01*
X134400000Y-128728571D02*
X134400000Y-128442857D01*
X134571428Y-128785714D02*
X133971428Y-128585714D01*
X134571428Y-128385714D01*
X133971428Y-128271428D02*
X133971428Y-127928571D01*
X134571428Y-128100000D02*
X133971428Y-128100000D01*
X134400000Y-127757142D02*
X134400000Y-127471428D01*
X134571428Y-127814285D02*
X133971428Y-127614285D01*
X134571428Y-127414285D01*
X134937428Y-128514285D02*
X134937428Y-128800000D01*
X135223142Y-128828571D01*
X135194571Y-128800000D01*
X135166000Y-128742857D01*
X135166000Y-128600000D01*
X135194571Y-128542857D01*
X135223142Y-128514285D01*
X135280285Y-128485714D01*
X135423142Y-128485714D01*
X135480285Y-128514285D01*
X135508857Y-128542857D01*
X135537428Y-128600000D01*
X135537428Y-128742857D01*
X135508857Y-128800000D01*
X135480285Y-128828571D01*
X134937428Y-128314285D02*
X135537428Y-128114285D01*
X134937428Y-127914285D01*
X174922428Y-101771428D02*
X174922428Y-102114285D01*
X174922428Y-101942857D02*
X174322428Y-101942857D01*
X174408142Y-102000000D01*
X174465285Y-102057142D01*
X174493857Y-102114285D01*
X174379571Y-101542857D02*
X174351000Y-101514285D01*
X174322428Y-101457142D01*
X174322428Y-101314285D01*
X174351000Y-101257142D01*
X174379571Y-101228571D01*
X174436714Y-101200000D01*
X174493857Y-101200000D01*
X174579571Y-101228571D01*
X174922428Y-101571428D01*
X174922428Y-101200000D01*
X174322428Y-101028571D02*
X174922428Y-100828571D01*
X174322428Y-100628571D01*
X175317000Y-101857142D02*
X175288428Y-101914285D01*
X175288428Y-102000000D01*
X175317000Y-102085714D01*
X175374142Y-102142857D01*
X175431285Y-102171428D01*
X175545571Y-102200000D01*
X175631285Y-102200000D01*
X175745571Y-102171428D01*
X175802714Y-102142857D01*
X175859857Y-102085714D01*
X175888428Y-102000000D01*
X175888428Y-101942857D01*
X175859857Y-101857142D01*
X175831285Y-101828571D01*
X175631285Y-101828571D01*
X175631285Y-101942857D01*
X175888428Y-101571428D02*
X175288428Y-101571428D01*
X175888428Y-101228571D01*
X175288428Y-101228571D01*
X175888428Y-100942857D02*
X175288428Y-100942857D01*
X175288428Y-100800000D01*
X175317000Y-100714285D01*
X175374142Y-100657142D01*
X175431285Y-100628571D01*
X175545571Y-100600000D01*
X175631285Y-100600000D01*
X175745571Y-100628571D01*
X175802714Y-100657142D01*
X175859857Y-100714285D01*
X175888428Y-100800000D01*
X175888428Y-100942857D01*
X176283000Y-101857142D02*
X176254428Y-101914285D01*
X176254428Y-102000000D01*
X176283000Y-102085714D01*
X176340142Y-102142857D01*
X176397285Y-102171428D01*
X176511571Y-102200000D01*
X176597285Y-102200000D01*
X176711571Y-102171428D01*
X176768714Y-102142857D01*
X176825857Y-102085714D01*
X176854428Y-102000000D01*
X176854428Y-101942857D01*
X176825857Y-101857142D01*
X176797285Y-101828571D01*
X176597285Y-101828571D01*
X176597285Y-101942857D01*
X176854428Y-101571428D02*
X176254428Y-101571428D01*
X176854428Y-101228571D01*
X176254428Y-101228571D01*
X176854428Y-100942857D02*
X176254428Y-100942857D01*
X176254428Y-100800000D01*
X176283000Y-100714285D01*
X176340142Y-100657142D01*
X176397285Y-100628571D01*
X176511571Y-100600000D01*
X176597285Y-100600000D01*
X176711571Y-100628571D01*
X176768714Y-100657142D01*
X176825857Y-100714285D01*
X176854428Y-100800000D01*
X176854428Y-100942857D01*
X177249000Y-101857142D02*
X177220428Y-101914285D01*
X177220428Y-102000000D01*
X177249000Y-102085714D01*
X177306142Y-102142857D01*
X177363285Y-102171428D01*
X177477571Y-102200000D01*
X177563285Y-102200000D01*
X177677571Y-102171428D01*
X177734714Y-102142857D01*
X177791857Y-102085714D01*
X177820428Y-102000000D01*
X177820428Y-101942857D01*
X177791857Y-101857142D01*
X177763285Y-101828571D01*
X177563285Y-101828571D01*
X177563285Y-101942857D01*
X177820428Y-101571428D02*
X177220428Y-101571428D01*
X177820428Y-101228571D01*
X177220428Y-101228571D01*
X177820428Y-100942857D02*
X177220428Y-100942857D01*
X177220428Y-100800000D01*
X177249000Y-100714285D01*
X177306142Y-100657142D01*
X177363285Y-100628571D01*
X177477571Y-100600000D01*
X177563285Y-100600000D01*
X177677571Y-100628571D01*
X177734714Y-100657142D01*
X177791857Y-100714285D01*
X177820428Y-100800000D01*
X177820428Y-100942857D01*
%TO.C,C4*%
X161174166Y-115276785D02*
X161143928Y-115307023D01*
X161053214Y-115337261D01*
X160992738Y-115337261D01*
X160902023Y-115307023D01*
X160841547Y-115246547D01*
X160811309Y-115186071D01*
X160781071Y-115065119D01*
X160781071Y-114974404D01*
X160811309Y-114853452D01*
X160841547Y-114792976D01*
X160902023Y-114732500D01*
X160992738Y-114702261D01*
X161053214Y-114702261D01*
X161143928Y-114732500D01*
X161174166Y-114762738D01*
X161718452Y-114913928D02*
X161718452Y-115337261D01*
X161567261Y-114672023D02*
X161416071Y-115125595D01*
X161809166Y-115125595D01*
%TO.C,J2*%
X189548261Y-102911666D02*
X190001833Y-102911666D01*
X190092547Y-102941904D01*
X190153023Y-103002380D01*
X190183261Y-103093095D01*
X190183261Y-103153571D01*
X189608738Y-102639523D02*
X189578500Y-102609285D01*
X189548261Y-102548809D01*
X189548261Y-102397619D01*
X189578500Y-102337142D01*
X189608738Y-102306904D01*
X189669214Y-102276666D01*
X189729690Y-102276666D01*
X189820404Y-102306904D01*
X190183261Y-102669761D01*
X190183261Y-102276666D01*
%TO.C,R6*%
X155994166Y-120587261D02*
X155782500Y-120284880D01*
X155631309Y-120587261D02*
X155631309Y-119952261D01*
X155873214Y-119952261D01*
X155933690Y-119982500D01*
X155963928Y-120012738D01*
X155994166Y-120073214D01*
X155994166Y-120163928D01*
X155963928Y-120224404D01*
X155933690Y-120254642D01*
X155873214Y-120284880D01*
X155631309Y-120284880D01*
X156538452Y-119952261D02*
X156417500Y-119952261D01*
X156357023Y-119982500D01*
X156326785Y-120012738D01*
X156266309Y-120103452D01*
X156236071Y-120224404D01*
X156236071Y-120466309D01*
X156266309Y-120526785D01*
X156296547Y-120557023D01*
X156357023Y-120587261D01*
X156477976Y-120587261D01*
X156538452Y-120557023D01*
X156568690Y-120526785D01*
X156598928Y-120466309D01*
X156598928Y-120315119D01*
X156568690Y-120254642D01*
X156538452Y-120224404D01*
X156477976Y-120194166D01*
X156357023Y-120194166D01*
X156296547Y-120224404D01*
X156266309Y-120254642D01*
X156236071Y-120315119D01*
%TO.C,R7*%
X143594166Y-120717261D02*
X143382500Y-120414880D01*
X143231309Y-120717261D02*
X143231309Y-120082261D01*
X143473214Y-120082261D01*
X143533690Y-120112500D01*
X143563928Y-120142738D01*
X143594166Y-120203214D01*
X143594166Y-120293928D01*
X143563928Y-120354404D01*
X143533690Y-120384642D01*
X143473214Y-120414880D01*
X143231309Y-120414880D01*
X143805833Y-120082261D02*
X144229166Y-120082261D01*
X143957023Y-120717261D01*
%TO.C,U1*%
X156952261Y-120783809D02*
X157466309Y-120783809D01*
X157526785Y-120753571D01*
X157557023Y-120723333D01*
X157587261Y-120662857D01*
X157587261Y-120541904D01*
X157557023Y-120481428D01*
X157526785Y-120451190D01*
X157466309Y-120420952D01*
X156952261Y-120420952D01*
X157587261Y-119785952D02*
X157587261Y-120148809D01*
X157587261Y-119967380D02*
X156952261Y-119967380D01*
X157042976Y-120027857D01*
X157103452Y-120088333D01*
X157133690Y-120148809D01*
%TO.C,U2*%
X144552261Y-120783809D02*
X145066309Y-120783809D01*
X145126785Y-120753571D01*
X145157023Y-120723333D01*
X145187261Y-120662857D01*
X145187261Y-120541904D01*
X145157023Y-120481428D01*
X145126785Y-120451190D01*
X145066309Y-120420952D01*
X144552261Y-120420952D01*
X144612738Y-120148809D02*
X144582500Y-120118571D01*
X144552261Y-120058095D01*
X144552261Y-119906904D01*
X144582500Y-119846428D01*
X144612738Y-119816190D01*
X144673214Y-119785952D01*
X144733690Y-119785952D01*
X144824404Y-119816190D01*
X145187261Y-120179047D01*
X145187261Y-119785952D01*
%TO.C,U5*%
X155252261Y-106483809D02*
X155766309Y-106483809D01*
X155826785Y-106453571D01*
X155857023Y-106423333D01*
X155887261Y-106362857D01*
X155887261Y-106241904D01*
X155857023Y-106181428D01*
X155826785Y-106151190D01*
X155766309Y-106120952D01*
X155252261Y-106120952D01*
X155252261Y-105516190D02*
X155252261Y-105818571D01*
X155554642Y-105848809D01*
X155524404Y-105818571D01*
X155494166Y-105758095D01*
X155494166Y-105606904D01*
X155524404Y-105546428D01*
X155554642Y-105516190D01*
X155615119Y-105485952D01*
X155766309Y-105485952D01*
X155826785Y-105516190D01*
X155857023Y-105546428D01*
X155887261Y-105606904D01*
X155887261Y-105758095D01*
X155857023Y-105818571D01*
X155826785Y-105848809D01*
%TO.C,C9*%
X162426785Y-120505833D02*
X162457023Y-120536071D01*
X162487261Y-120626785D01*
X162487261Y-120687261D01*
X162457023Y-120777976D01*
X162396547Y-120838452D01*
X162336071Y-120868690D01*
X162215119Y-120898928D01*
X162124404Y-120898928D01*
X162003452Y-120868690D01*
X161942976Y-120838452D01*
X161882500Y-120777976D01*
X161852261Y-120687261D01*
X161852261Y-120626785D01*
X161882500Y-120536071D01*
X161912738Y-120505833D01*
X162487261Y-120203452D02*
X162487261Y-120082500D01*
X162457023Y-120022023D01*
X162426785Y-119991785D01*
X162336071Y-119931309D01*
X162215119Y-119901071D01*
X161973214Y-119901071D01*
X161912738Y-119931309D01*
X161882500Y-119961547D01*
X161852261Y-120022023D01*
X161852261Y-120142976D01*
X161882500Y-120203452D01*
X161912738Y-120233690D01*
X161973214Y-120263928D01*
X162124404Y-120263928D01*
X162184880Y-120233690D01*
X162215119Y-120203452D01*
X162245357Y-120142976D01*
X162245357Y-120022023D01*
X162215119Y-119961547D01*
X162184880Y-119931309D01*
X162124404Y-119901071D01*
%TO.C,C10*%
X149926785Y-121108214D02*
X149957023Y-121138452D01*
X149987261Y-121229166D01*
X149987261Y-121289642D01*
X149957023Y-121380357D01*
X149896547Y-121440833D01*
X149836071Y-121471071D01*
X149715119Y-121501309D01*
X149624404Y-121501309D01*
X149503452Y-121471071D01*
X149442976Y-121440833D01*
X149382500Y-121380357D01*
X149352261Y-121289642D01*
X149352261Y-121229166D01*
X149382500Y-121138452D01*
X149412738Y-121108214D01*
X149987261Y-120503452D02*
X149987261Y-120866309D01*
X149987261Y-120684880D02*
X149352261Y-120684880D01*
X149442976Y-120745357D01*
X149503452Y-120805833D01*
X149533690Y-120866309D01*
X149352261Y-120110357D02*
X149352261Y-120049880D01*
X149382500Y-119989404D01*
X149412738Y-119959166D01*
X149473214Y-119928928D01*
X149594166Y-119898690D01*
X149745357Y-119898690D01*
X149866309Y-119928928D01*
X149926785Y-119959166D01*
X149957023Y-119989404D01*
X149987261Y-120049880D01*
X149987261Y-120110357D01*
X149957023Y-120170833D01*
X149926785Y-120201071D01*
X149866309Y-120231309D01*
X149745357Y-120261547D01*
X149594166Y-120261547D01*
X149473214Y-120231309D01*
X149412738Y-120201071D01*
X149382500Y-120170833D01*
X149352261Y-120110357D01*
%TO.C,R10*%
X153391785Y-120587261D02*
X153180119Y-120284880D01*
X153028928Y-120587261D02*
X153028928Y-119952261D01*
X153270833Y-119952261D01*
X153331309Y-119982500D01*
X153361547Y-120012738D01*
X153391785Y-120073214D01*
X153391785Y-120163928D01*
X153361547Y-120224404D01*
X153331309Y-120254642D01*
X153270833Y-120284880D01*
X153028928Y-120284880D01*
X153996547Y-120587261D02*
X153633690Y-120587261D01*
X153815119Y-120587261D02*
X153815119Y-119952261D01*
X153754642Y-120042976D01*
X153694166Y-120103452D01*
X153633690Y-120133690D01*
X154389642Y-119952261D02*
X154450119Y-119952261D01*
X154510595Y-119982500D01*
X154540833Y-120012738D01*
X154571071Y-120073214D01*
X154601309Y-120194166D01*
X154601309Y-120345357D01*
X154571071Y-120466309D01*
X154540833Y-120526785D01*
X154510595Y-120557023D01*
X154450119Y-120587261D01*
X154389642Y-120587261D01*
X154329166Y-120557023D01*
X154298928Y-120526785D01*
X154268690Y-120466309D01*
X154238452Y-120345357D01*
X154238452Y-120194166D01*
X154268690Y-120073214D01*
X154298928Y-120012738D01*
X154329166Y-119982500D01*
X154389642Y-119952261D01*
%TO.C,R11*%
X140681785Y-120787261D02*
X140470119Y-120484880D01*
X140318928Y-120787261D02*
X140318928Y-120152261D01*
X140560833Y-120152261D01*
X140621309Y-120182500D01*
X140651547Y-120212738D01*
X140681785Y-120273214D01*
X140681785Y-120363928D01*
X140651547Y-120424404D01*
X140621309Y-120454642D01*
X140560833Y-120484880D01*
X140318928Y-120484880D01*
X141286547Y-120787261D02*
X140923690Y-120787261D01*
X141105119Y-120787261D02*
X141105119Y-120152261D01*
X141044642Y-120242976D01*
X140984166Y-120303452D01*
X140923690Y-120333690D01*
X141891309Y-120787261D02*
X141528452Y-120787261D01*
X141709880Y-120787261D02*
X141709880Y-120152261D01*
X141649404Y-120242976D01*
X141588928Y-120303452D01*
X141528452Y-120333690D01*
%TO.C,J3*%
X151948261Y-102911666D02*
X152401833Y-102911666D01*
X152492547Y-102941904D01*
X152553023Y-103002380D01*
X152583261Y-103093095D01*
X152583261Y-103153571D01*
X151948261Y-102669761D02*
X151948261Y-102276666D01*
X152190166Y-102488333D01*
X152190166Y-102397619D01*
X152220404Y-102337142D01*
X152250642Y-102306904D01*
X152311119Y-102276666D01*
X152462309Y-102276666D01*
X152522785Y-102306904D01*
X152553023Y-102337142D01*
X152583261Y-102397619D01*
X152583261Y-102579047D01*
X152553023Y-102639523D01*
X152522785Y-102669761D01*
%TO.C,D1*%
X143231309Y-118687261D02*
X143231309Y-118052261D01*
X143382500Y-118052261D01*
X143473214Y-118082500D01*
X143533690Y-118142976D01*
X143563928Y-118203452D01*
X143594166Y-118324404D01*
X143594166Y-118415119D01*
X143563928Y-118536071D01*
X143533690Y-118596547D01*
X143473214Y-118657023D01*
X143382500Y-118687261D01*
X143231309Y-118687261D01*
X144198928Y-118687261D02*
X143836071Y-118687261D01*
X144017500Y-118687261D02*
X144017500Y-118052261D01*
X143957023Y-118142976D01*
X143896547Y-118203452D01*
X143836071Y-118233690D01*
%TO.C,F1*%
X144388333Y-108354642D02*
X144176666Y-108354642D01*
X144176666Y-108687261D02*
X144176666Y-108052261D01*
X144479047Y-108052261D01*
X145053571Y-108687261D02*
X144690714Y-108687261D01*
X144872142Y-108687261D02*
X144872142Y-108052261D01*
X144811666Y-108142976D01*
X144751190Y-108203452D01*
X144690714Y-108233690D01*
%TO.C,F2*%
X188788333Y-112304642D02*
X188576666Y-112304642D01*
X188576666Y-112637261D02*
X188576666Y-112002261D01*
X188879047Y-112002261D01*
X189090714Y-112062738D02*
X189120952Y-112032500D01*
X189181428Y-112002261D01*
X189332619Y-112002261D01*
X189393095Y-112032500D01*
X189423333Y-112062738D01*
X189453571Y-112123214D01*
X189453571Y-112183690D01*
X189423333Y-112274404D01*
X189060476Y-112637261D01*
X189453571Y-112637261D01*
%TO.C,Q2*%
X188339523Y-118647738D02*
X188279047Y-118617500D01*
X188218571Y-118557023D01*
X188127857Y-118466309D01*
X188067380Y-118436071D01*
X188006904Y-118436071D01*
X188037142Y-118587261D02*
X187976666Y-118557023D01*
X187916190Y-118496547D01*
X187885952Y-118375595D01*
X187885952Y-118163928D01*
X187916190Y-118042976D01*
X187976666Y-117982500D01*
X188037142Y-117952261D01*
X188158095Y-117952261D01*
X188218571Y-117982500D01*
X188279047Y-118042976D01*
X188309285Y-118163928D01*
X188309285Y-118375595D01*
X188279047Y-118496547D01*
X188218571Y-118557023D01*
X188158095Y-118587261D01*
X188037142Y-118587261D01*
X188551190Y-118012738D02*
X188581428Y-117982500D01*
X188641904Y-117952261D01*
X188793095Y-117952261D01*
X188853571Y-117982500D01*
X188883809Y-118012738D01*
X188914047Y-118073214D01*
X188914047Y-118133690D01*
X188883809Y-118224404D01*
X188520952Y-118587261D01*
X188914047Y-118587261D01*
%TO.C,Q1*%
X185439523Y-118647738D02*
X185379047Y-118617500D01*
X185318571Y-118557023D01*
X185227857Y-118466309D01*
X185167380Y-118436071D01*
X185106904Y-118436071D01*
X185137142Y-118587261D02*
X185076666Y-118557023D01*
X185016190Y-118496547D01*
X184985952Y-118375595D01*
X184985952Y-118163928D01*
X185016190Y-118042976D01*
X185076666Y-117982500D01*
X185137142Y-117952261D01*
X185258095Y-117952261D01*
X185318571Y-117982500D01*
X185379047Y-118042976D01*
X185409285Y-118163928D01*
X185409285Y-118375595D01*
X185379047Y-118496547D01*
X185318571Y-118557023D01*
X185258095Y-118587261D01*
X185137142Y-118587261D01*
X186014047Y-118587261D02*
X185651190Y-118587261D01*
X185832619Y-118587261D02*
X185832619Y-117952261D01*
X185772142Y-118042976D01*
X185711666Y-118103452D01*
X185651190Y-118133690D01*
%TO.C,Q6*%
X167139523Y-118547738D02*
X167079047Y-118517500D01*
X167018571Y-118457023D01*
X166927857Y-118366309D01*
X166867380Y-118336071D01*
X166806904Y-118336071D01*
X166837142Y-118487261D02*
X166776666Y-118457023D01*
X166716190Y-118396547D01*
X166685952Y-118275595D01*
X166685952Y-118063928D01*
X166716190Y-117942976D01*
X166776666Y-117882500D01*
X166837142Y-117852261D01*
X166958095Y-117852261D01*
X167018571Y-117882500D01*
X167079047Y-117942976D01*
X167109285Y-118063928D01*
X167109285Y-118275595D01*
X167079047Y-118396547D01*
X167018571Y-118457023D01*
X166958095Y-118487261D01*
X166837142Y-118487261D01*
X167653571Y-117852261D02*
X167532619Y-117852261D01*
X167472142Y-117882500D01*
X167441904Y-117912738D01*
X167381428Y-118003452D01*
X167351190Y-118124404D01*
X167351190Y-118366309D01*
X167381428Y-118426785D01*
X167411666Y-118457023D01*
X167472142Y-118487261D01*
X167593095Y-118487261D01*
X167653571Y-118457023D01*
X167683809Y-118426785D01*
X167714047Y-118366309D01*
X167714047Y-118215119D01*
X167683809Y-118154642D01*
X167653571Y-118124404D01*
X167593095Y-118094166D01*
X167472142Y-118094166D01*
X167411666Y-118124404D01*
X167381428Y-118154642D01*
X167351190Y-118215119D01*
%TO.C,J4*%
X180856261Y-127511666D02*
X181309833Y-127511666D01*
X181400547Y-127541904D01*
X181461023Y-127602380D01*
X181491261Y-127693095D01*
X181491261Y-127753571D01*
X181067928Y-126937142D02*
X181491261Y-126937142D01*
X180826023Y-127088333D02*
X181279595Y-127239523D01*
X181279595Y-126846428D01*
%TO.C,Q5*%
X173139523Y-118547738D02*
X173079047Y-118517500D01*
X173018571Y-118457023D01*
X172927857Y-118366309D01*
X172867380Y-118336071D01*
X172806904Y-118336071D01*
X172837142Y-118487261D02*
X172776666Y-118457023D01*
X172716190Y-118396547D01*
X172685952Y-118275595D01*
X172685952Y-118063928D01*
X172716190Y-117942976D01*
X172776666Y-117882500D01*
X172837142Y-117852261D01*
X172958095Y-117852261D01*
X173018571Y-117882500D01*
X173079047Y-117942976D01*
X173109285Y-118063928D01*
X173109285Y-118275595D01*
X173079047Y-118396547D01*
X173018571Y-118457023D01*
X172958095Y-118487261D01*
X172837142Y-118487261D01*
X173683809Y-117852261D02*
X173381428Y-117852261D01*
X173351190Y-118154642D01*
X173381428Y-118124404D01*
X173441904Y-118094166D01*
X173593095Y-118094166D01*
X173653571Y-118124404D01*
X173683809Y-118154642D01*
X173714047Y-118215119D01*
X173714047Y-118366309D01*
X173683809Y-118426785D01*
X173653571Y-118457023D01*
X173593095Y-118487261D01*
X173441904Y-118487261D01*
X173381428Y-118457023D01*
X173351190Y-118426785D01*
%TO.C,J5*%
X165616261Y-127511666D02*
X166069833Y-127511666D01*
X166160547Y-127541904D01*
X166221023Y-127602380D01*
X166251261Y-127693095D01*
X166251261Y-127753571D01*
X165616261Y-126906904D02*
X165616261Y-127209285D01*
X165918642Y-127239523D01*
X165888404Y-127209285D01*
X165858166Y-127148809D01*
X165858166Y-126997619D01*
X165888404Y-126937142D01*
X165918642Y-126906904D01*
X165979119Y-126876666D01*
X166130309Y-126876666D01*
X166190785Y-126906904D01*
X166221023Y-126937142D01*
X166251261Y-126997619D01*
X166251261Y-127148809D01*
X166221023Y-127209285D01*
X166190785Y-127239523D01*
%TO.C,Q3*%
X182339523Y-118647738D02*
X182279047Y-118617500D01*
X182218571Y-118557023D01*
X182127857Y-118466309D01*
X182067380Y-118436071D01*
X182006904Y-118436071D01*
X182037142Y-118587261D02*
X181976666Y-118557023D01*
X181916190Y-118496547D01*
X181885952Y-118375595D01*
X181885952Y-118163928D01*
X181916190Y-118042976D01*
X181976666Y-117982500D01*
X182037142Y-117952261D01*
X182158095Y-117952261D01*
X182218571Y-117982500D01*
X182279047Y-118042976D01*
X182309285Y-118163928D01*
X182309285Y-118375595D01*
X182279047Y-118496547D01*
X182218571Y-118557023D01*
X182158095Y-118587261D01*
X182037142Y-118587261D01*
X182520952Y-117952261D02*
X182914047Y-117952261D01*
X182702380Y-118194166D01*
X182793095Y-118194166D01*
X182853571Y-118224404D01*
X182883809Y-118254642D01*
X182914047Y-118315119D01*
X182914047Y-118466309D01*
X182883809Y-118526785D01*
X182853571Y-118557023D01*
X182793095Y-118587261D01*
X182611666Y-118587261D01*
X182551190Y-118557023D01*
X182520952Y-118526785D01*
%TO.C,Q4*%
X170139523Y-118547738D02*
X170079047Y-118517500D01*
X170018571Y-118457023D01*
X169927857Y-118366309D01*
X169867380Y-118336071D01*
X169806904Y-118336071D01*
X169837142Y-118487261D02*
X169776666Y-118457023D01*
X169716190Y-118396547D01*
X169685952Y-118275595D01*
X169685952Y-118063928D01*
X169716190Y-117942976D01*
X169776666Y-117882500D01*
X169837142Y-117852261D01*
X169958095Y-117852261D01*
X170018571Y-117882500D01*
X170079047Y-117942976D01*
X170109285Y-118063928D01*
X170109285Y-118275595D01*
X170079047Y-118396547D01*
X170018571Y-118457023D01*
X169958095Y-118487261D01*
X169837142Y-118487261D01*
X170653571Y-118063928D02*
X170653571Y-118487261D01*
X170502380Y-117822023D02*
X170351190Y-118275595D01*
X170744285Y-118275595D01*
%TO.C,J7*%
X136232261Y-127511666D02*
X136685833Y-127511666D01*
X136776547Y-127541904D01*
X136837023Y-127602380D01*
X136867261Y-127693095D01*
X136867261Y-127753571D01*
X136232261Y-127269761D02*
X136232261Y-126846428D01*
X136867261Y-127118571D01*
%TO.C,J6*%
X148932261Y-127511666D02*
X149385833Y-127511666D01*
X149476547Y-127541904D01*
X149537023Y-127602380D01*
X149567261Y-127693095D01*
X149567261Y-127753571D01*
X148932261Y-126937142D02*
X148932261Y-127058095D01*
X148962500Y-127118571D01*
X148992738Y-127148809D01*
X149083452Y-127209285D01*
X149204404Y-127239523D01*
X149446309Y-127239523D01*
X149506785Y-127209285D01*
X149537023Y-127179047D01*
X149567261Y-127118571D01*
X149567261Y-126997619D01*
X149537023Y-126937142D01*
X149506785Y-126906904D01*
X149446309Y-126876666D01*
X149295119Y-126876666D01*
X149234642Y-126906904D01*
X149204404Y-126937142D01*
X149174166Y-126997619D01*
X149174166Y-127118571D01*
X149204404Y-127179047D01*
X149234642Y-127209285D01*
X149295119Y-127239523D01*
%TO.C,R13*%
X158587261Y-116208214D02*
X158284880Y-116419880D01*
X158587261Y-116571071D02*
X157952261Y-116571071D01*
X157952261Y-116329166D01*
X157982500Y-116268690D01*
X158012738Y-116238452D01*
X158073214Y-116208214D01*
X158163928Y-116208214D01*
X158224404Y-116238452D01*
X158254642Y-116268690D01*
X158284880Y-116329166D01*
X158284880Y-116571071D01*
X158587261Y-115603452D02*
X158587261Y-115966309D01*
X158587261Y-115784880D02*
X157952261Y-115784880D01*
X158042976Y-115845357D01*
X158103452Y-115905833D01*
X158133690Y-115966309D01*
X157952261Y-115391785D02*
X157952261Y-114998690D01*
X158194166Y-115210357D01*
X158194166Y-115119642D01*
X158224404Y-115059166D01*
X158254642Y-115028928D01*
X158315119Y-114998690D01*
X158466309Y-114998690D01*
X158526785Y-115028928D01*
X158557023Y-115059166D01*
X158587261Y-115119642D01*
X158587261Y-115301071D01*
X158557023Y-115361547D01*
X158526785Y-115391785D01*
%TO.C,R12*%
X155287261Y-116208214D02*
X154984880Y-116419880D01*
X155287261Y-116571071D02*
X154652261Y-116571071D01*
X154652261Y-116329166D01*
X154682500Y-116268690D01*
X154712738Y-116238452D01*
X154773214Y-116208214D01*
X154863928Y-116208214D01*
X154924404Y-116238452D01*
X154954642Y-116268690D01*
X154984880Y-116329166D01*
X154984880Y-116571071D01*
X155287261Y-115603452D02*
X155287261Y-115966309D01*
X155287261Y-115784880D02*
X154652261Y-115784880D01*
X154742976Y-115845357D01*
X154803452Y-115905833D01*
X154833690Y-115966309D01*
X154712738Y-115361547D02*
X154682500Y-115331309D01*
X154652261Y-115270833D01*
X154652261Y-115119642D01*
X154682500Y-115059166D01*
X154712738Y-115028928D01*
X154773214Y-114998690D01*
X154833690Y-114998690D01*
X154924404Y-115028928D01*
X155287261Y-115391785D01*
X155287261Y-114998690D01*
%TO.C,C1*%
X152794166Y-115626785D02*
X152763928Y-115657023D01*
X152673214Y-115687261D01*
X152612738Y-115687261D01*
X152522023Y-115657023D01*
X152461547Y-115596547D01*
X152431309Y-115536071D01*
X152401071Y-115415119D01*
X152401071Y-115324404D01*
X152431309Y-115203452D01*
X152461547Y-115142976D01*
X152522023Y-115082500D01*
X152612738Y-115052261D01*
X152673214Y-115052261D01*
X152763928Y-115082500D01*
X152794166Y-115112738D01*
X153398928Y-115687261D02*
X153036071Y-115687261D01*
X153217500Y-115687261D02*
X153217500Y-115052261D01*
X153157023Y-115142976D01*
X153096547Y-115203452D01*
X153036071Y-115233690D01*
%TO.C,R9*%
X154079166Y-111087261D02*
X153867500Y-110784880D01*
X153716309Y-111087261D02*
X153716309Y-110452261D01*
X153958214Y-110452261D01*
X154018690Y-110482500D01*
X154048928Y-110512738D01*
X154079166Y-110573214D01*
X154079166Y-110663928D01*
X154048928Y-110724404D01*
X154018690Y-110754642D01*
X153958214Y-110784880D01*
X153716309Y-110784880D01*
X154381547Y-111087261D02*
X154502500Y-111087261D01*
X154562976Y-111057023D01*
X154593214Y-111026785D01*
X154653690Y-110936071D01*
X154683928Y-110815119D01*
X154683928Y-110573214D01*
X154653690Y-110512738D01*
X154623452Y-110482500D01*
X154562976Y-110452261D01*
X154442023Y-110452261D01*
X154381547Y-110482500D01*
X154351309Y-110512738D01*
X154321071Y-110573214D01*
X154321071Y-110724404D01*
X154351309Y-110784880D01*
X154381547Y-110815119D01*
X154442023Y-110845357D01*
X154562976Y-110845357D01*
X154623452Y-110815119D01*
X154653690Y-110784880D01*
X154683928Y-110724404D01*
%TO.C,R8*%
X154079166Y-110087261D02*
X153867500Y-109784880D01*
X153716309Y-110087261D02*
X153716309Y-109452261D01*
X153958214Y-109452261D01*
X154018690Y-109482500D01*
X154048928Y-109512738D01*
X154079166Y-109573214D01*
X154079166Y-109663928D01*
X154048928Y-109724404D01*
X154018690Y-109754642D01*
X153958214Y-109784880D01*
X153716309Y-109784880D01*
X154442023Y-109724404D02*
X154381547Y-109694166D01*
X154351309Y-109663928D01*
X154321071Y-109603452D01*
X154321071Y-109573214D01*
X154351309Y-109512738D01*
X154381547Y-109482500D01*
X154442023Y-109452261D01*
X154562976Y-109452261D01*
X154623452Y-109482500D01*
X154653690Y-109512738D01*
X154683928Y-109573214D01*
X154683928Y-109603452D01*
X154653690Y-109663928D01*
X154623452Y-109694166D01*
X154562976Y-109724404D01*
X154442023Y-109724404D01*
X154381547Y-109754642D01*
X154351309Y-109784880D01*
X154321071Y-109845357D01*
X154321071Y-109966309D01*
X154351309Y-110026785D01*
X154381547Y-110057023D01*
X154442023Y-110087261D01*
X154562976Y-110087261D01*
X154623452Y-110057023D01*
X154653690Y-110026785D01*
X154683928Y-109966309D01*
X154683928Y-109845357D01*
X154653690Y-109784880D01*
X154623452Y-109754642D01*
X154562976Y-109724404D01*
%TO.C,C3*%
X167594166Y-115826785D02*
X167563928Y-115857023D01*
X167473214Y-115887261D01*
X167412738Y-115887261D01*
X167322023Y-115857023D01*
X167261547Y-115796547D01*
X167231309Y-115736071D01*
X167201071Y-115615119D01*
X167201071Y-115524404D01*
X167231309Y-115403452D01*
X167261547Y-115342976D01*
X167322023Y-115282500D01*
X167412738Y-115252261D01*
X167473214Y-115252261D01*
X167563928Y-115282500D01*
X167594166Y-115312738D01*
X167805833Y-115252261D02*
X168198928Y-115252261D01*
X167987261Y-115494166D01*
X168077976Y-115494166D01*
X168138452Y-115524404D01*
X168168690Y-115554642D01*
X168198928Y-115615119D01*
X168198928Y-115766309D01*
X168168690Y-115826785D01*
X168138452Y-115857023D01*
X168077976Y-115887261D01*
X167896547Y-115887261D01*
X167836071Y-115857023D01*
X167805833Y-115826785D01*
%TO.C,C6*%
X161129166Y-116426785D02*
X161098928Y-116457023D01*
X161008214Y-116487261D01*
X160947738Y-116487261D01*
X160857023Y-116457023D01*
X160796547Y-116396547D01*
X160766309Y-116336071D01*
X160736071Y-116215119D01*
X160736071Y-116124404D01*
X160766309Y-116003452D01*
X160796547Y-115942976D01*
X160857023Y-115882500D01*
X160947738Y-115852261D01*
X161008214Y-115852261D01*
X161098928Y-115882500D01*
X161129166Y-115912738D01*
X161673452Y-115852261D02*
X161552500Y-115852261D01*
X161492023Y-115882500D01*
X161461785Y-115912738D01*
X161401309Y-116003452D01*
X161371071Y-116124404D01*
X161371071Y-116366309D01*
X161401309Y-116426785D01*
X161431547Y-116457023D01*
X161492023Y-116487261D01*
X161612976Y-116487261D01*
X161673452Y-116457023D01*
X161703690Y-116426785D01*
X161733928Y-116366309D01*
X161733928Y-116215119D01*
X161703690Y-116154642D01*
X161673452Y-116124404D01*
X161612976Y-116094166D01*
X161492023Y-116094166D01*
X161431547Y-116124404D01*
X161401309Y-116154642D01*
X161371071Y-116215119D01*
%TO.C,C5*%
X166994166Y-101926785D02*
X166963928Y-101957023D01*
X166873214Y-101987261D01*
X166812738Y-101987261D01*
X166722023Y-101957023D01*
X166661547Y-101896547D01*
X166631309Y-101836071D01*
X166601071Y-101715119D01*
X166601071Y-101624404D01*
X166631309Y-101503452D01*
X166661547Y-101442976D01*
X166722023Y-101382500D01*
X166812738Y-101352261D01*
X166873214Y-101352261D01*
X166963928Y-101382500D01*
X166994166Y-101412738D01*
X167568690Y-101352261D02*
X167266309Y-101352261D01*
X167236071Y-101654642D01*
X167266309Y-101624404D01*
X167326785Y-101594166D01*
X167477976Y-101594166D01*
X167538452Y-101624404D01*
X167568690Y-101654642D01*
X167598928Y-101715119D01*
X167598928Y-101866309D01*
X167568690Y-101926785D01*
X167538452Y-101957023D01*
X167477976Y-101987261D01*
X167326785Y-101987261D01*
X167266309Y-101957023D01*
X167236071Y-101926785D01*
%TO.C,U3*%
X162516182Y-113602249D02*
X162516182Y-114116297D01*
X162546420Y-114176773D01*
X162576658Y-114207011D01*
X162637134Y-114237249D01*
X162758087Y-114237249D01*
X162818563Y-114207011D01*
X162848801Y-114176773D01*
X162879039Y-114116297D01*
X162879039Y-113602249D01*
X163120944Y-113602249D02*
X163514039Y-113602249D01*
X163302372Y-113844154D01*
X163393087Y-113844154D01*
X163453563Y-113874392D01*
X163483801Y-113904630D01*
X163514039Y-113965107D01*
X163514039Y-114116297D01*
X163483801Y-114176773D01*
X163453563Y-114207011D01*
X163393087Y-114237249D01*
X163211658Y-114237249D01*
X163151182Y-114207011D01*
X163120944Y-114176773D01*
%TO.C,R15*%
X160091794Y-101017260D02*
X159880128Y-100714879D01*
X159728937Y-101017260D02*
X159728937Y-100382260D01*
X159970842Y-100382260D01*
X160031318Y-100412499D01*
X160061556Y-100442737D01*
X160091794Y-100503213D01*
X160091794Y-100593927D01*
X160061556Y-100654403D01*
X160031318Y-100684641D01*
X159970842Y-100714879D01*
X159728937Y-100714879D01*
X160696556Y-101017260D02*
X160333699Y-101017260D01*
X160515128Y-101017260D02*
X160515128Y-100382260D01*
X160454651Y-100472975D01*
X160394175Y-100533451D01*
X160333699Y-100563689D01*
X161271080Y-100382260D02*
X160968699Y-100382260D01*
X160938461Y-100684641D01*
X160968699Y-100654403D01*
X161029175Y-100624165D01*
X161180366Y-100624165D01*
X161240842Y-100654403D01*
X161271080Y-100684641D01*
X161301318Y-100745118D01*
X161301318Y-100896308D01*
X161271080Y-100956784D01*
X161240842Y-100987022D01*
X161180366Y-101017260D01*
X161029175Y-101017260D01*
X160968699Y-100987022D01*
X160938461Y-100956784D01*
%TO.C,U4*%
X147652270Y-112883808D02*
X148166318Y-112883808D01*
X148226794Y-112853570D01*
X148257032Y-112823332D01*
X148287270Y-112762856D01*
X148287270Y-112641903D01*
X148257032Y-112581427D01*
X148226794Y-112551189D01*
X148166318Y-112520951D01*
X147652270Y-112520951D01*
X147863937Y-111946427D02*
X148287270Y-111946427D01*
X147622032Y-112097618D02*
X148075604Y-112248808D01*
X148075604Y-111855713D01*
%TO.C,R18*%
X167741785Y-114337261D02*
X167530119Y-114034880D01*
X167378928Y-114337261D02*
X167378928Y-113702261D01*
X167620833Y-113702261D01*
X167681309Y-113732500D01*
X167711547Y-113762738D01*
X167741785Y-113823214D01*
X167741785Y-113913928D01*
X167711547Y-113974404D01*
X167681309Y-114004642D01*
X167620833Y-114034880D01*
X167378928Y-114034880D01*
X168346547Y-114337261D02*
X167983690Y-114337261D01*
X168165119Y-114337261D02*
X168165119Y-113702261D01*
X168104642Y-113792976D01*
X168044166Y-113853452D01*
X167983690Y-113883690D01*
X168709404Y-113974404D02*
X168648928Y-113944166D01*
X168618690Y-113913928D01*
X168588452Y-113853452D01*
X168588452Y-113823214D01*
X168618690Y-113762738D01*
X168648928Y-113732500D01*
X168709404Y-113702261D01*
X168830357Y-113702261D01*
X168890833Y-113732500D01*
X168921071Y-113762738D01*
X168951309Y-113823214D01*
X168951309Y-113853452D01*
X168921071Y-113913928D01*
X168890833Y-113944166D01*
X168830357Y-113974404D01*
X168709404Y-113974404D01*
X168648928Y-114004642D01*
X168618690Y-114034880D01*
X168588452Y-114095357D01*
X168588452Y-114216309D01*
X168618690Y-114276785D01*
X168648928Y-114307023D01*
X168709404Y-114337261D01*
X168830357Y-114337261D01*
X168890833Y-114307023D01*
X168921071Y-114276785D01*
X168951309Y-114216309D01*
X168951309Y-114095357D01*
X168921071Y-114034880D01*
X168890833Y-114004642D01*
X168830357Y-113974404D01*
%TO.C,R16*%
X157187261Y-104008214D02*
X156884880Y-104219880D01*
X157187261Y-104371071D02*
X156552261Y-104371071D01*
X156552261Y-104129166D01*
X156582500Y-104068690D01*
X156612738Y-104038452D01*
X156673214Y-104008214D01*
X156763928Y-104008214D01*
X156824404Y-104038452D01*
X156854642Y-104068690D01*
X156884880Y-104129166D01*
X156884880Y-104371071D01*
X157187261Y-103403452D02*
X157187261Y-103766309D01*
X157187261Y-103584880D02*
X156552261Y-103584880D01*
X156642976Y-103645357D01*
X156703452Y-103705833D01*
X156733690Y-103766309D01*
X156552261Y-102859166D02*
X156552261Y-102980119D01*
X156582500Y-103040595D01*
X156612738Y-103070833D01*
X156703452Y-103131309D01*
X156824404Y-103161547D01*
X157066309Y-103161547D01*
X157126785Y-103131309D01*
X157157023Y-103101071D01*
X157187261Y-103040595D01*
X157187261Y-102919642D01*
X157157023Y-102859166D01*
X157126785Y-102828928D01*
X157066309Y-102798690D01*
X156915119Y-102798690D01*
X156854642Y-102828928D01*
X156824404Y-102859166D01*
X156794166Y-102919642D01*
X156794166Y-103040595D01*
X156824404Y-103101071D01*
X156854642Y-103131309D01*
X156915119Y-103161547D01*
%TO.C,TP1*%
X190352261Y-114901309D02*
X190352261Y-114538452D01*
X190987261Y-114719880D02*
X190352261Y-114719880D01*
X190987261Y-114326785D02*
X190352261Y-114326785D01*
X190352261Y-114084880D01*
X190382500Y-114024404D01*
X190412738Y-113994166D01*
X190473214Y-113963928D01*
X190563928Y-113963928D01*
X190624404Y-113994166D01*
X190654642Y-114024404D01*
X190684880Y-114084880D01*
X190684880Y-114326785D01*
X190987261Y-113359166D02*
X190987261Y-113722023D01*
X190987261Y-113540595D02*
X190352261Y-113540595D01*
X190442976Y-113601071D01*
X190503452Y-113661547D01*
X190533690Y-113722023D01*
%TO.C,R2*%
X153687259Y-113005836D02*
X153384878Y-113217503D01*
X153687259Y-113368693D02*
X153052259Y-113368693D01*
X153052259Y-113126788D01*
X153082498Y-113066312D01*
X153112736Y-113036074D01*
X153173212Y-113005836D01*
X153263926Y-113005836D01*
X153324402Y-113036074D01*
X153354640Y-113066312D01*
X153384878Y-113126788D01*
X153384878Y-113368693D01*
X153112736Y-112763931D02*
X153082498Y-112733693D01*
X153052259Y-112673217D01*
X153052259Y-112522026D01*
X153082498Y-112461550D01*
X153112736Y-112431312D01*
X153173212Y-112401074D01*
X153233688Y-112401074D01*
X153324402Y-112431312D01*
X153687259Y-112794169D01*
X153687259Y-112401074D01*
D11*
%TO.C,J1*%
X173066666Y-115816666D02*
X173066666Y-116316666D01*
X173033333Y-116416666D01*
X172966666Y-116483333D01*
X172866666Y-116516666D01*
X172800000Y-116516666D01*
X173766666Y-116516666D02*
X173366666Y-116516666D01*
X173566666Y-116516666D02*
X173566666Y-115816666D01*
X173500000Y-115916666D01*
X173433333Y-115983333D01*
X173366666Y-116016666D01*
D10*
%TO.C,R4*%
X174987261Y-105905833D02*
X174684880Y-106117500D01*
X174987261Y-106268690D02*
X174352261Y-106268690D01*
X174352261Y-106026785D01*
X174382500Y-105966309D01*
X174412738Y-105936071D01*
X174473214Y-105905833D01*
X174563928Y-105905833D01*
X174624404Y-105936071D01*
X174654642Y-105966309D01*
X174684880Y-106026785D01*
X174684880Y-106268690D01*
X174563928Y-105361547D02*
X174987261Y-105361547D01*
X174322023Y-105512738D02*
X174775595Y-105663928D01*
X174775595Y-105270833D01*
%TO.C,R1*%
X178487261Y-108105833D02*
X178184880Y-108317500D01*
X178487261Y-108468690D02*
X177852261Y-108468690D01*
X177852261Y-108226785D01*
X177882500Y-108166309D01*
X177912738Y-108136071D01*
X177973214Y-108105833D01*
X178063928Y-108105833D01*
X178124404Y-108136071D01*
X178154642Y-108166309D01*
X178184880Y-108226785D01*
X178184880Y-108468690D01*
X178487261Y-107501071D02*
X178487261Y-107863928D01*
X178487261Y-107682500D02*
X177852261Y-107682500D01*
X177942976Y-107742976D01*
X178003452Y-107803452D01*
X178033690Y-107863928D01*
%TO.C,R14*%
X176187261Y-105908214D02*
X175884880Y-106119880D01*
X176187261Y-106271071D02*
X175552261Y-106271071D01*
X175552261Y-106029166D01*
X175582500Y-105968690D01*
X175612738Y-105938452D01*
X175673214Y-105908214D01*
X175763928Y-105908214D01*
X175824404Y-105938452D01*
X175854642Y-105968690D01*
X175884880Y-106029166D01*
X175884880Y-106271071D01*
X176187261Y-105303452D02*
X176187261Y-105666309D01*
X176187261Y-105484880D02*
X175552261Y-105484880D01*
X175642976Y-105545357D01*
X175703452Y-105605833D01*
X175733690Y-105666309D01*
X175763928Y-104759166D02*
X176187261Y-104759166D01*
X175522023Y-104910357D02*
X175975595Y-105061547D01*
X175975595Y-104668452D01*
%TO.C,R17*%
X162791789Y-101017260D02*
X162580123Y-100714879D01*
X162428932Y-101017260D02*
X162428932Y-100382260D01*
X162670837Y-100382260D01*
X162731313Y-100412499D01*
X162761551Y-100442737D01*
X162791789Y-100503213D01*
X162791789Y-100593927D01*
X162761551Y-100654403D01*
X162731313Y-100684641D01*
X162670837Y-100714879D01*
X162428932Y-100714879D01*
X163396551Y-101017260D02*
X163033694Y-101017260D01*
X163215123Y-101017260D02*
X163215123Y-100382260D01*
X163154646Y-100472975D01*
X163094170Y-100533451D01*
X163033694Y-100563689D01*
X163608218Y-100382260D02*
X164031551Y-100382260D01*
X163759408Y-101017260D01*
%TO.C,C7*%
X149994171Y-108396795D02*
X149963933Y-108427033D01*
X149873219Y-108457271D01*
X149812743Y-108457271D01*
X149722028Y-108427033D01*
X149661552Y-108366557D01*
X149631314Y-108306081D01*
X149601076Y-108185129D01*
X149601076Y-108094414D01*
X149631314Y-107973462D01*
X149661552Y-107912986D01*
X149722028Y-107852510D01*
X149812743Y-107822271D01*
X149873219Y-107822271D01*
X149963933Y-107852510D01*
X149994171Y-107882748D01*
X150205838Y-107822271D02*
X150629171Y-107822271D01*
X150357028Y-108457271D01*
%TO.C,R3*%
X177057273Y-118105833D02*
X176754892Y-118317500D01*
X177057273Y-118468690D02*
X176422273Y-118468690D01*
X176422273Y-118226785D01*
X176452512Y-118166309D01*
X176482750Y-118136071D01*
X176543226Y-118105833D01*
X176633940Y-118105833D01*
X176694416Y-118136071D01*
X176724654Y-118166309D01*
X176754892Y-118226785D01*
X176754892Y-118468690D01*
X176422273Y-117894166D02*
X176422273Y-117501071D01*
X176664178Y-117712738D01*
X176664178Y-117622023D01*
X176694416Y-117561547D01*
X176724654Y-117531309D01*
X176785131Y-117501071D01*
X176936321Y-117501071D01*
X176996797Y-117531309D01*
X177027035Y-117561547D01*
X177057273Y-117622023D01*
X177057273Y-117803452D01*
X177027035Y-117863928D01*
X176996797Y-117894166D01*
%TO.C,R5*%
X187557272Y-114405833D02*
X187254891Y-114617500D01*
X187557272Y-114768690D02*
X186922272Y-114768690D01*
X186922272Y-114526785D01*
X186952511Y-114466309D01*
X186982749Y-114436071D01*
X187043225Y-114405833D01*
X187133939Y-114405833D01*
X187194415Y-114436071D01*
X187224653Y-114466309D01*
X187254891Y-114526785D01*
X187254891Y-114768690D01*
X186922272Y-113831309D02*
X186922272Y-114133690D01*
X187224653Y-114163928D01*
X187194415Y-114133690D01*
X187164177Y-114073214D01*
X187164177Y-113922023D01*
X187194415Y-113861547D01*
X187224653Y-113831309D01*
X187285130Y-113801071D01*
X187436320Y-113801071D01*
X187496796Y-113831309D01*
X187527034Y-113861547D01*
X187557272Y-113922023D01*
X187557272Y-114073214D01*
X187527034Y-114133690D01*
X187496796Y-114163928D01*
D12*
%TO.C,C4*%
X163087836Y-114740000D02*
X162872164Y-114740000D01*
X163087836Y-115460000D02*
X162872164Y-115460000D01*
%TO.C,J2*%
X178720000Y-102700000D02*
X178720000Y-100200000D01*
X189070000Y-105700000D02*
X188370000Y-105700000D01*
X181260000Y-100200000D02*
X181260000Y-102700000D01*
X178530000Y-105700000D02*
X179230000Y-105700000D01*
X188880000Y-100200000D02*
X188880000Y-102700000D01*
X178730000Y-100200000D02*
X188880000Y-100200000D01*
X183730000Y-100200000D02*
X183730000Y-102700000D01*
X186330000Y-100200000D02*
X186330000Y-102700000D01*
X189070000Y-100200000D02*
X189070000Y-105700000D01*
X178530000Y-100200000D02*
X178530000Y-105700000D01*
X178730000Y-102700000D02*
X188880000Y-102700000D01*
G36*
X179030000Y-107000000D02*
G01*
X178230000Y-107000000D01*
X178630000Y-106200000D01*
X179030000Y-107000000D01*
G37*
D13*
X179030000Y-107000000D02*
X178230000Y-107000000D01*
X178630000Y-106200000D01*
X179030000Y-107000000D01*
D12*
%TO.C,U1*%
X160160000Y-121100000D02*
X160160000Y-119200000D01*
X157840000Y-119700000D02*
X157840000Y-121100000D01*
%TO.C,U2*%
X145440000Y-119900000D02*
X145440000Y-121300000D01*
X147760000Y-121300000D02*
X147760000Y-119400000D01*
%TO.C,U5*%
X153100000Y-105200000D02*
X153100000Y-107100000D01*
X154900000Y-106800000D02*
X154900000Y-105200000D01*
%TO.C,C9*%
X161460000Y-120507836D02*
X161460000Y-120292164D01*
X160740000Y-120507836D02*
X160740000Y-120292164D01*
%TO.C,C10*%
X149060000Y-120807836D02*
X149060000Y-120592164D01*
X148340000Y-120807836D02*
X148340000Y-120592164D01*
%TO.C,R10*%
X153953641Y-121780000D02*
X153646359Y-121780000D01*
X153953641Y-121020000D02*
X153646359Y-121020000D01*
%TO.C,R11*%
X141243641Y-121980000D02*
X140936359Y-121980000D01*
X141243641Y-121220000D02*
X140936359Y-121220000D01*
%TO.C,J3*%
X151470000Y-105700000D02*
X150770000Y-105700000D01*
X151470000Y-100200000D02*
X151470000Y-105700000D01*
X151280000Y-100200000D02*
X151280000Y-102700000D01*
X146130000Y-100200000D02*
X146130000Y-102700000D01*
X140930000Y-100200000D02*
X140930000Y-105700000D01*
X143660000Y-100200000D02*
X143660000Y-102700000D01*
X140930000Y-105700000D02*
X141630000Y-105700000D01*
X148730000Y-100200000D02*
X148730000Y-102700000D01*
X141130000Y-100200000D02*
X151280000Y-100200000D01*
X141120000Y-102700000D02*
X141120000Y-100200000D01*
X141130000Y-102700000D02*
X151280000Y-102700000D01*
G36*
X141430000Y-107000000D02*
G01*
X140630000Y-107000000D01*
X141030000Y-106200000D01*
X141430000Y-107000000D01*
G37*
D13*
X141430000Y-107000000D02*
X140630000Y-107000000D01*
X141030000Y-106200000D01*
X141430000Y-107000000D01*
D12*
%TO.C,D1*%
X147250000Y-117550000D02*
X141550000Y-117550000D01*
X147250000Y-117550000D02*
X147250000Y-113250000D01*
X147250000Y-113250000D02*
X141550000Y-113250000D01*
%TO.C,F1*%
X145886252Y-109090000D02*
X143113748Y-109090000D01*
X145886252Y-112510000D02*
X143113748Y-112510000D01*
%TO.C,F2*%
X190386252Y-111410000D02*
X187613748Y-111410000D01*
X190386252Y-107990000D02*
X187613748Y-107990000D01*
%TO.C,Q2*%
X187500000Y-120850000D02*
X187500000Y-119550000D01*
X189300000Y-119300000D02*
X189300000Y-120850000D01*
%TO.C,Q1*%
X186400000Y-119300000D02*
X186400000Y-120850000D01*
X184600000Y-120850000D02*
X184600000Y-119550000D01*
%TO.C,Q6*%
X166300000Y-120750000D02*
X166300000Y-119450000D01*
X168100000Y-119200000D02*
X168100000Y-120750000D01*
%TO.C,J4*%
X182030000Y-129800000D02*
X182030000Y-124300000D01*
X184770000Y-129800000D02*
X184770000Y-127300000D01*
X187370000Y-129800000D02*
X187370000Y-127300000D01*
X192570000Y-124300000D02*
X191870000Y-124300000D01*
X192570000Y-129800000D02*
X192570000Y-124300000D01*
X192370000Y-127300000D02*
X182220000Y-127300000D01*
X192370000Y-129800000D02*
X182220000Y-129800000D01*
X192380000Y-127300000D02*
X192380000Y-129800000D01*
X182030000Y-124300000D02*
X182730000Y-124300000D01*
X182220000Y-129800000D02*
X182220000Y-127300000D01*
X189840000Y-129800000D02*
X189840000Y-127300000D01*
G36*
X192470000Y-123800000D02*
G01*
X192070000Y-123000000D01*
X192870000Y-123000000D01*
X192470000Y-123800000D01*
G37*
D13*
X192470000Y-123800000D02*
X192070000Y-123000000D01*
X192870000Y-123000000D01*
X192470000Y-123800000D01*
D12*
%TO.C,Q5*%
X172300000Y-120750000D02*
X172300000Y-119450000D01*
X174100000Y-119200000D02*
X174100000Y-120750000D01*
%TO.C,J5*%
X166980000Y-129800000D02*
X166980000Y-127300000D01*
X172130000Y-129800000D02*
X172130000Y-127300000D01*
X177330000Y-129800000D02*
X177330000Y-124300000D01*
X177130000Y-129800000D02*
X166980000Y-129800000D01*
X166790000Y-124300000D02*
X167490000Y-124300000D01*
X177130000Y-127300000D02*
X166980000Y-127300000D01*
X174600000Y-129800000D02*
X174600000Y-127300000D01*
X177140000Y-127300000D02*
X177140000Y-129800000D01*
X169530000Y-129800000D02*
X169530000Y-127300000D01*
X166790000Y-129800000D02*
X166790000Y-124300000D01*
X177330000Y-124300000D02*
X176630000Y-124300000D01*
G36*
X177230000Y-123800000D02*
G01*
X176830000Y-123000000D01*
X177630000Y-123000000D01*
X177230000Y-123800000D01*
G37*
D13*
X177230000Y-123800000D02*
X176830000Y-123000000D01*
X177630000Y-123000000D01*
X177230000Y-123800000D01*
D12*
%TO.C,Q3*%
X183300000Y-119300000D02*
X183300000Y-120850000D01*
X181500000Y-120850000D02*
X181500000Y-119550000D01*
%TO.C,Q4*%
X169300000Y-120750000D02*
X169300000Y-119450000D01*
X171100000Y-119200000D02*
X171100000Y-120750000D01*
%TO.C,J7*%
X145380000Y-129800000D02*
X137780000Y-129800000D01*
X145580000Y-129800000D02*
X145580000Y-124300000D01*
X142880000Y-129800000D02*
X142880000Y-127300000D01*
X137580000Y-129800000D02*
X137580000Y-124300000D01*
X145380000Y-127300000D02*
X145380000Y-129800000D01*
X140380000Y-129800000D02*
X140380000Y-127300000D01*
X137780000Y-129800000D02*
X137780000Y-127300000D01*
X145580000Y-124300000D02*
X144880000Y-124300000D01*
X137580000Y-124300000D02*
X138280000Y-124300000D01*
X145380000Y-127300000D02*
X137780000Y-127300000D01*
G36*
X145480000Y-123800000D02*
G01*
X145080000Y-123000000D01*
X145880000Y-123000000D01*
X145480000Y-123800000D01*
G37*
D13*
X145480000Y-123800000D02*
X145080000Y-123000000D01*
X145880000Y-123000000D01*
X145480000Y-123800000D01*
D12*
%TO.C,J6*%
X150480000Y-129800000D02*
X150480000Y-127300000D01*
X158080000Y-127300000D02*
X158080000Y-129800000D01*
X155580000Y-129800000D02*
X155580000Y-127300000D01*
X158080000Y-127300000D02*
X150480000Y-127300000D01*
X158280000Y-124300000D02*
X157580000Y-124300000D01*
X150280000Y-129800000D02*
X150280000Y-124300000D01*
X158080000Y-129800000D02*
X150480000Y-129800000D01*
X153080000Y-129800000D02*
X153080000Y-127300000D01*
X150280000Y-124300000D02*
X150980000Y-124300000D01*
X158280000Y-129800000D02*
X158280000Y-124300000D01*
G36*
X158180000Y-123800000D02*
G01*
X157780000Y-123000000D01*
X158580000Y-123000000D01*
X158180000Y-123800000D01*
G37*
D13*
X158180000Y-123800000D02*
X157780000Y-123000000D01*
X158580000Y-123000000D01*
X158180000Y-123800000D01*
D12*
%TO.C,C1*%
X149759420Y-115910000D02*
X150040580Y-115910000D01*
X149759420Y-114890000D02*
X150040580Y-114890000D01*
%TO.C,C3*%
X165359420Y-116110000D02*
X165640580Y-116110000D01*
X165359420Y-115090000D02*
X165640580Y-115090000D01*
D10*
%TO.C,U3*%
X166625000Y-111525000D02*
X166625000Y-111300000D01*
X159375000Y-104275000D02*
X159375000Y-104600000D01*
X159375000Y-104275000D02*
X159700000Y-104275000D01*
X166625000Y-111300000D02*
X168050000Y-111300000D01*
X166625000Y-104275000D02*
X166625000Y-104600000D01*
X159375000Y-111525000D02*
X159700000Y-111525000D01*
X166625000Y-111525000D02*
X166300000Y-111525000D01*
X159375000Y-111525000D02*
X159375000Y-111200000D01*
X166625000Y-104275000D02*
X166300000Y-104275000D01*
D12*
%TO.C,R15*%
X160346359Y-102280000D02*
X160653641Y-102280000D01*
X160346359Y-101520000D02*
X160653641Y-101520000D01*
%TO.C,U4*%
X151160000Y-113100000D02*
X151160000Y-111700000D01*
X148840000Y-111700000D02*
X148840000Y-113600000D01*
%TO.C,R18*%
X166453641Y-114430000D02*
X166146359Y-114430000D01*
X166453641Y-113670000D02*
X166146359Y-113670000D01*
%TO.C,R16*%
X156520000Y-105753641D02*
X156520000Y-105446359D01*
X157280000Y-105753641D02*
X157280000Y-105446359D01*
%TO.C,TP1*%
X190050000Y-114100000D02*
G75*
G03*
X190050000Y-114100000I-950000J0D01*
G01*
%TO.C,R2*%
X151820000Y-113053641D02*
X151820000Y-112746359D01*
X152580000Y-113053641D02*
X152580000Y-112746359D01*
%TO.C,J1*%
X171700000Y-110200000D02*
X174700000Y-110200000D01*
X174700000Y-115600000D02*
X171700000Y-115600000D01*
X181500000Y-110200000D02*
X184500000Y-110200000D01*
X184500000Y-110200000D02*
X184500000Y-115600000D01*
X171700000Y-110200000D02*
X171700000Y-115600000D01*
X184500000Y-115600000D02*
X181500000Y-115600000D01*
G36*
X175100000Y-117600000D02*
G01*
X174300000Y-117600000D01*
X174700000Y-116400000D01*
X175100000Y-117600000D01*
G37*
X175100000Y-117600000D02*
X174300000Y-117600000D01*
X174700000Y-116400000D01*
X175100000Y-117600000D01*
%TO.C,R4*%
X174320000Y-107446359D02*
X174320000Y-107753641D01*
X175080000Y-107446359D02*
X175080000Y-107753641D01*
%TO.C,R1*%
X176620000Y-107446359D02*
X176620000Y-107753641D01*
X177380000Y-107446359D02*
X177380000Y-107753641D01*
%TO.C,R14*%
X176280000Y-107446359D02*
X176280000Y-107753641D01*
X175520000Y-107446359D02*
X175520000Y-107753641D01*
%TO.C,R17*%
X163046359Y-101520000D02*
X163353641Y-101520000D01*
X163046359Y-102280000D02*
X163353641Y-102280000D01*
%TO.C,C7*%
X149959420Y-109090000D02*
X150240580Y-109090000D01*
X149959420Y-110110000D02*
X150240580Y-110110000D01*
%TO.C,R3*%
X175980000Y-117846359D02*
X175980000Y-118153641D01*
X175220000Y-117846359D02*
X175220000Y-118153641D01*
%TO.C,R5*%
X186480000Y-114146359D02*
X186480000Y-114453641D01*
X185720000Y-114146359D02*
X185720000Y-114453641D01*
%TD*%
M02*
