%TF.GenerationSoftware,KiCad,Pcbnew,(6.0.6)*%
%TF.CreationDate,2022-08-13T21:50:17-05:00*%
%TF.ProjectId,usb-led-controller,7573622d-6c65-4642-9d63-6f6e74726f6c,rev?*%
%TF.SameCoordinates,Original*%
%TF.FileFunction,Copper,L3,Inr*%
%TF.FilePolarity,Positive*%
%FSLAX46Y46*%
G04 Gerber Fmt 4.6, Leading zero omitted, Abs format (unit mm)*
G04 Created by KiCad (PCBNEW (6.0.6)) date 2022-08-13 21:50:17*
%MOMM*%
%LPD*%
G01*
G04 APERTURE LIST*
%TA.AperFunction,ComponentPad*%
%ADD10C,0.600000*%
%TD*%
%TA.AperFunction,ViaPad*%
%ADD11C,0.800000*%
%TD*%
G04 APERTURE END LIST*
D10*
%TO.N,GND*%
%TO.C,REF\u002A\u002A*%
X182499995Y-107199994D03*
%TD*%
%TO.N,GND*%
%TO.C,REF\u002A\u002A*%
X145199995Y-119599994D03*
%TD*%
%TO.N,GND*%
%TO.C,REF\u002A\u002A*%
X151699995Y-126799994D03*
%TD*%
%TO.N,+5V*%
%TO.C,REF\u002A\u002A*%
X147828000Y-114600000D03*
%TD*%
%TO.N,+3V3*%
%TO.C,REF\u002A\u002A*%
X164600000Y-117100000D03*
%TD*%
%TO.N,GND*%
%TO.C,REF\u002A\u002A*%
X149999995Y-103199994D03*
%TD*%
%TO.N,GND*%
%TO.C,REF\u002A\u002A*%
X138999995Y-122799994D03*
%TD*%
%TO.N,+5V*%
%TO.C,REF\u002A\u002A*%
X156800000Y-126850000D03*
%TD*%
%TO.N,GND*%
%TO.C,REF\u002A\u002A*%
X152599995Y-121399994D03*
%TD*%
%TO.N,GND*%
%TO.C,REF\u002A\u002A*%
X164999995Y-100899994D03*
%TD*%
%TO.N,GND*%
%TO.C,REF\u002A\u002A*%
X151699995Y-122799994D03*
%TD*%
%TO.N,GND*%
%TO.C,REF\u002A\u002A*%
X161099995Y-119199994D03*
%TD*%
%TO.N,GND*%
%TO.C,REF\u002A\u002A*%
X182499995Y-103199994D03*
%TD*%
%TO.N,GND*%
%TO.C,REF\u002A\u002A*%
X169599995Y-121599994D03*
%TD*%
%TO.N,+5V*%
%TO.C,REF\u002A\u002A*%
X161100000Y-121700000D03*
%TD*%
%TO.N,GND*%
%TO.C,REF\u002A\u002A*%
X151499995Y-115399994D03*
%TD*%
%TO.N,+3V3*%
%TO.C,REF\u002A\u002A*%
X149300000Y-110600000D03*
%TD*%
%TO.N,GND*%
%TO.C,REF\u002A\u002A*%
X176799995Y-116599994D03*
%TD*%
%TO.N,GND*%
%TO.C,REF\u002A\u002A*%
X162399995Y-117099994D03*
%TD*%
%TO.N,+3V3*%
%TO.C,REF\u002A\u002A*%
X163500000Y-117100000D03*
%TD*%
%TO.N,GND*%
%TO.C,REF\u002A\u002A*%
X166599995Y-121599994D03*
%TD*%
%TO.N,GND*%
%TO.C,REF\u002A\u002A*%
X150899995Y-110599994D03*
%TD*%
%TO.N,+5V*%
%TO.C,REF\u002A\u002A*%
X144100000Y-122750000D03*
%TD*%
%TO.N,GND*%
%TO.C,REF\u002A\u002A*%
X150699995Y-116299994D03*
%TD*%
%TO.N,GND*%
%TO.C,REF\u002A\u002A*%
X181799995Y-121699994D03*
%TD*%
%TO.N,GND*%
%TO.C,REF\u002A\u002A*%
X186099995Y-115599994D03*
%TD*%
%TO.N,+3V3*%
%TO.C,REF\u002A\u002A*%
X173900000Y-107100000D03*
%TD*%
%TO.N,GND*%
%TO.C,REF\u002A\u002A*%
X184899995Y-121699994D03*
%TD*%
%TO.N,GND*%
%TO.C,REF\u002A\u002A*%
X187599995Y-103199994D03*
%TD*%
%TO.N,+5V*%
%TO.C,REF\u002A\u002A*%
X147828000Y-116200000D03*
%TD*%
%TO.N,GND*%
%TO.C,REF\u002A\u002A*%
X157699995Y-119499994D03*
%TD*%
%TO.N,+3V3*%
%TO.C,REF\u002A\u002A*%
X156000000Y-117200000D03*
%TD*%
%TO.N,GND*%
%TO.C,REF\u002A\u002A*%
X187599995Y-107199994D03*
%TD*%
%TO.N,GND*%
%TO.C,REF\u002A\u002A*%
X185099995Y-103199994D03*
%TD*%
%TO.N,+5V*%
%TO.C,REF\u002A\u002A*%
X156800000Y-122750000D03*
%TD*%
%TO.N,+12V*%
%TO.C,REF\u002A\u002A*%
X175800000Y-126800000D03*
%TD*%
%TO.N,GND*%
%TO.C,REF\u002A\u002A*%
X149999995Y-107099994D03*
%TD*%
%TO.N,GND*%
%TO.C,REF\u002A\u002A*%
X139899995Y-121599994D03*
%TD*%
%TO.N,+12V*%
%TO.C,REF\u002A\u002A*%
X191100000Y-126800000D03*
%TD*%
%TO.N,GND*%
%TO.C,REF\u002A\u002A*%
X178099995Y-116599994D03*
%TD*%
%TO.N,GND*%
%TO.C,REF\u002A\u002A*%
X153999995Y-107599994D03*
%TD*%
%TO.N,+3V3*%
%TO.C,REF\u002A\u002A*%
X166000000Y-100850000D03*
%TD*%
%TO.N,GND*%
%TO.C,REF\u002A\u002A*%
X166299995Y-116499994D03*
%TD*%
%TO.N,+12V*%
%TO.C,REF\u002A\u002A*%
X175800000Y-122800000D03*
%TD*%
%TO.N,+12V*%
%TO.C,REF\u002A\u002A*%
X191100000Y-111900000D03*
%TD*%
%TO.N,+5V*%
%TO.C,REF\u002A\u002A*%
X144100000Y-126850000D03*
%TD*%
%TO.N,GND*%
%TO.C,REF\u002A\u002A*%
X172599995Y-121599994D03*
%TD*%
%TO.N,GND*%
%TO.C,REF\u002A\u002A*%
X141599995Y-113799994D03*
%TD*%
%TO.N,+12V*%
%TO.C,REF\u002A\u002A*%
X191100000Y-122800000D03*
%TD*%
%TO.N,+5V*%
%TO.C,REF\u002A\u002A*%
X154000000Y-104400000D03*
%TD*%
%TO.N,GND*%
%TO.C,REF\u002A\u002A*%
X141599995Y-116999994D03*
%TD*%
%TO.N,GND*%
%TO.C,REF\u002A\u002A*%
X148700000Y-119500000D03*
%TD*%
%TO.N,+3V3*%
%TO.C,REF\u002A\u002A*%
X175600000Y-119200000D03*
%TD*%
%TO.N,GND*%
%TO.C,REF\u002A\u002A*%
X167199995Y-116499994D03*
%TD*%
%TO.N,GND*%
%TO.C,REF\u002A\u002A*%
X150699995Y-114499994D03*
%TD*%
%TO.N,GND*%
%TO.C,REF\u002A\u002A*%
X180599995Y-116599994D03*
%TD*%
%TO.N,GND*%
%TO.C,REF\u002A\u002A*%
X185099995Y-107199994D03*
%TD*%
%TO.N,+3V3*%
%TO.C,REF\u002A\u002A*%
X149300000Y-108600000D03*
%TD*%
%TO.N,GND*%
%TO.C,REF\u002A\u002A*%
X187799995Y-121699994D03*
%TD*%
%TO.N,GND*%
%TO.C,REF\u002A\u002A*%
X150899995Y-108699994D03*
%TD*%
%TO.N,+5V*%
%TO.C,REF\u002A\u002A*%
X152800000Y-114000000D03*
%TD*%
%TO.N,+5V*%
%TO.C,REF\u002A\u002A*%
X147828000Y-115400000D03*
%TD*%
%TO.N,GND*%
%TO.C,REF\u002A\u002A*%
X138999995Y-126799994D03*
%TD*%
%TO.N,+12V*%
%TO.C,REF\u002A\u002A*%
X191100000Y-107500000D03*
%TD*%
%TO.N,+5V*%
%TO.C,REF\u002A\u002A*%
X148700000Y-121900000D03*
%TD*%
D11*
%TO.N,/NRST*%
X162200000Y-110100000D03*
X177019999Y-108836286D03*
%TO.N,/SWCLK*%
X164700497Y-110600000D03*
X175900000Y-108800000D03*
%TO.N,/SWDIO*%
X174700000Y-108800000D03*
X167250000Y-113100000D03*
%TO.N,/GATE_0_R*%
X185413391Y-117027501D03*
X168500000Y-112200000D03*
%TO.N,/GATE_0_G*%
X168950000Y-109100000D03*
X187450000Y-117300000D03*
%TO.N,/GATE_0_B*%
X182900000Y-116100000D03*
X168850000Y-105950000D03*
%TO.N,/GATE_1_R*%
X168600000Y-116400000D03*
X170200000Y-117499503D03*
%TO.N,/GATE_1_G*%
X170200000Y-116500000D03*
X169100000Y-114300000D03*
%TO.N,/GATE_1_B*%
X166200000Y-117900000D03*
X170700000Y-113150000D03*
%TO.N,/WS2812_0_~{OE}*%
X157400000Y-114400000D03*
X159800000Y-115000000D03*
X161100000Y-108500000D03*
%TO.N,/WS2812_1_~{OE}*%
X160745153Y-107125412D03*
X156500000Y-113500000D03*
%TO.N,/WS2812_0_DATA_UC*%
X156886286Y-112086286D03*
X158800000Y-102000000D03*
%TO.N,/WS2812_1_DATA_UC*%
X156300000Y-108800000D03*
X155200000Y-112200000D03*
%TO.N,/SWO*%
X161900000Y-101900000D03*
X186100000Y-112750000D03*
%TD*%
%TA.AperFunction,Conductor*%
%TO.N,+5V*%
G36*
X155242121Y-100274502D02*
G01*
X155288614Y-100328158D01*
X155300000Y-100380500D01*
X155300000Y-107874000D01*
X155279998Y-107942121D01*
X155226342Y-107988614D01*
X155174000Y-108000000D01*
X154623067Y-108000000D01*
X154554946Y-107979998D01*
X154508453Y-107926342D01*
X154498349Y-107856068D01*
X154506658Y-107825782D01*
X154537063Y-107752377D01*
X154540223Y-107744748D01*
X154551008Y-107662831D01*
X154558202Y-107608182D01*
X154559280Y-107599994D01*
X154540223Y-107455240D01*
X154511620Y-107386187D01*
X154487510Y-107327980D01*
X154487509Y-107327978D01*
X154484350Y-107320352D01*
X154395469Y-107204520D01*
X154388919Y-107199494D01*
X154388916Y-107199491D01*
X154286191Y-107120667D01*
X154286189Y-107120666D01*
X154279638Y-107115639D01*
X154144749Y-107059766D01*
X153999995Y-107040709D01*
X153991807Y-107041787D01*
X153863427Y-107058688D01*
X153863425Y-107058689D01*
X153855241Y-107059766D01*
X153807425Y-107079572D01*
X153727981Y-107112479D01*
X153727979Y-107112480D01*
X153720353Y-107115639D01*
X153604521Y-107204520D01*
X153515640Y-107320352D01*
X153512481Y-107327978D01*
X153512480Y-107327980D01*
X153488370Y-107386187D01*
X153459767Y-107455240D01*
X153440710Y-107599994D01*
X153441788Y-107608182D01*
X153448983Y-107662831D01*
X153459767Y-107744748D01*
X153462927Y-107752377D01*
X153493332Y-107825782D01*
X153500921Y-107896372D01*
X153469142Y-107959859D01*
X153408084Y-107996086D01*
X153376923Y-108000000D01*
X148600000Y-108000000D01*
X148600000Y-112400000D01*
X154488145Y-112400000D01*
X154556266Y-112420002D01*
X154602759Y-112473658D01*
X154606470Y-112482697D01*
X154612553Y-112499319D01*
X154700908Y-112630805D01*
X154706527Y-112635918D01*
X154706528Y-112635919D01*
X154795576Y-112716946D01*
X154818076Y-112737419D01*
X154957293Y-112813008D01*
X155110522Y-112853207D01*
X155175980Y-112854235D01*
X155243777Y-112875304D01*
X155289421Y-112929683D01*
X155300000Y-112980219D01*
X155300000Y-118000000D01*
X161574000Y-118000000D01*
X161642121Y-118020002D01*
X161688614Y-118073658D01*
X161700000Y-118126000D01*
X161700000Y-118706385D01*
X161679998Y-118774506D01*
X161626342Y-118820999D01*
X161556068Y-118831103D01*
X161496090Y-118803711D01*
X161495469Y-118804520D01*
X161491951Y-118801820D01*
X161491949Y-118801819D01*
X161490613Y-118800794D01*
X161490610Y-118800791D01*
X161386191Y-118720667D01*
X161386189Y-118720666D01*
X161379638Y-118715639D01*
X161244749Y-118659766D01*
X161099995Y-118640709D01*
X161091807Y-118641787D01*
X160963427Y-118658688D01*
X160963425Y-118658689D01*
X160955241Y-118659766D01*
X160907425Y-118679572D01*
X160827981Y-118712479D01*
X160827979Y-118712480D01*
X160820353Y-118715639D01*
X160704521Y-118804520D01*
X160615640Y-118920352D01*
X160612481Y-118927978D01*
X160612480Y-118927980D01*
X160579573Y-119007424D01*
X160559767Y-119055240D01*
X160558690Y-119063424D01*
X160558689Y-119063426D01*
X160551153Y-119120667D01*
X160540710Y-119199994D01*
X160559767Y-119344748D01*
X160567504Y-119363426D01*
X160608926Y-119463426D01*
X160615640Y-119479636D01*
X160624983Y-119491812D01*
X160685349Y-119570482D01*
X160704521Y-119595468D01*
X160711071Y-119600494D01*
X160711074Y-119600497D01*
X160813799Y-119679321D01*
X160820352Y-119684349D01*
X160955241Y-119740222D01*
X161099995Y-119759279D01*
X161108183Y-119758201D01*
X161236561Y-119741300D01*
X161244749Y-119740222D01*
X161379638Y-119684349D01*
X161421301Y-119652380D01*
X161495469Y-119595468D01*
X161497238Y-119597773D01*
X161547217Y-119570482D01*
X161618032Y-119575547D01*
X161674868Y-119618094D01*
X161699679Y-119684614D01*
X161700000Y-119693603D01*
X161700000Y-129619500D01*
X161679998Y-129687621D01*
X161626342Y-129734114D01*
X161574000Y-129745500D01*
X130380500Y-129745500D01*
X130312379Y-129725498D01*
X130265886Y-129671842D01*
X130254500Y-129619500D01*
X130254500Y-126799994D01*
X138440710Y-126799994D01*
X138459767Y-126944748D01*
X138515640Y-127079636D01*
X138604521Y-127195468D01*
X138611071Y-127200494D01*
X138611074Y-127200497D01*
X138713799Y-127279321D01*
X138720352Y-127284349D01*
X138855241Y-127340222D01*
X138999995Y-127359279D01*
X139008183Y-127358201D01*
X139136561Y-127341300D01*
X139144749Y-127340222D01*
X139279638Y-127284349D01*
X139286191Y-127279321D01*
X139388916Y-127200497D01*
X139388919Y-127200494D01*
X139395469Y-127195468D01*
X139484350Y-127079636D01*
X139540223Y-126944748D01*
X139559280Y-126799994D01*
X151140710Y-126799994D01*
X151159767Y-126944748D01*
X151215640Y-127079636D01*
X151304521Y-127195468D01*
X151311071Y-127200494D01*
X151311074Y-127200497D01*
X151413799Y-127279321D01*
X151420352Y-127284349D01*
X151555241Y-127340222D01*
X151699995Y-127359279D01*
X151708183Y-127358201D01*
X151836561Y-127341300D01*
X151844749Y-127340222D01*
X151979638Y-127284349D01*
X151986191Y-127279321D01*
X152088916Y-127200497D01*
X152088919Y-127200494D01*
X152095469Y-127195468D01*
X152184350Y-127079636D01*
X152240223Y-126944748D01*
X152259280Y-126799994D01*
X152240223Y-126655240D01*
X152184350Y-126520352D01*
X152095469Y-126404520D01*
X152088919Y-126399494D01*
X152088916Y-126399491D01*
X151986191Y-126320667D01*
X151986189Y-126320666D01*
X151979638Y-126315639D01*
X151844749Y-126259766D01*
X151699995Y-126240709D01*
X151691807Y-126241787D01*
X151563427Y-126258688D01*
X151563425Y-126258689D01*
X151555241Y-126259766D01*
X151507425Y-126279572D01*
X151427981Y-126312479D01*
X151427979Y-126312480D01*
X151420353Y-126315639D01*
X151304521Y-126404520D01*
X151215640Y-126520352D01*
X151159767Y-126655240D01*
X151140710Y-126799994D01*
X139559280Y-126799994D01*
X139540223Y-126655240D01*
X139484350Y-126520352D01*
X139395469Y-126404520D01*
X139388919Y-126399494D01*
X139388916Y-126399491D01*
X139286191Y-126320667D01*
X139286189Y-126320666D01*
X139279638Y-126315639D01*
X139144749Y-126259766D01*
X138999995Y-126240709D01*
X138991807Y-126241787D01*
X138863427Y-126258688D01*
X138863425Y-126258689D01*
X138855241Y-126259766D01*
X138807425Y-126279572D01*
X138727981Y-126312479D01*
X138727979Y-126312480D01*
X138720353Y-126315639D01*
X138604521Y-126404520D01*
X138515640Y-126520352D01*
X138459767Y-126655240D01*
X138440710Y-126799994D01*
X130254500Y-126799994D01*
X130254500Y-122799994D01*
X138440710Y-122799994D01*
X138459767Y-122944748D01*
X138515640Y-123079636D01*
X138604521Y-123195468D01*
X138611071Y-123200494D01*
X138611074Y-123200497D01*
X138713799Y-123279321D01*
X138720352Y-123284349D01*
X138855241Y-123340222D01*
X138999995Y-123359279D01*
X139008183Y-123358201D01*
X139136561Y-123341300D01*
X139144749Y-123340222D01*
X139279638Y-123284349D01*
X139286191Y-123279321D01*
X139388916Y-123200497D01*
X139388919Y-123200494D01*
X139395469Y-123195468D01*
X139484350Y-123079636D01*
X139540223Y-122944748D01*
X139559280Y-122799994D01*
X151140710Y-122799994D01*
X151159767Y-122944748D01*
X151215640Y-123079636D01*
X151304521Y-123195468D01*
X151311071Y-123200494D01*
X151311074Y-123200497D01*
X151413799Y-123279321D01*
X151420352Y-123284349D01*
X151555241Y-123340222D01*
X151699995Y-123359279D01*
X151708183Y-123358201D01*
X151836561Y-123341300D01*
X151844749Y-123340222D01*
X151979638Y-123284349D01*
X151986191Y-123279321D01*
X152088916Y-123200497D01*
X152088919Y-123200494D01*
X152095469Y-123195468D01*
X152184350Y-123079636D01*
X152240223Y-122944748D01*
X152259280Y-122799994D01*
X152240223Y-122655240D01*
X152184350Y-122520352D01*
X152095469Y-122404520D01*
X152088919Y-122399494D01*
X152088916Y-122399491D01*
X151986191Y-122320667D01*
X151986189Y-122320666D01*
X151979638Y-122315639D01*
X151844749Y-122259766D01*
X151699995Y-122240709D01*
X151691807Y-122241787D01*
X151563427Y-122258688D01*
X151563425Y-122258689D01*
X151555241Y-122259766D01*
X151507425Y-122279572D01*
X151427981Y-122312479D01*
X151427979Y-122312480D01*
X151420353Y-122315639D01*
X151304521Y-122404520D01*
X151215640Y-122520352D01*
X151159767Y-122655240D01*
X151140710Y-122799994D01*
X139559280Y-122799994D01*
X139540223Y-122655240D01*
X139484350Y-122520352D01*
X139395469Y-122404520D01*
X139388919Y-122399494D01*
X139388916Y-122399491D01*
X139286191Y-122320667D01*
X139286189Y-122320666D01*
X139279638Y-122315639D01*
X139144749Y-122259766D01*
X138999995Y-122240709D01*
X138991807Y-122241787D01*
X138863427Y-122258688D01*
X138863425Y-122258689D01*
X138855241Y-122259766D01*
X138807425Y-122279572D01*
X138727981Y-122312479D01*
X138727979Y-122312480D01*
X138720353Y-122315639D01*
X138604521Y-122404520D01*
X138515640Y-122520352D01*
X138459767Y-122655240D01*
X138440710Y-122799994D01*
X130254500Y-122799994D01*
X130254500Y-121599994D01*
X139340710Y-121599994D01*
X139359767Y-121744748D01*
X139415640Y-121879636D01*
X139504521Y-121995468D01*
X139511071Y-122000494D01*
X139511074Y-122000497D01*
X139613799Y-122079321D01*
X139620352Y-122084349D01*
X139755241Y-122140222D01*
X139899995Y-122159279D01*
X139908183Y-122158201D01*
X140036561Y-122141300D01*
X140044749Y-122140222D01*
X140179638Y-122084349D01*
X140186191Y-122079321D01*
X140288916Y-122000497D01*
X140288919Y-122000494D01*
X140295469Y-121995468D01*
X140384350Y-121879636D01*
X140440223Y-121744748D01*
X140459280Y-121599994D01*
X140440223Y-121455240D01*
X140417339Y-121399994D01*
X152040710Y-121399994D01*
X152059767Y-121544748D01*
X152115640Y-121679636D01*
X152204521Y-121795468D01*
X152211071Y-121800494D01*
X152211074Y-121800497D01*
X152304269Y-121872008D01*
X152320352Y-121884349D01*
X152455241Y-121940222D01*
X152599995Y-121959279D01*
X152608183Y-121958201D01*
X152736561Y-121941300D01*
X152744749Y-121940222D01*
X152879638Y-121884349D01*
X152895721Y-121872008D01*
X152988916Y-121800497D01*
X152988919Y-121800494D01*
X152995469Y-121795468D01*
X153084350Y-121679636D01*
X153140223Y-121544748D01*
X153159280Y-121399994D01*
X153140223Y-121255240D01*
X153084350Y-121120352D01*
X152995469Y-121004520D01*
X152988919Y-120999494D01*
X152988916Y-120999491D01*
X152886191Y-120920667D01*
X152886189Y-120920666D01*
X152879638Y-120915639D01*
X152744749Y-120859766D01*
X152599995Y-120840709D01*
X152591807Y-120841787D01*
X152463427Y-120858688D01*
X152463425Y-120858689D01*
X152455241Y-120859766D01*
X152407425Y-120879572D01*
X152327981Y-120912479D01*
X152327979Y-120912480D01*
X152320353Y-120915639D01*
X152204521Y-121004520D01*
X152115640Y-121120352D01*
X152059767Y-121255240D01*
X152040710Y-121399994D01*
X140417339Y-121399994D01*
X140384350Y-121320352D01*
X140295469Y-121204520D01*
X140288919Y-121199494D01*
X140288916Y-121199491D01*
X140186191Y-121120667D01*
X140186189Y-121120666D01*
X140179638Y-121115639D01*
X140044749Y-121059766D01*
X139899995Y-121040709D01*
X139891807Y-121041787D01*
X139763427Y-121058688D01*
X139763425Y-121058689D01*
X139755241Y-121059766D01*
X139707425Y-121079572D01*
X139627981Y-121112479D01*
X139627979Y-121112480D01*
X139620353Y-121115639D01*
X139504521Y-121204520D01*
X139415640Y-121320352D01*
X139359767Y-121455240D01*
X139340710Y-121599994D01*
X130254500Y-121599994D01*
X130254500Y-119599994D01*
X144640710Y-119599994D01*
X144659767Y-119744748D01*
X144715640Y-119879636D01*
X144727793Y-119895474D01*
X144795994Y-119984355D01*
X144804521Y-119995468D01*
X144811071Y-120000494D01*
X144811074Y-120000497D01*
X144886283Y-120058207D01*
X144920352Y-120084349D01*
X145055241Y-120140222D01*
X145199995Y-120159279D01*
X145208183Y-120158201D01*
X145336561Y-120141300D01*
X145344749Y-120140222D01*
X145479638Y-120084349D01*
X145513707Y-120058207D01*
X145588916Y-120000497D01*
X145588919Y-120000494D01*
X145595469Y-119995468D01*
X145603997Y-119984355D01*
X145672197Y-119895474D01*
X145684350Y-119879636D01*
X145740223Y-119744748D01*
X145759280Y-119599994D01*
X145746116Y-119500000D01*
X148140715Y-119500000D01*
X148141793Y-119508188D01*
X148158694Y-119636562D01*
X148159772Y-119644754D01*
X148162931Y-119652380D01*
X148206764Y-119758201D01*
X148215645Y-119779642D01*
X148220672Y-119786193D01*
X148299495Y-119888917D01*
X148304526Y-119895474D01*
X148311076Y-119900500D01*
X148311079Y-119900503D01*
X148413804Y-119979327D01*
X148420357Y-119984355D01*
X148555246Y-120040228D01*
X148700000Y-120059285D01*
X148708188Y-120058207D01*
X148836566Y-120041306D01*
X148844754Y-120040228D01*
X148979643Y-119984355D01*
X148986196Y-119979327D01*
X149088921Y-119900503D01*
X149088924Y-119900500D01*
X149095474Y-119895474D01*
X149100506Y-119888917D01*
X149179328Y-119786193D01*
X149184355Y-119779642D01*
X149193237Y-119758201D01*
X149237069Y-119652380D01*
X149240228Y-119644754D01*
X149241307Y-119636562D01*
X149258207Y-119508188D01*
X149259285Y-119500000D01*
X149259284Y-119499994D01*
X157140710Y-119499994D01*
X157141788Y-119508182D01*
X157153583Y-119597773D01*
X157159767Y-119644748D01*
X157162926Y-119652374D01*
X157207208Y-119759279D01*
X157215640Y-119779636D01*
X157260081Y-119837552D01*
X157292373Y-119879636D01*
X157304521Y-119895468D01*
X157311071Y-119900494D01*
X157311074Y-119900497D01*
X157413799Y-119979321D01*
X157420352Y-119984349D01*
X157555241Y-120040222D01*
X157699995Y-120059279D01*
X157708183Y-120058201D01*
X157836561Y-120041300D01*
X157844749Y-120040222D01*
X157979638Y-119984349D01*
X157986191Y-119979321D01*
X158088916Y-119900497D01*
X158088919Y-119900494D01*
X158095469Y-119895468D01*
X158107618Y-119879636D01*
X158139909Y-119837552D01*
X158184350Y-119779636D01*
X158192783Y-119759279D01*
X158237064Y-119652374D01*
X158240223Y-119644748D01*
X158246408Y-119597773D01*
X158258202Y-119508182D01*
X158259280Y-119499994D01*
X158252384Y-119447614D01*
X158241301Y-119363426D01*
X158241300Y-119363424D01*
X158240223Y-119355240D01*
X158184350Y-119220352D01*
X158101576Y-119112479D01*
X158100496Y-119111071D01*
X158100495Y-119111070D01*
X158095469Y-119104520D01*
X158088919Y-119099494D01*
X158088916Y-119099491D01*
X157986191Y-119020667D01*
X157986189Y-119020666D01*
X157979638Y-119015639D01*
X157844749Y-118959766D01*
X157699995Y-118940709D01*
X157691807Y-118941787D01*
X157563427Y-118958688D01*
X157563425Y-118958689D01*
X157555241Y-118959766D01*
X157547598Y-118962932D01*
X157427981Y-119012479D01*
X157427979Y-119012480D01*
X157420353Y-119015639D01*
X157304521Y-119104520D01*
X157215640Y-119220352D01*
X157159767Y-119355240D01*
X157158690Y-119363424D01*
X157158689Y-119363426D01*
X157147606Y-119447614D01*
X157140710Y-119499994D01*
X149259284Y-119499994D01*
X149240228Y-119355246D01*
X149184355Y-119220358D01*
X149139914Y-119162442D01*
X149100501Y-119111077D01*
X149100500Y-119111076D01*
X149095474Y-119104526D01*
X149088924Y-119099500D01*
X149088921Y-119099497D01*
X148986196Y-119020673D01*
X148986194Y-119020672D01*
X148979643Y-119015645D01*
X148844754Y-118959772D01*
X148700000Y-118940715D01*
X148691812Y-118941793D01*
X148563432Y-118958694D01*
X148563430Y-118958695D01*
X148555246Y-118959772D01*
X148507430Y-118979578D01*
X148427986Y-119012485D01*
X148427984Y-119012486D01*
X148420358Y-119015645D01*
X148304526Y-119104526D01*
X148215645Y-119220358D01*
X148159772Y-119355246D01*
X148140715Y-119500000D01*
X145746116Y-119500000D01*
X145740223Y-119455240D01*
X145720417Y-119407424D01*
X145687510Y-119327980D01*
X145687509Y-119327978D01*
X145684350Y-119320352D01*
X145613475Y-119227986D01*
X145600496Y-119211071D01*
X145600495Y-119211070D01*
X145595469Y-119204520D01*
X145588919Y-119199494D01*
X145588916Y-119199491D01*
X145486191Y-119120667D01*
X145486189Y-119120666D01*
X145479638Y-119115639D01*
X145344749Y-119059766D01*
X145199995Y-119040709D01*
X145191807Y-119041787D01*
X145063427Y-119058688D01*
X145063425Y-119058689D01*
X145055241Y-119059766D01*
X145046405Y-119063426D01*
X144927981Y-119112479D01*
X144927979Y-119112480D01*
X144920353Y-119115639D01*
X144804521Y-119204520D01*
X144799498Y-119211066D01*
X144786515Y-119227986D01*
X144715640Y-119320352D01*
X144712481Y-119327978D01*
X144712480Y-119327980D01*
X144679573Y-119407424D01*
X144659767Y-119455240D01*
X144640710Y-119599994D01*
X130254500Y-119599994D01*
X130254500Y-116999994D01*
X141040710Y-116999994D01*
X141059767Y-117144748D01*
X141115640Y-117279636D01*
X141120667Y-117286187D01*
X141192373Y-117379636D01*
X141204521Y-117395468D01*
X141211071Y-117400494D01*
X141211074Y-117400497D01*
X141313799Y-117479321D01*
X141320352Y-117484349D01*
X141455241Y-117540222D01*
X141599995Y-117559279D01*
X141608183Y-117558201D01*
X141736561Y-117541300D01*
X141744749Y-117540222D01*
X141879638Y-117484349D01*
X141886191Y-117479321D01*
X141988916Y-117400497D01*
X141988919Y-117400494D01*
X141995469Y-117395468D01*
X142007618Y-117379636D01*
X142079323Y-117286187D01*
X142084350Y-117279636D01*
X142140223Y-117144748D01*
X142159280Y-116999994D01*
X142140223Y-116855240D01*
X142084350Y-116720352D01*
X141995469Y-116604520D01*
X141988919Y-116599494D01*
X141988916Y-116599491D01*
X141886191Y-116520667D01*
X141886189Y-116520666D01*
X141879638Y-116515639D01*
X141744749Y-116459766D01*
X141599995Y-116440709D01*
X141591807Y-116441787D01*
X141463427Y-116458688D01*
X141463425Y-116458689D01*
X141455241Y-116459766D01*
X141407425Y-116479572D01*
X141327981Y-116512479D01*
X141327979Y-116512480D01*
X141320353Y-116515639D01*
X141204521Y-116604520D01*
X141115640Y-116720352D01*
X141059767Y-116855240D01*
X141040710Y-116999994D01*
X130254500Y-116999994D01*
X130254500Y-116299994D01*
X150140710Y-116299994D01*
X150159767Y-116444748D01*
X150162926Y-116452374D01*
X150191214Y-116520666D01*
X150215640Y-116579636D01*
X150220667Y-116586187D01*
X150277131Y-116659772D01*
X150304521Y-116695468D01*
X150311071Y-116700494D01*
X150311074Y-116700497D01*
X150413799Y-116779321D01*
X150420352Y-116784349D01*
X150555241Y-116840222D01*
X150699995Y-116859279D01*
X150708183Y-116858201D01*
X150730675Y-116855240D01*
X150844749Y-116840222D01*
X150979638Y-116784349D01*
X150986191Y-116779321D01*
X151088916Y-116700497D01*
X151088919Y-116700494D01*
X151095469Y-116695468D01*
X151122860Y-116659772D01*
X151179323Y-116586187D01*
X151184350Y-116579636D01*
X151208777Y-116520666D01*
X151237064Y-116452374D01*
X151240223Y-116444748D01*
X151259280Y-116299994D01*
X151240223Y-116155240D01*
X151222905Y-116113430D01*
X151215316Y-116042841D01*
X151247095Y-115979354D01*
X151308153Y-115943126D01*
X151355758Y-115940290D01*
X151499995Y-115959279D01*
X151508183Y-115958201D01*
X151636561Y-115941300D01*
X151644749Y-115940222D01*
X151779638Y-115884349D01*
X151786191Y-115879321D01*
X151888916Y-115800497D01*
X151888919Y-115800494D01*
X151895469Y-115795468D01*
X151919648Y-115763958D01*
X151979323Y-115686187D01*
X151984350Y-115679636D01*
X151993666Y-115657147D01*
X152037064Y-115552374D01*
X152040223Y-115544748D01*
X152050251Y-115468581D01*
X152058202Y-115408182D01*
X152059280Y-115399994D01*
X152040223Y-115255240D01*
X151984350Y-115120352D01*
X151895469Y-115004520D01*
X151888919Y-114999494D01*
X151888916Y-114999491D01*
X151786191Y-114920667D01*
X151786189Y-114920666D01*
X151779638Y-114915639D01*
X151644749Y-114859766D01*
X151499995Y-114840709D01*
X151355759Y-114859698D01*
X151285612Y-114848759D01*
X151232513Y-114801631D01*
X151213323Y-114733277D01*
X151222905Y-114686558D01*
X151237063Y-114652377D01*
X151237064Y-114652374D01*
X151240223Y-114644748D01*
X151250754Y-114564760D01*
X151258202Y-114508182D01*
X151259280Y-114499994D01*
X151253317Y-114454700D01*
X151241301Y-114363426D01*
X151241300Y-114363424D01*
X151240223Y-114355240D01*
X151184350Y-114220352D01*
X151095469Y-114104520D01*
X151088919Y-114099494D01*
X151088916Y-114099491D01*
X150986191Y-114020667D01*
X150986189Y-114020666D01*
X150979638Y-114015639D01*
X150857791Y-113965168D01*
X150852378Y-113962926D01*
X150844749Y-113959766D01*
X150699995Y-113940709D01*
X150691807Y-113941787D01*
X150563427Y-113958688D01*
X150563425Y-113958689D01*
X150555241Y-113959766D01*
X150545039Y-113963992D01*
X150427981Y-114012479D01*
X150427979Y-114012480D01*
X150420353Y-114015639D01*
X150304521Y-114104520D01*
X150215640Y-114220352D01*
X150159767Y-114355240D01*
X150158690Y-114363424D01*
X150158689Y-114363426D01*
X150146673Y-114454700D01*
X150140710Y-114499994D01*
X150141788Y-114508182D01*
X150149237Y-114564760D01*
X150159767Y-114644748D01*
X150162926Y-114652374D01*
X150189954Y-114717624D01*
X150215640Y-114779636D01*
X150304521Y-114895468D01*
X150311071Y-114900494D01*
X150311074Y-114900497D01*
X150374481Y-114949151D01*
X150420352Y-114984349D01*
X150555241Y-115040222D01*
X150699995Y-115059279D01*
X150844231Y-115040290D01*
X150914378Y-115051229D01*
X150967477Y-115098357D01*
X150986667Y-115166711D01*
X150977085Y-115213430D01*
X150962927Y-115247611D01*
X150959767Y-115255240D01*
X150940710Y-115399994D01*
X150941788Y-115408182D01*
X150949740Y-115468581D01*
X150959767Y-115544748D01*
X150962926Y-115552374D01*
X150962927Y-115552377D01*
X150977085Y-115586558D01*
X150984674Y-115657147D01*
X150952895Y-115720634D01*
X150891837Y-115756862D01*
X150844232Y-115759698D01*
X150699995Y-115740709D01*
X150691807Y-115741787D01*
X150563427Y-115758688D01*
X150563425Y-115758689D01*
X150555241Y-115759766D01*
X150507425Y-115779572D01*
X150427981Y-115812479D01*
X150427979Y-115812480D01*
X150420353Y-115815639D01*
X150304521Y-115904520D01*
X150215640Y-116020352D01*
X150212481Y-116027978D01*
X150212480Y-116027980D01*
X150179573Y-116107424D01*
X150159767Y-116155240D01*
X150140710Y-116299994D01*
X130254500Y-116299994D01*
X130254500Y-113969600D01*
X132204808Y-113969600D01*
X132205052Y-113974035D01*
X132205052Y-113974039D01*
X132208154Y-114030400D01*
X132219830Y-114242574D01*
X132273166Y-114510708D01*
X132363749Y-114768652D01*
X132365802Y-114772605D01*
X132365805Y-114772611D01*
X132426222Y-114888917D01*
X132489774Y-115011260D01*
X132492357Y-115014875D01*
X132492361Y-115014881D01*
X132563051Y-115113801D01*
X132648725Y-115233690D01*
X132837431Y-115431505D01*
X132840926Y-115434261D01*
X132840928Y-115434262D01*
X132891800Y-115474366D01*
X133052126Y-115600757D01*
X133146709Y-115655695D01*
X133284681Y-115735836D01*
X133284687Y-115735839D01*
X133288528Y-115738070D01*
X133292651Y-115739740D01*
X133537793Y-115839033D01*
X133537796Y-115839034D01*
X133541919Y-115840704D01*
X133546232Y-115841775D01*
X133546237Y-115841777D01*
X133717622Y-115884349D01*
X133807243Y-115906611D01*
X134040401Y-115930500D01*
X134209642Y-115930500D01*
X134412705Y-115916122D01*
X134417060Y-115915184D01*
X134417063Y-115915184D01*
X134675621Y-115859518D01*
X134675623Y-115859518D01*
X134679968Y-115858582D01*
X134936458Y-115763958D01*
X135177056Y-115634138D01*
X135396962Y-115471713D01*
X135437807Y-115431505D01*
X135588607Y-115283054D01*
X135591788Y-115279923D01*
X135594489Y-115276384D01*
X135594495Y-115276377D01*
X135754945Y-115066137D01*
X135754948Y-115066133D01*
X135757647Y-115062596D01*
X135854912Y-114888917D01*
X135889052Y-114827956D01*
X135889055Y-114827950D01*
X135891230Y-114824066D01*
X135899910Y-114801631D01*
X135988264Y-114573250D01*
X135988266Y-114573244D01*
X135989871Y-114569095D01*
X135992249Y-114558838D01*
X136025865Y-114413807D01*
X136051603Y-114302768D01*
X136075192Y-114030400D01*
X136074657Y-114020667D01*
X136062963Y-113808182D01*
X136062512Y-113799994D01*
X141040710Y-113799994D01*
X141059767Y-113944748D01*
X141062926Y-113952374D01*
X141095246Y-114030400D01*
X141115640Y-114079636D01*
X141204521Y-114195468D01*
X141211071Y-114200494D01*
X141211074Y-114200497D01*
X141313799Y-114279321D01*
X141320352Y-114284349D01*
X141455241Y-114340222D01*
X141599995Y-114359279D01*
X141608183Y-114358201D01*
X141630675Y-114355240D01*
X141744749Y-114340222D01*
X141879638Y-114284349D01*
X141886191Y-114279321D01*
X141988916Y-114200497D01*
X141988919Y-114200494D01*
X141995469Y-114195468D01*
X142084350Y-114079636D01*
X142104745Y-114030400D01*
X142137064Y-113952374D01*
X142140223Y-113944748D01*
X142159280Y-113799994D01*
X142153102Y-113753064D01*
X142141301Y-113663426D01*
X142141300Y-113663424D01*
X142140223Y-113655240D01*
X142084350Y-113520352D01*
X141995469Y-113404520D01*
X141988919Y-113399494D01*
X141988916Y-113399491D01*
X141886191Y-113320667D01*
X141886189Y-113320666D01*
X141879638Y-113315639D01*
X141744749Y-113259766D01*
X141599995Y-113240709D01*
X141591807Y-113241787D01*
X141463427Y-113258688D01*
X141463425Y-113258689D01*
X141455241Y-113259766D01*
X141407425Y-113279572D01*
X141327981Y-113312479D01*
X141327979Y-113312480D01*
X141320353Y-113315639D01*
X141204521Y-113404520D01*
X141115640Y-113520352D01*
X141059767Y-113655240D01*
X141058690Y-113663424D01*
X141058689Y-113663426D01*
X141046888Y-113753064D01*
X141040710Y-113799994D01*
X136062512Y-113799994D01*
X136060170Y-113757426D01*
X136006834Y-113489292D01*
X135944742Y-113312479D01*
X135917729Y-113235556D01*
X135917728Y-113235553D01*
X135916251Y-113231348D01*
X135914198Y-113227395D01*
X135914195Y-113227389D01*
X135792278Y-112992691D01*
X135790226Y-112988740D01*
X135787643Y-112985125D01*
X135787639Y-112985119D01*
X135687154Y-112844506D01*
X135631275Y-112766310D01*
X135506888Y-112635919D01*
X135445641Y-112571715D01*
X135445639Y-112571713D01*
X135442569Y-112568495D01*
X135396980Y-112532555D01*
X135231370Y-112401999D01*
X135227874Y-112399243D01*
X135121469Y-112337438D01*
X134995319Y-112264164D01*
X134995313Y-112264161D01*
X134991472Y-112261930D01*
X134872662Y-112213807D01*
X134742207Y-112160967D01*
X134742204Y-112160966D01*
X134738081Y-112159296D01*
X134733768Y-112158225D01*
X134733763Y-112158223D01*
X134549830Y-112112534D01*
X134472757Y-112093389D01*
X134239599Y-112069500D01*
X134070358Y-112069500D01*
X133867295Y-112083878D01*
X133862940Y-112084816D01*
X133862937Y-112084816D01*
X133604379Y-112140482D01*
X133604377Y-112140482D01*
X133600032Y-112141418D01*
X133343542Y-112236042D01*
X133102944Y-112365862D01*
X132883038Y-112528287D01*
X132879859Y-112531416D01*
X132879856Y-112531419D01*
X132787363Y-112622471D01*
X132688212Y-112720077D01*
X132685511Y-112723616D01*
X132685505Y-112723623D01*
X132584711Y-112855695D01*
X132522353Y-112937404D01*
X132493604Y-112988740D01*
X132390948Y-113172044D01*
X132390945Y-113172050D01*
X132388770Y-113175934D01*
X132387162Y-113180092D01*
X132387159Y-113180097D01*
X132297804Y-113411066D01*
X132290129Y-113430905D01*
X132228397Y-113697232D01*
X132204808Y-113969600D01*
X130254500Y-113969600D01*
X130254500Y-107099994D01*
X149440710Y-107099994D01*
X149441788Y-107108182D01*
X149455333Y-107211066D01*
X149459767Y-107244748D01*
X149462926Y-107252374D01*
X149491084Y-107320352D01*
X149515640Y-107379636D01*
X149520667Y-107386187D01*
X149564289Y-107443036D01*
X149604521Y-107495468D01*
X149611071Y-107500494D01*
X149611074Y-107500497D01*
X149713799Y-107579321D01*
X149720352Y-107584349D01*
X149855241Y-107640222D01*
X149999995Y-107659279D01*
X150008183Y-107658201D01*
X150136561Y-107641300D01*
X150144749Y-107640222D01*
X150279638Y-107584349D01*
X150286191Y-107579321D01*
X150388916Y-107500497D01*
X150388919Y-107500494D01*
X150395469Y-107495468D01*
X150435702Y-107443036D01*
X150479323Y-107386187D01*
X150484350Y-107379636D01*
X150508907Y-107320352D01*
X150537064Y-107252374D01*
X150540223Y-107244748D01*
X150544658Y-107211066D01*
X150558202Y-107108182D01*
X150559280Y-107099994D01*
X150540223Y-106955240D01*
X150484350Y-106820352D01*
X150395469Y-106704520D01*
X150388919Y-106699494D01*
X150388916Y-106699491D01*
X150286191Y-106620667D01*
X150286189Y-106620666D01*
X150279638Y-106615639D01*
X150144749Y-106559766D01*
X149999995Y-106540709D01*
X149991807Y-106541787D01*
X149863427Y-106558688D01*
X149863425Y-106558689D01*
X149855241Y-106559766D01*
X149807425Y-106579572D01*
X149727981Y-106612479D01*
X149727979Y-106612480D01*
X149720353Y-106615639D01*
X149604521Y-106704520D01*
X149515640Y-106820352D01*
X149459767Y-106955240D01*
X149440710Y-107099994D01*
X130254500Y-107099994D01*
X130254500Y-103199994D01*
X149440710Y-103199994D01*
X149459767Y-103344748D01*
X149515640Y-103479636D01*
X149604521Y-103595468D01*
X149611071Y-103600494D01*
X149611074Y-103600497D01*
X149713799Y-103679321D01*
X149720352Y-103684349D01*
X149855241Y-103740222D01*
X149999995Y-103759279D01*
X150008183Y-103758201D01*
X150136561Y-103741300D01*
X150144749Y-103740222D01*
X150279638Y-103684349D01*
X150286191Y-103679321D01*
X150388916Y-103600497D01*
X150388919Y-103600494D01*
X150395469Y-103595468D01*
X150484350Y-103479636D01*
X150540223Y-103344748D01*
X150559280Y-103199994D01*
X150540223Y-103055240D01*
X150484350Y-102920352D01*
X150395469Y-102804520D01*
X150388919Y-102799494D01*
X150388916Y-102799491D01*
X150286191Y-102720667D01*
X150286189Y-102720666D01*
X150279638Y-102715639D01*
X150144749Y-102659766D01*
X150113827Y-102655695D01*
X150008183Y-102641787D01*
X149999995Y-102640709D01*
X149991807Y-102641787D01*
X149863427Y-102658688D01*
X149863425Y-102658689D01*
X149855241Y-102659766D01*
X149807425Y-102679572D01*
X149727981Y-102712479D01*
X149727979Y-102712480D01*
X149720353Y-102715639D01*
X149604521Y-102804520D01*
X149515640Y-102920352D01*
X149459767Y-103055240D01*
X149440710Y-103199994D01*
X130254500Y-103199994D01*
X130254500Y-100380500D01*
X130274502Y-100312379D01*
X130328158Y-100265886D01*
X130380500Y-100254500D01*
X155174000Y-100254500D01*
X155242121Y-100274502D01*
G37*
%TD.AperFunction*%
%TD*%
%TA.AperFunction,Conductor*%
%TO.N,+12V*%
G36*
X199687621Y-100274502D02*
G01*
X199734114Y-100328158D01*
X199745500Y-100380500D01*
X199745500Y-129619500D01*
X199725498Y-129687621D01*
X199671842Y-129734114D01*
X199619500Y-129745500D01*
X175126000Y-129745500D01*
X175057879Y-129725498D01*
X175011386Y-129671842D01*
X175000000Y-129619500D01*
X175000000Y-122052190D01*
X175020002Y-121984069D01*
X175036905Y-121963095D01*
X175300006Y-121699994D01*
X181240710Y-121699994D01*
X181259767Y-121844748D01*
X181315640Y-121979636D01*
X181404521Y-122095468D01*
X181411071Y-122100494D01*
X181411074Y-122100497D01*
X181513799Y-122179321D01*
X181520352Y-122184349D01*
X181655241Y-122240222D01*
X181799995Y-122259279D01*
X181808183Y-122258201D01*
X181936561Y-122241300D01*
X181944749Y-122240222D01*
X182079638Y-122184349D01*
X182086191Y-122179321D01*
X182188916Y-122100497D01*
X182188919Y-122100494D01*
X182195469Y-122095468D01*
X182284350Y-121979636D01*
X182340223Y-121844748D01*
X182359280Y-121699994D01*
X184340710Y-121699994D01*
X184359767Y-121844748D01*
X184415640Y-121979636D01*
X184504521Y-122095468D01*
X184511071Y-122100494D01*
X184511074Y-122100497D01*
X184613799Y-122179321D01*
X184620352Y-122184349D01*
X184755241Y-122240222D01*
X184899995Y-122259279D01*
X184908183Y-122258201D01*
X185036561Y-122241300D01*
X185044749Y-122240222D01*
X185179638Y-122184349D01*
X185186191Y-122179321D01*
X185288916Y-122100497D01*
X185288919Y-122100494D01*
X185295469Y-122095468D01*
X185384350Y-121979636D01*
X185440223Y-121844748D01*
X185459280Y-121699994D01*
X187240710Y-121699994D01*
X187259767Y-121844748D01*
X187315640Y-121979636D01*
X187404521Y-122095468D01*
X187411071Y-122100494D01*
X187411074Y-122100497D01*
X187513799Y-122179321D01*
X187520352Y-122184349D01*
X187655241Y-122240222D01*
X187799995Y-122259279D01*
X187808183Y-122258201D01*
X187936561Y-122241300D01*
X187944749Y-122240222D01*
X188079638Y-122184349D01*
X188086191Y-122179321D01*
X188188916Y-122100497D01*
X188188919Y-122100494D01*
X188195469Y-122095468D01*
X188284350Y-121979636D01*
X188340223Y-121844748D01*
X188359280Y-121699994D01*
X188340223Y-121555240D01*
X188284350Y-121420352D01*
X188195469Y-121304520D01*
X188188919Y-121299494D01*
X188188916Y-121299491D01*
X188086191Y-121220667D01*
X188086189Y-121220666D01*
X188079638Y-121215639D01*
X187944749Y-121159766D01*
X187799995Y-121140709D01*
X187791807Y-121141787D01*
X187663427Y-121158688D01*
X187663425Y-121158689D01*
X187655241Y-121159766D01*
X187607425Y-121179572D01*
X187527981Y-121212479D01*
X187527979Y-121212480D01*
X187520353Y-121215639D01*
X187404521Y-121304520D01*
X187315640Y-121420352D01*
X187259767Y-121555240D01*
X187240710Y-121699994D01*
X185459280Y-121699994D01*
X185440223Y-121555240D01*
X185384350Y-121420352D01*
X185295469Y-121304520D01*
X185288919Y-121299494D01*
X185288916Y-121299491D01*
X185186191Y-121220667D01*
X185186189Y-121220666D01*
X185179638Y-121215639D01*
X185044749Y-121159766D01*
X184899995Y-121140709D01*
X184891807Y-121141787D01*
X184763427Y-121158688D01*
X184763425Y-121158689D01*
X184755241Y-121159766D01*
X184707425Y-121179572D01*
X184627981Y-121212479D01*
X184627979Y-121212480D01*
X184620353Y-121215639D01*
X184504521Y-121304520D01*
X184415640Y-121420352D01*
X184359767Y-121555240D01*
X184340710Y-121699994D01*
X182359280Y-121699994D01*
X182340223Y-121555240D01*
X182284350Y-121420352D01*
X182195469Y-121304520D01*
X182188919Y-121299494D01*
X182188916Y-121299491D01*
X182086191Y-121220667D01*
X182086189Y-121220666D01*
X182079638Y-121215639D01*
X181944749Y-121159766D01*
X181799995Y-121140709D01*
X181791807Y-121141787D01*
X181663427Y-121158688D01*
X181663425Y-121158689D01*
X181655241Y-121159766D01*
X181607425Y-121179572D01*
X181527981Y-121212479D01*
X181527979Y-121212480D01*
X181520353Y-121215639D01*
X181404521Y-121304520D01*
X181315640Y-121420352D01*
X181259767Y-121555240D01*
X181240710Y-121699994D01*
X175300006Y-121699994D01*
X179000000Y-118000000D01*
X179000000Y-116599994D01*
X180040710Y-116599994D01*
X180041788Y-116608182D01*
X180057714Y-116729150D01*
X180059767Y-116744748D01*
X180065509Y-116758611D01*
X180112093Y-116871072D01*
X180115640Y-116879636D01*
X180120667Y-116886187D01*
X180199012Y-116988288D01*
X180204521Y-116995468D01*
X180211071Y-117000494D01*
X180211074Y-117000497D01*
X180313799Y-117079321D01*
X180320352Y-117084349D01*
X180428045Y-117128957D01*
X180445138Y-117136037D01*
X180455241Y-117140222D01*
X180599995Y-117159279D01*
X180608183Y-117158201D01*
X180736561Y-117141300D01*
X180744749Y-117140222D01*
X180754853Y-117136037D01*
X180771945Y-117128957D01*
X180879638Y-117084349D01*
X180886191Y-117079321D01*
X180962721Y-117020597D01*
X184754120Y-117020597D01*
X184771504Y-117178054D01*
X184774114Y-117185185D01*
X184774114Y-117185187D01*
X184816366Y-117300646D01*
X184825944Y-117326820D01*
X184914299Y-117458306D01*
X184919918Y-117463419D01*
X184919919Y-117463420D01*
X184927855Y-117470641D01*
X185031467Y-117564920D01*
X185170684Y-117640509D01*
X185323913Y-117680708D01*
X185407868Y-117682027D01*
X185474710Y-117683077D01*
X185474713Y-117683077D01*
X185482307Y-117683196D01*
X185636723Y-117647830D01*
X185720643Y-117605623D01*
X185771463Y-117580064D01*
X185771466Y-117580062D01*
X185778246Y-117576652D01*
X185784017Y-117571723D01*
X185784020Y-117571721D01*
X185892927Y-117478705D01*
X185892927Y-117478704D01*
X185898705Y-117473770D01*
X185991146Y-117345125D01*
X186012062Y-117293096D01*
X186790729Y-117293096D01*
X186808113Y-117450553D01*
X186810723Y-117457684D01*
X186810723Y-117457686D01*
X186855507Y-117580064D01*
X186862553Y-117599319D01*
X186866789Y-117605622D01*
X186866789Y-117605623D01*
X186915949Y-117678780D01*
X186950908Y-117730805D01*
X186956527Y-117735918D01*
X186956528Y-117735919D01*
X186967903Y-117746269D01*
X187068076Y-117837419D01*
X187207293Y-117913008D01*
X187360522Y-117953207D01*
X187444477Y-117954526D01*
X187511319Y-117955576D01*
X187511322Y-117955576D01*
X187518916Y-117955695D01*
X187673332Y-117920329D01*
X187743742Y-117884917D01*
X187808072Y-117852563D01*
X187808075Y-117852561D01*
X187814855Y-117849151D01*
X187820626Y-117844222D01*
X187820629Y-117844220D01*
X187929536Y-117751204D01*
X187929536Y-117751203D01*
X187935314Y-117746269D01*
X188027755Y-117617624D01*
X188086842Y-117470641D01*
X188107310Y-117326820D01*
X188108581Y-117317891D01*
X188108581Y-117317888D01*
X188109162Y-117313807D01*
X188109307Y-117300000D01*
X188090276Y-117142733D01*
X188034280Y-116994546D01*
X187954025Y-116877774D01*
X187948855Y-116870251D01*
X187948854Y-116870249D01*
X187944553Y-116863992D01*
X187826275Y-116758611D01*
X187818889Y-116754700D01*
X187692988Y-116688039D01*
X187692989Y-116688039D01*
X187686274Y-116684484D01*
X187532633Y-116645892D01*
X187525034Y-116645852D01*
X187525033Y-116645852D01*
X187459181Y-116645507D01*
X187374221Y-116645062D01*
X187366841Y-116646834D01*
X187366839Y-116646834D01*
X187227563Y-116680271D01*
X187227560Y-116680272D01*
X187220184Y-116682043D01*
X187079414Y-116754700D01*
X186960039Y-116858838D01*
X186868950Y-116988444D01*
X186811406Y-117136037D01*
X186810414Y-117143570D01*
X186810414Y-117143571D01*
X186804221Y-117190616D01*
X186790729Y-117293096D01*
X186012062Y-117293096D01*
X186050233Y-117198142D01*
X186072553Y-117041308D01*
X186072698Y-117027501D01*
X186053667Y-116870234D01*
X185997671Y-116722047D01*
X185947571Y-116649151D01*
X185912246Y-116597752D01*
X185912245Y-116597750D01*
X185907944Y-116591493D01*
X185789666Y-116486112D01*
X185782280Y-116482201D01*
X185656379Y-116415540D01*
X185656380Y-116415540D01*
X185649665Y-116411985D01*
X185496024Y-116373393D01*
X185488425Y-116373353D01*
X185488424Y-116373353D01*
X185422572Y-116373008D01*
X185337612Y-116372563D01*
X185330232Y-116374335D01*
X185330230Y-116374335D01*
X185190954Y-116407772D01*
X185190951Y-116407773D01*
X185183575Y-116409544D01*
X185042805Y-116482201D01*
X184923430Y-116586339D01*
X184832341Y-116715945D01*
X184817231Y-116754700D01*
X184778576Y-116853846D01*
X184774797Y-116863538D01*
X184773805Y-116871071D01*
X184773805Y-116871072D01*
X184756615Y-117001649D01*
X184754120Y-117020597D01*
X180962721Y-117020597D01*
X180988916Y-117000497D01*
X180988919Y-117000494D01*
X180995469Y-116995468D01*
X181000979Y-116988288D01*
X181079323Y-116886187D01*
X181084350Y-116879636D01*
X181087898Y-116871072D01*
X181134481Y-116758611D01*
X181140223Y-116744748D01*
X181142277Y-116729150D01*
X181158202Y-116608182D01*
X181159280Y-116599994D01*
X181151394Y-116540095D01*
X181141301Y-116463426D01*
X181141300Y-116463424D01*
X181140223Y-116455240D01*
X181084350Y-116320352D01*
X180995469Y-116204520D01*
X180988919Y-116199494D01*
X180988916Y-116199491D01*
X180886191Y-116120667D01*
X180886189Y-116120666D01*
X180879638Y-116115639D01*
X180825215Y-116093096D01*
X182240729Y-116093096D01*
X182243773Y-116120666D01*
X182252476Y-116199491D01*
X182258113Y-116250553D01*
X182260723Y-116257684D01*
X182260723Y-116257686D01*
X182303066Y-116373393D01*
X182312553Y-116399319D01*
X182316789Y-116405622D01*
X182316789Y-116405623D01*
X182370876Y-116486112D01*
X182400908Y-116530805D01*
X182406527Y-116535918D01*
X182406528Y-116535919D01*
X182474482Y-116597752D01*
X182518076Y-116637419D01*
X182657293Y-116713008D01*
X182810522Y-116753207D01*
X182894477Y-116754526D01*
X182961319Y-116755576D01*
X182961322Y-116755576D01*
X182968916Y-116755695D01*
X183123332Y-116720329D01*
X183202979Y-116680271D01*
X183258072Y-116652563D01*
X183258075Y-116652561D01*
X183264855Y-116649151D01*
X183270626Y-116644222D01*
X183270629Y-116644220D01*
X183379536Y-116551204D01*
X183379536Y-116551203D01*
X183385314Y-116546269D01*
X183477755Y-116417624D01*
X183536842Y-116270641D01*
X183545320Y-116211071D01*
X183558581Y-116117891D01*
X183558581Y-116117888D01*
X183559162Y-116113807D01*
X183559307Y-116100000D01*
X183557796Y-116087509D01*
X183547266Y-116000497D01*
X183540276Y-115942733D01*
X183484280Y-115794546D01*
X183394553Y-115663992D01*
X183322723Y-115599994D01*
X185540710Y-115599994D01*
X185541788Y-115608182D01*
X185558594Y-115735836D01*
X185559767Y-115744748D01*
X185575292Y-115782228D01*
X185607307Y-115859518D01*
X185615640Y-115879636D01*
X185704521Y-115995468D01*
X185711071Y-116000494D01*
X185711074Y-116000497D01*
X185792433Y-116062926D01*
X185820352Y-116084349D01*
X185955241Y-116140222D01*
X186099995Y-116159279D01*
X186108183Y-116158201D01*
X186236561Y-116141300D01*
X186244749Y-116140222D01*
X186379638Y-116084349D01*
X186407557Y-116062926D01*
X186488916Y-116000497D01*
X186488919Y-116000494D01*
X186495469Y-115995468D01*
X186584350Y-115879636D01*
X186592684Y-115859518D01*
X186624698Y-115782228D01*
X186640223Y-115744748D01*
X186641397Y-115735836D01*
X186658202Y-115608182D01*
X186659280Y-115599994D01*
X186644073Y-115484484D01*
X186641301Y-115463426D01*
X186641300Y-115463424D01*
X186640223Y-115455240D01*
X186584350Y-115320352D01*
X186495469Y-115204520D01*
X186488919Y-115199494D01*
X186488916Y-115199491D01*
X186386191Y-115120667D01*
X186386189Y-115120666D01*
X186379638Y-115115639D01*
X186244749Y-115059766D01*
X186099995Y-115040709D01*
X186091807Y-115041787D01*
X185963427Y-115058688D01*
X185963425Y-115058689D01*
X185955241Y-115059766D01*
X185907425Y-115079572D01*
X185827981Y-115112479D01*
X185827979Y-115112480D01*
X185820353Y-115115639D01*
X185704521Y-115204520D01*
X185615640Y-115320352D01*
X185559767Y-115455240D01*
X185558690Y-115463424D01*
X185558689Y-115463426D01*
X185555917Y-115484484D01*
X185540710Y-115599994D01*
X183322723Y-115599994D01*
X183276275Y-115558611D01*
X183268889Y-115554700D01*
X183142988Y-115488039D01*
X183142989Y-115488039D01*
X183136274Y-115484484D01*
X182982633Y-115445892D01*
X182975034Y-115445852D01*
X182975033Y-115445852D01*
X182909181Y-115445507D01*
X182824221Y-115445062D01*
X182816841Y-115446834D01*
X182816839Y-115446834D01*
X182677563Y-115480271D01*
X182677560Y-115480272D01*
X182670184Y-115482043D01*
X182529414Y-115554700D01*
X182410039Y-115658838D01*
X182318950Y-115788444D01*
X182316190Y-115795524D01*
X182269048Y-115916437D01*
X182261406Y-115936037D01*
X182260414Y-115943570D01*
X182260414Y-115943571D01*
X182241881Y-116084349D01*
X182240729Y-116093096D01*
X180825215Y-116093096D01*
X180744749Y-116059766D01*
X180599995Y-116040709D01*
X180591807Y-116041787D01*
X180463427Y-116058688D01*
X180463425Y-116058689D01*
X180455241Y-116059766D01*
X180408032Y-116079321D01*
X180327981Y-116112479D01*
X180327979Y-116112480D01*
X180320353Y-116115639D01*
X180204521Y-116204520D01*
X180115640Y-116320352D01*
X180059767Y-116455240D01*
X180058690Y-116463424D01*
X180058689Y-116463426D01*
X180048596Y-116540095D01*
X180040710Y-116599994D01*
X179000000Y-116599994D01*
X179000000Y-113969600D01*
X193924808Y-113969600D01*
X193925052Y-113974035D01*
X193925052Y-113974039D01*
X193928154Y-114030400D01*
X193939830Y-114242574D01*
X193993166Y-114510708D01*
X194083749Y-114768652D01*
X194085802Y-114772605D01*
X194085805Y-114772611D01*
X194112534Y-114824066D01*
X194209774Y-115011260D01*
X194212357Y-115014875D01*
X194212361Y-115014881D01*
X194282106Y-115112479D01*
X194368725Y-115233690D01*
X194557431Y-115431505D01*
X194560926Y-115434261D01*
X194560928Y-115434262D01*
X194725074Y-115563664D01*
X194772126Y-115600757D01*
X194863526Y-115653846D01*
X195004681Y-115735836D01*
X195004687Y-115735839D01*
X195008528Y-115738070D01*
X195012651Y-115739740D01*
X195257793Y-115839033D01*
X195257796Y-115839034D01*
X195261919Y-115840704D01*
X195266232Y-115841775D01*
X195266237Y-115841777D01*
X195418649Y-115879636D01*
X195527243Y-115906611D01*
X195760401Y-115930500D01*
X195929642Y-115930500D01*
X196132705Y-115916122D01*
X196137060Y-115915184D01*
X196137063Y-115915184D01*
X196395621Y-115859518D01*
X196395623Y-115859518D01*
X196399968Y-115858582D01*
X196656458Y-115763958D01*
X196839763Y-115665052D01*
X196893140Y-115636251D01*
X196897056Y-115634138D01*
X197116962Y-115471713D01*
X197125381Y-115463426D01*
X197270719Y-115320352D01*
X197311788Y-115279923D01*
X197314489Y-115276384D01*
X197314495Y-115276377D01*
X197474945Y-115066137D01*
X197474948Y-115066133D01*
X197477647Y-115062596D01*
X197555180Y-114924150D01*
X197609052Y-114827956D01*
X197609055Y-114827950D01*
X197611230Y-114824066D01*
X197631137Y-114772611D01*
X197708264Y-114573250D01*
X197708266Y-114573244D01*
X197709871Y-114569095D01*
X197771603Y-114302768D01*
X197795192Y-114030400D01*
X197792091Y-113974039D01*
X197780414Y-113761866D01*
X197780170Y-113757426D01*
X197726834Y-113489292D01*
X197636251Y-113231348D01*
X197634198Y-113227395D01*
X197634195Y-113227389D01*
X197541694Y-113049319D01*
X197510226Y-112988740D01*
X197507643Y-112985125D01*
X197507639Y-112985119D01*
X197353863Y-112769932D01*
X197351275Y-112766310D01*
X197192884Y-112600273D01*
X197165641Y-112571715D01*
X197165639Y-112571713D01*
X197162569Y-112568495D01*
X197115539Y-112531419D01*
X196951370Y-112401999D01*
X196947874Y-112399243D01*
X196811879Y-112320251D01*
X196715319Y-112264164D01*
X196715313Y-112264161D01*
X196711472Y-112261930D01*
X196592309Y-112213664D01*
X196462207Y-112160967D01*
X196462204Y-112160966D01*
X196458081Y-112159296D01*
X196453768Y-112158225D01*
X196453763Y-112158223D01*
X196210285Y-112097743D01*
X196192757Y-112093389D01*
X195959599Y-112069500D01*
X195790358Y-112069500D01*
X195587295Y-112083878D01*
X195582940Y-112084816D01*
X195582937Y-112084816D01*
X195324379Y-112140482D01*
X195324377Y-112140482D01*
X195320032Y-112141418D01*
X195063542Y-112236042D01*
X194822944Y-112365862D01*
X194603038Y-112528287D01*
X194599859Y-112531416D01*
X194599856Y-112531419D01*
X194529912Y-112600273D01*
X194408212Y-112720077D01*
X194405511Y-112723616D01*
X194405505Y-112723623D01*
X194245055Y-112933863D01*
X194242353Y-112937404D01*
X194213604Y-112988740D01*
X194110948Y-113172044D01*
X194110945Y-113172050D01*
X194108770Y-113175934D01*
X194107162Y-113180092D01*
X194107159Y-113180097D01*
X194020538Y-113403999D01*
X194010129Y-113430905D01*
X193948397Y-113697232D01*
X193924808Y-113969600D01*
X179000000Y-113969600D01*
X179000000Y-112743096D01*
X185440729Y-112743096D01*
X185458113Y-112900553D01*
X185460723Y-112907684D01*
X185460723Y-112907686D01*
X185470303Y-112933863D01*
X185512553Y-113049319D01*
X185600908Y-113180805D01*
X185606527Y-113185918D01*
X185606528Y-113185919D01*
X185617903Y-113196269D01*
X185718076Y-113287419D01*
X185857293Y-113363008D01*
X186010522Y-113403207D01*
X186094477Y-113404526D01*
X186161319Y-113405576D01*
X186161322Y-113405576D01*
X186168916Y-113405695D01*
X186323332Y-113370329D01*
X186393742Y-113334917D01*
X186458072Y-113302563D01*
X186458075Y-113302561D01*
X186464855Y-113299151D01*
X186470626Y-113294222D01*
X186470629Y-113294220D01*
X186579536Y-113201204D01*
X186579536Y-113201203D01*
X186585314Y-113196269D01*
X186677755Y-113067624D01*
X186736842Y-112920641D01*
X186742965Y-112877615D01*
X186758581Y-112767891D01*
X186758581Y-112767888D01*
X186759162Y-112763807D01*
X186759307Y-112750000D01*
X186740276Y-112592733D01*
X186684280Y-112444546D01*
X186594553Y-112313992D01*
X186476275Y-112208611D01*
X186468889Y-112204700D01*
X186386291Y-112160967D01*
X186336274Y-112134484D01*
X186182633Y-112095892D01*
X186175034Y-112095852D01*
X186175033Y-112095852D01*
X186109181Y-112095507D01*
X186024221Y-112095062D01*
X186016841Y-112096834D01*
X186016839Y-112096834D01*
X185877563Y-112130271D01*
X185877560Y-112130272D01*
X185870184Y-112132043D01*
X185729414Y-112204700D01*
X185610039Y-112308838D01*
X185518950Y-112438444D01*
X185461406Y-112586037D01*
X185460414Y-112593570D01*
X185460414Y-112593571D01*
X185443293Y-112723623D01*
X185440729Y-112743096D01*
X179000000Y-112743096D01*
X179000000Y-107199994D01*
X181940710Y-107199994D01*
X181959767Y-107344748D01*
X182015640Y-107479636D01*
X182104521Y-107595468D01*
X182111071Y-107600494D01*
X182111074Y-107600497D01*
X182213799Y-107679321D01*
X182220352Y-107684349D01*
X182355241Y-107740222D01*
X182499995Y-107759279D01*
X182508183Y-107758201D01*
X182636561Y-107741300D01*
X182644749Y-107740222D01*
X182779638Y-107684349D01*
X182786191Y-107679321D01*
X182888916Y-107600497D01*
X182888919Y-107600494D01*
X182895469Y-107595468D01*
X182984350Y-107479636D01*
X183040223Y-107344748D01*
X183059280Y-107199994D01*
X184540710Y-107199994D01*
X184559767Y-107344748D01*
X184615640Y-107479636D01*
X184704521Y-107595468D01*
X184711071Y-107600494D01*
X184711074Y-107600497D01*
X184813799Y-107679321D01*
X184820352Y-107684349D01*
X184955241Y-107740222D01*
X185099995Y-107759279D01*
X185108183Y-107758201D01*
X185236561Y-107741300D01*
X185244749Y-107740222D01*
X185379638Y-107684349D01*
X185386191Y-107679321D01*
X185488916Y-107600497D01*
X185488919Y-107600494D01*
X185495469Y-107595468D01*
X185584350Y-107479636D01*
X185640223Y-107344748D01*
X185659280Y-107199994D01*
X187040710Y-107199994D01*
X187059767Y-107344748D01*
X187115640Y-107479636D01*
X187204521Y-107595468D01*
X187211071Y-107600494D01*
X187211074Y-107600497D01*
X187313799Y-107679321D01*
X187320352Y-107684349D01*
X187455241Y-107740222D01*
X187599995Y-107759279D01*
X187608183Y-107758201D01*
X187736561Y-107741300D01*
X187744749Y-107740222D01*
X187879638Y-107684349D01*
X187886191Y-107679321D01*
X187988916Y-107600497D01*
X187988919Y-107600494D01*
X187995469Y-107595468D01*
X188084350Y-107479636D01*
X188140223Y-107344748D01*
X188159280Y-107199994D01*
X188140223Y-107055240D01*
X188084350Y-106920352D01*
X187995469Y-106804520D01*
X187988919Y-106799494D01*
X187988916Y-106799491D01*
X187886191Y-106720667D01*
X187886189Y-106720666D01*
X187879638Y-106715639D01*
X187744749Y-106659766D01*
X187599995Y-106640709D01*
X187591807Y-106641787D01*
X187463427Y-106658688D01*
X187463425Y-106658689D01*
X187455241Y-106659766D01*
X187407425Y-106679572D01*
X187327981Y-106712479D01*
X187327979Y-106712480D01*
X187320353Y-106715639D01*
X187204521Y-106804520D01*
X187115640Y-106920352D01*
X187059767Y-107055240D01*
X187040710Y-107199994D01*
X185659280Y-107199994D01*
X185640223Y-107055240D01*
X185584350Y-106920352D01*
X185495469Y-106804520D01*
X185488919Y-106799494D01*
X185488916Y-106799491D01*
X185386191Y-106720667D01*
X185386189Y-106720666D01*
X185379638Y-106715639D01*
X185244749Y-106659766D01*
X185099995Y-106640709D01*
X185091807Y-106641787D01*
X184963427Y-106658688D01*
X184963425Y-106658689D01*
X184955241Y-106659766D01*
X184907425Y-106679572D01*
X184827981Y-106712479D01*
X184827979Y-106712480D01*
X184820353Y-106715639D01*
X184704521Y-106804520D01*
X184615640Y-106920352D01*
X184559767Y-107055240D01*
X184540710Y-107199994D01*
X183059280Y-107199994D01*
X183040223Y-107055240D01*
X182984350Y-106920352D01*
X182895469Y-106804520D01*
X182888919Y-106799494D01*
X182888916Y-106799491D01*
X182786191Y-106720667D01*
X182786189Y-106720666D01*
X182779638Y-106715639D01*
X182644749Y-106659766D01*
X182499995Y-106640709D01*
X182491807Y-106641787D01*
X182363427Y-106658688D01*
X182363425Y-106658689D01*
X182355241Y-106659766D01*
X182307425Y-106679572D01*
X182227981Y-106712479D01*
X182227979Y-106712480D01*
X182220353Y-106715639D01*
X182104521Y-106804520D01*
X182015640Y-106920352D01*
X181959767Y-107055240D01*
X181940710Y-107199994D01*
X179000000Y-107199994D01*
X179000000Y-103199994D01*
X181940710Y-103199994D01*
X181959767Y-103344748D01*
X182015640Y-103479636D01*
X182104521Y-103595468D01*
X182111071Y-103600494D01*
X182111074Y-103600497D01*
X182213799Y-103679321D01*
X182220352Y-103684349D01*
X182355241Y-103740222D01*
X182499995Y-103759279D01*
X182508183Y-103758201D01*
X182636561Y-103741300D01*
X182644749Y-103740222D01*
X182779638Y-103684349D01*
X182786191Y-103679321D01*
X182888916Y-103600497D01*
X182888919Y-103600494D01*
X182895469Y-103595468D01*
X182984350Y-103479636D01*
X183040223Y-103344748D01*
X183059280Y-103199994D01*
X184540710Y-103199994D01*
X184559767Y-103344748D01*
X184615640Y-103479636D01*
X184704521Y-103595468D01*
X184711071Y-103600494D01*
X184711074Y-103600497D01*
X184813799Y-103679321D01*
X184820352Y-103684349D01*
X184955241Y-103740222D01*
X185099995Y-103759279D01*
X185108183Y-103758201D01*
X185236561Y-103741300D01*
X185244749Y-103740222D01*
X185379638Y-103684349D01*
X185386191Y-103679321D01*
X185488916Y-103600497D01*
X185488919Y-103600494D01*
X185495469Y-103595468D01*
X185584350Y-103479636D01*
X185640223Y-103344748D01*
X185659280Y-103199994D01*
X187040710Y-103199994D01*
X187059767Y-103344748D01*
X187115640Y-103479636D01*
X187204521Y-103595468D01*
X187211071Y-103600494D01*
X187211074Y-103600497D01*
X187313799Y-103679321D01*
X187320352Y-103684349D01*
X187455241Y-103740222D01*
X187599995Y-103759279D01*
X187608183Y-103758201D01*
X187736561Y-103741300D01*
X187744749Y-103740222D01*
X187879638Y-103684349D01*
X187886191Y-103679321D01*
X187988916Y-103600497D01*
X187988919Y-103600494D01*
X187995469Y-103595468D01*
X188084350Y-103479636D01*
X188140223Y-103344748D01*
X188159280Y-103199994D01*
X188140223Y-103055240D01*
X188084350Y-102920352D01*
X187995469Y-102804520D01*
X187988919Y-102799494D01*
X187988916Y-102799491D01*
X187886191Y-102720667D01*
X187886189Y-102720666D01*
X187879638Y-102715639D01*
X187744749Y-102659766D01*
X187599995Y-102640709D01*
X187591807Y-102641787D01*
X187463427Y-102658688D01*
X187463425Y-102658689D01*
X187455241Y-102659766D01*
X187407425Y-102679572D01*
X187327981Y-102712479D01*
X187327979Y-102712480D01*
X187320353Y-102715639D01*
X187204521Y-102804520D01*
X187115640Y-102920352D01*
X187059767Y-103055240D01*
X187040710Y-103199994D01*
X185659280Y-103199994D01*
X185640223Y-103055240D01*
X185584350Y-102920352D01*
X185495469Y-102804520D01*
X185488919Y-102799494D01*
X185488916Y-102799491D01*
X185386191Y-102720667D01*
X185386189Y-102720666D01*
X185379638Y-102715639D01*
X185244749Y-102659766D01*
X185099995Y-102640709D01*
X185091807Y-102641787D01*
X184963427Y-102658688D01*
X184963425Y-102658689D01*
X184955241Y-102659766D01*
X184907425Y-102679572D01*
X184827981Y-102712479D01*
X184827979Y-102712480D01*
X184820353Y-102715639D01*
X184704521Y-102804520D01*
X184615640Y-102920352D01*
X184559767Y-103055240D01*
X184540710Y-103199994D01*
X183059280Y-103199994D01*
X183040223Y-103055240D01*
X182984350Y-102920352D01*
X182895469Y-102804520D01*
X182888919Y-102799494D01*
X182888916Y-102799491D01*
X182786191Y-102720667D01*
X182786189Y-102720666D01*
X182779638Y-102715639D01*
X182644749Y-102659766D01*
X182499995Y-102640709D01*
X182491807Y-102641787D01*
X182363427Y-102658688D01*
X182363425Y-102658689D01*
X182355241Y-102659766D01*
X182307425Y-102679572D01*
X182227981Y-102712479D01*
X182227979Y-102712480D01*
X182220353Y-102715639D01*
X182104521Y-102804520D01*
X182015640Y-102920352D01*
X181959767Y-103055240D01*
X181940710Y-103199994D01*
X179000000Y-103199994D01*
X179000000Y-100380500D01*
X179020002Y-100312379D01*
X179073658Y-100265886D01*
X179126000Y-100254500D01*
X199619500Y-100254500D01*
X199687621Y-100274502D01*
G37*
%TD.AperFunction*%
%TD*%
%TA.AperFunction,Conductor*%
%TO.N,+3V3*%
G36*
X164627290Y-100274502D02*
G01*
X164673783Y-100328158D01*
X164683887Y-100398432D01*
X164654393Y-100463012D01*
X164635872Y-100480463D01*
X164611070Y-100499494D01*
X164611068Y-100499496D01*
X164604521Y-100504520D01*
X164515640Y-100620352D01*
X164459767Y-100755240D01*
X164440710Y-100899994D01*
X164459767Y-101044748D01*
X164515640Y-101179636D01*
X164520667Y-101186187D01*
X164598821Y-101288039D01*
X164604521Y-101295468D01*
X164611071Y-101300494D01*
X164611074Y-101300497D01*
X164713799Y-101379321D01*
X164720352Y-101384349D01*
X164855241Y-101440222D01*
X164999995Y-101459279D01*
X165008183Y-101458201D01*
X165061218Y-101451219D01*
X165144749Y-101440222D01*
X165279638Y-101384349D01*
X165286191Y-101379321D01*
X165388916Y-101300497D01*
X165388919Y-101300494D01*
X165395469Y-101295468D01*
X165401170Y-101288039D01*
X165479323Y-101186187D01*
X165484350Y-101179636D01*
X165540223Y-101044748D01*
X165559280Y-100899994D01*
X165540223Y-100755240D01*
X165484350Y-100620352D01*
X165395469Y-100504520D01*
X165364114Y-100480460D01*
X165322249Y-100423125D01*
X165318027Y-100352254D01*
X165352791Y-100290351D01*
X165415504Y-100257070D01*
X165440820Y-100254500D01*
X178614500Y-100254500D01*
X178682621Y-100274502D01*
X178729114Y-100328158D01*
X178740500Y-100380500D01*
X178740500Y-116152666D01*
X178720498Y-116220787D01*
X178666842Y-116267280D01*
X178596568Y-116277384D01*
X178531988Y-116247890D01*
X178514537Y-116229370D01*
X178500496Y-116211071D01*
X178500495Y-116211070D01*
X178495469Y-116204520D01*
X178488919Y-116199494D01*
X178488916Y-116199491D01*
X178386191Y-116120667D01*
X178386189Y-116120666D01*
X178379638Y-116115639D01*
X178262774Y-116067232D01*
X178252378Y-116062926D01*
X178244749Y-116059766D01*
X178099995Y-116040709D01*
X178091807Y-116041787D01*
X177963427Y-116058688D01*
X177963425Y-116058689D01*
X177955241Y-116059766D01*
X177945039Y-116063992D01*
X177827981Y-116112479D01*
X177827979Y-116112480D01*
X177820353Y-116115639D01*
X177742236Y-116175580D01*
X177733573Y-116182228D01*
X177704521Y-116204520D01*
X177699498Y-116211066D01*
X177686517Y-116227983D01*
X177615640Y-116320352D01*
X177612481Y-116327978D01*
X177612480Y-116327980D01*
X177566404Y-116439217D01*
X177521855Y-116494497D01*
X177454492Y-116516918D01*
X177385701Y-116499360D01*
X177337322Y-116447397D01*
X177333586Y-116439217D01*
X177287510Y-116327980D01*
X177287509Y-116327978D01*
X177284350Y-116320352D01*
X177213473Y-116227983D01*
X177200496Y-116211071D01*
X177200495Y-116211070D01*
X177195469Y-116204520D01*
X177188919Y-116199494D01*
X177188916Y-116199491D01*
X177086191Y-116120667D01*
X177086189Y-116120666D01*
X177079638Y-116115639D01*
X176962774Y-116067232D01*
X176952378Y-116062926D01*
X176944749Y-116059766D01*
X176799995Y-116040709D01*
X176791807Y-116041787D01*
X176663427Y-116058688D01*
X176663425Y-116058689D01*
X176655241Y-116059766D01*
X176645039Y-116063992D01*
X176527981Y-116112479D01*
X176527979Y-116112480D01*
X176520353Y-116115639D01*
X176442236Y-116175580D01*
X176433573Y-116182228D01*
X176404521Y-116204520D01*
X176399498Y-116211066D01*
X176386517Y-116227983D01*
X176315640Y-116320352D01*
X176312481Y-116327978D01*
X176312480Y-116327980D01*
X176303246Y-116350273D01*
X176259767Y-116455240D01*
X176258690Y-116463424D01*
X176258689Y-116463426D01*
X176251647Y-116516918D01*
X176240710Y-116599994D01*
X176241788Y-116608182D01*
X176255333Y-116711066D01*
X176259767Y-116744748D01*
X176262926Y-116752374D01*
X176297532Y-116835919D01*
X176315640Y-116879636D01*
X176404521Y-116995468D01*
X176411071Y-117000494D01*
X176411074Y-117000497D01*
X176513799Y-117079321D01*
X176520352Y-117084349D01*
X176655241Y-117140222D01*
X176799995Y-117159279D01*
X176808183Y-117158201D01*
X176936561Y-117141300D01*
X176944749Y-117140222D01*
X177079638Y-117084349D01*
X177086191Y-117079321D01*
X177188916Y-117000497D01*
X177188919Y-117000494D01*
X177195469Y-116995468D01*
X177284350Y-116879636D01*
X177302459Y-116835919D01*
X177333586Y-116760771D01*
X177378135Y-116705491D01*
X177445498Y-116683070D01*
X177514289Y-116700628D01*
X177562668Y-116752591D01*
X177566404Y-116760771D01*
X177597532Y-116835919D01*
X177615640Y-116879636D01*
X177704521Y-116995468D01*
X177711071Y-117000494D01*
X177711074Y-117000497D01*
X177813799Y-117079321D01*
X177820352Y-117084349D01*
X177955241Y-117140222D01*
X178099995Y-117159279D01*
X178108183Y-117158201D01*
X178236561Y-117141300D01*
X178244749Y-117140222D01*
X178379638Y-117084349D01*
X178386191Y-117079321D01*
X178488916Y-117000497D01*
X178488919Y-117000494D01*
X178495469Y-116995468D01*
X178514537Y-116970618D01*
X178571875Y-116928751D01*
X178642746Y-116924529D01*
X178704649Y-116959293D01*
X178737930Y-117022006D01*
X178740500Y-117047322D01*
X178740500Y-117840322D01*
X178720498Y-117908443D01*
X178703595Y-117929417D01*
X174853411Y-121779601D01*
X174834853Y-121800260D01*
X174817950Y-121821234D01*
X174771013Y-121910960D01*
X174751011Y-121979081D01*
X174750371Y-121983529D01*
X174750370Y-121983536D01*
X174741139Y-122047742D01*
X174740500Y-122052190D01*
X174740500Y-129619500D01*
X174720498Y-129687621D01*
X174666842Y-129734114D01*
X174614500Y-129745500D01*
X162085500Y-129745500D01*
X162017379Y-129725498D01*
X161970886Y-129671842D01*
X161959500Y-129619500D01*
X161959500Y-121599994D01*
X166040710Y-121599994D01*
X166059767Y-121744748D01*
X166115640Y-121879636D01*
X166139676Y-121910960D01*
X166188630Y-121974758D01*
X166204521Y-121995468D01*
X166211071Y-122000494D01*
X166211074Y-122000497D01*
X166284301Y-122056686D01*
X166320352Y-122084349D01*
X166455241Y-122140222D01*
X166599995Y-122159279D01*
X166608183Y-122158201D01*
X166736561Y-122141300D01*
X166744749Y-122140222D01*
X166879638Y-122084349D01*
X166915689Y-122056686D01*
X166988916Y-122000497D01*
X166988919Y-122000494D01*
X166995469Y-121995468D01*
X167011361Y-121974758D01*
X167060314Y-121910960D01*
X167084350Y-121879636D01*
X167140223Y-121744748D01*
X167159280Y-121599994D01*
X169040710Y-121599994D01*
X169059767Y-121744748D01*
X169115640Y-121879636D01*
X169139676Y-121910960D01*
X169188630Y-121974758D01*
X169204521Y-121995468D01*
X169211071Y-122000494D01*
X169211074Y-122000497D01*
X169284301Y-122056686D01*
X169320352Y-122084349D01*
X169455241Y-122140222D01*
X169599995Y-122159279D01*
X169608183Y-122158201D01*
X169736561Y-122141300D01*
X169744749Y-122140222D01*
X169879638Y-122084349D01*
X169915689Y-122056686D01*
X169988916Y-122000497D01*
X169988919Y-122000494D01*
X169995469Y-121995468D01*
X170011361Y-121974758D01*
X170060314Y-121910960D01*
X170084350Y-121879636D01*
X170140223Y-121744748D01*
X170159280Y-121599994D01*
X172040710Y-121599994D01*
X172059767Y-121744748D01*
X172115640Y-121879636D01*
X172139676Y-121910960D01*
X172188630Y-121974758D01*
X172204521Y-121995468D01*
X172211071Y-122000494D01*
X172211074Y-122000497D01*
X172284301Y-122056686D01*
X172320352Y-122084349D01*
X172455241Y-122140222D01*
X172599995Y-122159279D01*
X172608183Y-122158201D01*
X172736561Y-122141300D01*
X172744749Y-122140222D01*
X172879638Y-122084349D01*
X172915689Y-122056686D01*
X172988916Y-122000497D01*
X172988919Y-122000494D01*
X172995469Y-121995468D01*
X173011361Y-121974758D01*
X173060314Y-121910960D01*
X173084350Y-121879636D01*
X173140223Y-121744748D01*
X173159280Y-121599994D01*
X173140223Y-121455240D01*
X173084350Y-121320352D01*
X172995469Y-121204520D01*
X172988919Y-121199494D01*
X172988916Y-121199491D01*
X172886191Y-121120667D01*
X172886189Y-121120666D01*
X172879638Y-121115639D01*
X172744749Y-121059766D01*
X172599995Y-121040709D01*
X172591807Y-121041787D01*
X172463427Y-121058688D01*
X172463425Y-121058689D01*
X172455241Y-121059766D01*
X172407425Y-121079572D01*
X172327981Y-121112479D01*
X172327979Y-121112480D01*
X172320353Y-121115639D01*
X172204521Y-121204520D01*
X172115640Y-121320352D01*
X172059767Y-121455240D01*
X172040710Y-121599994D01*
X170159280Y-121599994D01*
X170140223Y-121455240D01*
X170084350Y-121320352D01*
X169995469Y-121204520D01*
X169988919Y-121199494D01*
X169988916Y-121199491D01*
X169886191Y-121120667D01*
X169886189Y-121120666D01*
X169879638Y-121115639D01*
X169744749Y-121059766D01*
X169599995Y-121040709D01*
X169591807Y-121041787D01*
X169463427Y-121058688D01*
X169463425Y-121058689D01*
X169455241Y-121059766D01*
X169407425Y-121079572D01*
X169327981Y-121112479D01*
X169327979Y-121112480D01*
X169320353Y-121115639D01*
X169204521Y-121204520D01*
X169115640Y-121320352D01*
X169059767Y-121455240D01*
X169040710Y-121599994D01*
X167159280Y-121599994D01*
X167140223Y-121455240D01*
X167084350Y-121320352D01*
X166995469Y-121204520D01*
X166988919Y-121199494D01*
X166988916Y-121199491D01*
X166886191Y-121120667D01*
X166886189Y-121120666D01*
X166879638Y-121115639D01*
X166744749Y-121059766D01*
X166599995Y-121040709D01*
X166591807Y-121041787D01*
X166463427Y-121058688D01*
X166463425Y-121058689D01*
X166455241Y-121059766D01*
X166407425Y-121079572D01*
X166327981Y-121112479D01*
X166327979Y-121112480D01*
X166320353Y-121115639D01*
X166204521Y-121204520D01*
X166115640Y-121320352D01*
X166059767Y-121455240D01*
X166040710Y-121599994D01*
X161959500Y-121599994D01*
X161959500Y-119693603D01*
X161959335Y-119684342D01*
X161959014Y-119675353D01*
X161942817Y-119593927D01*
X161918006Y-119527407D01*
X161898042Y-119485679D01*
X161830381Y-119410354D01*
X161825426Y-119406645D01*
X161825422Y-119406641D01*
X161775799Y-119369494D01*
X161775794Y-119369491D01*
X161773545Y-119367807D01*
X161734189Y-119343496D01*
X161730363Y-119342446D01*
X161677842Y-119298551D01*
X161656628Y-119230798D01*
X161657685Y-119212109D01*
X161658202Y-119208181D01*
X161659280Y-119199994D01*
X161657497Y-119186449D01*
X161668437Y-119116301D01*
X161720070Y-119060512D01*
X161790899Y-119020179D01*
X161796278Y-119017116D01*
X161849934Y-118970623D01*
X161882056Y-118937334D01*
X161928987Y-118847615D01*
X161948989Y-118779494D01*
X161959500Y-118706385D01*
X161959500Y-118126000D01*
X161958050Y-118112511D01*
X161953932Y-118074205D01*
X161953931Y-118074199D01*
X161953570Y-118070841D01*
X161942184Y-118018499D01*
X161934834Y-117991709D01*
X161884731Y-117903722D01*
X161875524Y-117893096D01*
X165540729Y-117893096D01*
X165545402Y-117935422D01*
X165554395Y-118016873D01*
X165558113Y-118050553D01*
X165560723Y-118057684D01*
X165560723Y-118057686D01*
X165596364Y-118155079D01*
X165612553Y-118199319D01*
X165700908Y-118330805D01*
X165706527Y-118335918D01*
X165706528Y-118335919D01*
X165717903Y-118346269D01*
X165818076Y-118437419D01*
X165957293Y-118513008D01*
X166110522Y-118553207D01*
X166194477Y-118554526D01*
X166261319Y-118555576D01*
X166261322Y-118555576D01*
X166268916Y-118555695D01*
X166423332Y-118520329D01*
X166493742Y-118484917D01*
X166558072Y-118452563D01*
X166558075Y-118452561D01*
X166564855Y-118449151D01*
X166570626Y-118444222D01*
X166570629Y-118444220D01*
X166679536Y-118351204D01*
X166679536Y-118351203D01*
X166685314Y-118346269D01*
X166777755Y-118217624D01*
X166836842Y-118070641D01*
X166856814Y-117930308D01*
X166858581Y-117917891D01*
X166858581Y-117917888D01*
X166859162Y-117913807D01*
X166859307Y-117900000D01*
X166840276Y-117742733D01*
X166784280Y-117594546D01*
X166714214Y-117492599D01*
X169540729Y-117492599D01*
X169549421Y-117571328D01*
X169552769Y-117601649D01*
X169558113Y-117650056D01*
X169560723Y-117657187D01*
X169560723Y-117657189D01*
X169603426Y-117773880D01*
X169612553Y-117798822D01*
X169616789Y-117805125D01*
X169616789Y-117805126D01*
X169675903Y-117893096D01*
X169700908Y-117930308D01*
X169706527Y-117935421D01*
X169706528Y-117935422D01*
X169717903Y-117945772D01*
X169818076Y-118036922D01*
X169957293Y-118112511D01*
X170110522Y-118152710D01*
X170194477Y-118154029D01*
X170261319Y-118155079D01*
X170261322Y-118155079D01*
X170268916Y-118155198D01*
X170423332Y-118119832D01*
X170520741Y-118070841D01*
X170558072Y-118052066D01*
X170558075Y-118052064D01*
X170564855Y-118048654D01*
X170570626Y-118043725D01*
X170570629Y-118043723D01*
X170679536Y-117950707D01*
X170679536Y-117950706D01*
X170685314Y-117945772D01*
X170777755Y-117817127D01*
X170836842Y-117670144D01*
X170848469Y-117588444D01*
X170858581Y-117517394D01*
X170858581Y-117517391D01*
X170859162Y-117513310D01*
X170859307Y-117499503D01*
X170840276Y-117342236D01*
X170784280Y-117194049D01*
X170699013Y-117069984D01*
X170676913Y-117002516D01*
X170694798Y-116933809D01*
X170700531Y-116925092D01*
X170700936Y-116924529D01*
X170777755Y-116817624D01*
X170836842Y-116670641D01*
X170846896Y-116599994D01*
X170858581Y-116517891D01*
X170858581Y-116517888D01*
X170859162Y-116513807D01*
X170859307Y-116500000D01*
X170858316Y-116491806D01*
X170848877Y-116413807D01*
X170840276Y-116342733D01*
X170784280Y-116194546D01*
X170727877Y-116112479D01*
X170698855Y-116070251D01*
X170698854Y-116070249D01*
X170694553Y-116063992D01*
X170669631Y-116041787D01*
X170640282Y-116015639D01*
X170576275Y-115958611D01*
X170568889Y-115954700D01*
X170442988Y-115888039D01*
X170442989Y-115888039D01*
X170436274Y-115884484D01*
X170282633Y-115845892D01*
X170275034Y-115845852D01*
X170275033Y-115845852D01*
X170209181Y-115845507D01*
X170124221Y-115845062D01*
X170116841Y-115846834D01*
X170116839Y-115846834D01*
X169977563Y-115880271D01*
X169977560Y-115880272D01*
X169970184Y-115882043D01*
X169829414Y-115954700D01*
X169710039Y-116058838D01*
X169618950Y-116188444D01*
X169561406Y-116336037D01*
X169560414Y-116343570D01*
X169560414Y-116343571D01*
X169545713Y-116455240D01*
X169540729Y-116493096D01*
X169558113Y-116650553D01*
X169560723Y-116657684D01*
X169560723Y-116657686D01*
X169602559Y-116772008D01*
X169612553Y-116799319D01*
X169616789Y-116805622D01*
X169616789Y-116805623D01*
X169700883Y-116930768D01*
X169722275Y-116998465D01*
X169703671Y-117066981D01*
X169699388Y-117073495D01*
X169623319Y-117181730D01*
X169618950Y-117187947D01*
X169616190Y-117195027D01*
X169582264Y-117282043D01*
X169561406Y-117335540D01*
X169560414Y-117343073D01*
X169560414Y-117343074D01*
X169544356Y-117465052D01*
X169540729Y-117492599D01*
X166714214Y-117492599D01*
X166698855Y-117470251D01*
X166698854Y-117470249D01*
X166694553Y-117463992D01*
X166576275Y-117358611D01*
X166568889Y-117354700D01*
X166442986Y-117288038D01*
X166442987Y-117288038D01*
X166436274Y-117284484D01*
X166428913Y-117282635D01*
X166423831Y-117280684D01*
X166367404Y-117237596D01*
X166343231Y-117170842D01*
X166358985Y-117101615D01*
X166409665Y-117051895D01*
X166436382Y-117041348D01*
X166436562Y-117041300D01*
X166444749Y-117040222D01*
X166452375Y-117037063D01*
X166452376Y-117037063D01*
X166492775Y-117020329D01*
X166579638Y-116984349D01*
X166597533Y-116970618D01*
X166673291Y-116912486D01*
X166739511Y-116886885D01*
X166809060Y-116901150D01*
X166826699Y-116912486D01*
X166902458Y-116970618D01*
X166920352Y-116984349D01*
X167055241Y-117040222D01*
X167199995Y-117059279D01*
X167208183Y-117058201D01*
X167227219Y-117055695D01*
X167344749Y-117040222D01*
X167479638Y-116984349D01*
X167486191Y-116979321D01*
X167588916Y-116900497D01*
X167588919Y-116900494D01*
X167595469Y-116895468D01*
X167607618Y-116879636D01*
X167650463Y-116823798D01*
X167684350Y-116779636D01*
X167692165Y-116760771D01*
X167737063Y-116652377D01*
X167737064Y-116652374D01*
X167740223Y-116644748D01*
X167741301Y-116636561D01*
X167743136Y-116629712D01*
X167780088Y-116569089D01*
X167843948Y-116538068D01*
X167914443Y-116546496D01*
X167969190Y-116591699D01*
X167983169Y-116619023D01*
X168009941Y-116692183D01*
X168009943Y-116692187D01*
X168012553Y-116699319D01*
X168016789Y-116705622D01*
X168016789Y-116705623D01*
X168048205Y-116752374D01*
X168100908Y-116830805D01*
X168106527Y-116835918D01*
X168106528Y-116835919D01*
X168210807Y-116930805D01*
X168218076Y-116937419D01*
X168357293Y-117013008D01*
X168510522Y-117053207D01*
X168594477Y-117054526D01*
X168661319Y-117055576D01*
X168661322Y-117055576D01*
X168668916Y-117055695D01*
X168823332Y-117020329D01*
X168904868Y-116979321D01*
X168958072Y-116952563D01*
X168958075Y-116952561D01*
X168964855Y-116949151D01*
X168970626Y-116944222D01*
X168970629Y-116944220D01*
X169079536Y-116851204D01*
X169079536Y-116851203D01*
X169085314Y-116846269D01*
X169177755Y-116717624D01*
X169236842Y-116570641D01*
X169247878Y-116493096D01*
X169258581Y-116417891D01*
X169258581Y-116417888D01*
X169259162Y-116413807D01*
X169259307Y-116400000D01*
X169240276Y-116242733D01*
X169184280Y-116094546D01*
X169162548Y-116062925D01*
X169098855Y-115970251D01*
X169098854Y-115970249D01*
X169094553Y-115963992D01*
X169088514Y-115958611D01*
X169058260Y-115931656D01*
X168976275Y-115858611D01*
X168968889Y-115854700D01*
X168842988Y-115788039D01*
X168842989Y-115788039D01*
X168836274Y-115784484D01*
X168682633Y-115745892D01*
X168675034Y-115745852D01*
X168675033Y-115745852D01*
X168609181Y-115745507D01*
X168524221Y-115745062D01*
X168516841Y-115746834D01*
X168516839Y-115746834D01*
X168377563Y-115780271D01*
X168377560Y-115780272D01*
X168370184Y-115782043D01*
X168229414Y-115854700D01*
X168110039Y-115958838D01*
X168018950Y-116088444D01*
X168010130Y-116111066D01*
X167967352Y-116220787D01*
X167961406Y-116236037D01*
X167960414Y-116243570D01*
X167960414Y-116243571D01*
X167957531Y-116265471D01*
X167928809Y-116330398D01*
X167869544Y-116369490D01*
X167798552Y-116370335D01*
X167738373Y-116332665D01*
X167716200Y-116297243D01*
X167687511Y-116227983D01*
X167687511Y-116227982D01*
X167684350Y-116220352D01*
X167595469Y-116104520D01*
X167588919Y-116099494D01*
X167588916Y-116099491D01*
X167486191Y-116020667D01*
X167486188Y-116020665D01*
X167479638Y-116015639D01*
X167362774Y-115967232D01*
X167352378Y-115962926D01*
X167344749Y-115959766D01*
X167306269Y-115954700D01*
X167208183Y-115941787D01*
X167199995Y-115940709D01*
X167191807Y-115941787D01*
X167063427Y-115958688D01*
X167063425Y-115958689D01*
X167055241Y-115959766D01*
X167045039Y-115963992D01*
X166927981Y-116012479D01*
X166927979Y-116012480D01*
X166920353Y-116015639D01*
X166864055Y-116058838D01*
X166826698Y-116087503D01*
X166760478Y-116113103D01*
X166690929Y-116098838D01*
X166673301Y-116087510D01*
X166579638Y-116015639D01*
X166462774Y-115967232D01*
X166452378Y-115962926D01*
X166444749Y-115959766D01*
X166406269Y-115954700D01*
X166308183Y-115941787D01*
X166299995Y-115940709D01*
X166291807Y-115941787D01*
X166163427Y-115958688D01*
X166163425Y-115958689D01*
X166155241Y-115959766D01*
X166145039Y-115963992D01*
X166027981Y-116012479D01*
X166027979Y-116012480D01*
X166020353Y-116015639D01*
X165964055Y-116058838D01*
X165933573Y-116082228D01*
X165904521Y-116104520D01*
X165815640Y-116220352D01*
X165812481Y-116227978D01*
X165812480Y-116227980D01*
X165792016Y-116277384D01*
X165759767Y-116355240D01*
X165758690Y-116363424D01*
X165758689Y-116363426D01*
X165751519Y-116417891D01*
X165740710Y-116499994D01*
X165742938Y-116516918D01*
X165756597Y-116620667D01*
X165759767Y-116644748D01*
X165762926Y-116652374D01*
X165807826Y-116760771D01*
X165815640Y-116779636D01*
X165849527Y-116823798D01*
X165892373Y-116879636D01*
X165904521Y-116895468D01*
X165911071Y-116900494D01*
X165911074Y-116900497D01*
X166013799Y-116979321D01*
X166020352Y-116984349D01*
X166098661Y-117016786D01*
X166153941Y-117061333D01*
X166176362Y-117128696D01*
X166158804Y-117197488D01*
X166106842Y-117245866D01*
X166079856Y-117255713D01*
X165977564Y-117280271D01*
X165977562Y-117280272D01*
X165970184Y-117282043D01*
X165829414Y-117354700D01*
X165710039Y-117458838D01*
X165618950Y-117588444D01*
X165561406Y-117736037D01*
X165560414Y-117743570D01*
X165560414Y-117743571D01*
X165546651Y-117848117D01*
X165540729Y-117893096D01*
X161875524Y-117893096D01*
X161838238Y-117850066D01*
X161804949Y-117817944D01*
X161715230Y-117771013D01*
X161709294Y-117769270D01*
X161651432Y-117752280D01*
X161651428Y-117752279D01*
X161647109Y-117751011D01*
X161642661Y-117750371D01*
X161642654Y-117750370D01*
X161578448Y-117741139D01*
X161578441Y-117741139D01*
X161574000Y-117740500D01*
X155685500Y-117740500D01*
X155617379Y-117720498D01*
X155570886Y-117666842D01*
X155559500Y-117614500D01*
X155559500Y-117099994D01*
X161840710Y-117099994D01*
X161841788Y-117108182D01*
X161854028Y-117201152D01*
X161859767Y-117244748D01*
X161879573Y-117292564D01*
X161907378Y-117359689D01*
X161915640Y-117379636D01*
X161920667Y-117386187D01*
X161980369Y-117463992D01*
X162004521Y-117495468D01*
X162011071Y-117500494D01*
X162011074Y-117500497D01*
X162033095Y-117517394D01*
X162120352Y-117584349D01*
X162255241Y-117640222D01*
X162399995Y-117659279D01*
X162408183Y-117658201D01*
X162536561Y-117641300D01*
X162544749Y-117640222D01*
X162679638Y-117584349D01*
X162766895Y-117517394D01*
X162788916Y-117500497D01*
X162788919Y-117500494D01*
X162795469Y-117495468D01*
X162819622Y-117463992D01*
X162879323Y-117386187D01*
X162884350Y-117379636D01*
X162892613Y-117359689D01*
X162920417Y-117292564D01*
X162940223Y-117244748D01*
X162945963Y-117201152D01*
X162958202Y-117108182D01*
X162959280Y-117099994D01*
X162953136Y-117053326D01*
X162941301Y-116963426D01*
X162941300Y-116963424D01*
X162940223Y-116955240D01*
X162917818Y-116901150D01*
X162887510Y-116827980D01*
X162887509Y-116827978D01*
X162884350Y-116820352D01*
X162795469Y-116704520D01*
X162788919Y-116699494D01*
X162788916Y-116699491D01*
X162686191Y-116620667D01*
X162686189Y-116620666D01*
X162679638Y-116615639D01*
X162544749Y-116559766D01*
X162474769Y-116550553D01*
X162408183Y-116541787D01*
X162399995Y-116540709D01*
X162391807Y-116541787D01*
X162263427Y-116558688D01*
X162263425Y-116558689D01*
X162255241Y-116559766D01*
X162247156Y-116563115D01*
X162127981Y-116612479D01*
X162127979Y-116612480D01*
X162120353Y-116615639D01*
X162004521Y-116704520D01*
X161915640Y-116820352D01*
X161912481Y-116827978D01*
X161912480Y-116827980D01*
X161882172Y-116901150D01*
X161859767Y-116955240D01*
X161858690Y-116963424D01*
X161858689Y-116963426D01*
X161846854Y-117053326D01*
X161840710Y-117099994D01*
X155559500Y-117099994D01*
X155559500Y-113493096D01*
X155840729Y-113493096D01*
X155849421Y-113571824D01*
X155856965Y-113640153D01*
X155858113Y-113650553D01*
X155860723Y-113657684D01*
X155860723Y-113657686D01*
X155902565Y-113772024D01*
X155912553Y-113799319D01*
X155916789Y-113805622D01*
X155916789Y-113805623D01*
X155952396Y-113858611D01*
X156000908Y-113930805D01*
X156118076Y-114037419D01*
X156257293Y-114113008D01*
X156410522Y-114153207D01*
X156494477Y-114154526D01*
X156561319Y-114155576D01*
X156561322Y-114155576D01*
X156568916Y-114155695D01*
X156576318Y-114154000D01*
X156576325Y-114153999D01*
X156601584Y-114148214D01*
X156672451Y-114152504D01*
X156729749Y-114194427D01*
X156755285Y-114260672D01*
X156754634Y-114287475D01*
X156746700Y-114347743D01*
X156741863Y-114384484D01*
X156740729Y-114393096D01*
X156758113Y-114550553D01*
X156760723Y-114557684D01*
X156760723Y-114557686D01*
X156806299Y-114682228D01*
X156812553Y-114699319D01*
X156900908Y-114830805D01*
X156906527Y-114835918D01*
X156906528Y-114835919D01*
X156915651Y-114844220D01*
X157018076Y-114937419D01*
X157157293Y-115013008D01*
X157310522Y-115053207D01*
X157394477Y-115054526D01*
X157461319Y-115055576D01*
X157461322Y-115055576D01*
X157468916Y-115055695D01*
X157623332Y-115020329D01*
X157677480Y-114993096D01*
X159140729Y-114993096D01*
X159158113Y-115150553D01*
X159212553Y-115299319D01*
X159300908Y-115430805D01*
X159306527Y-115435918D01*
X159306528Y-115435919D01*
X159317903Y-115446269D01*
X159418076Y-115537419D01*
X159557293Y-115613008D01*
X159710522Y-115653207D01*
X159794477Y-115654526D01*
X159861319Y-115655576D01*
X159861322Y-115655576D01*
X159868916Y-115655695D01*
X160023332Y-115620329D01*
X160093742Y-115584917D01*
X160158072Y-115552563D01*
X160158075Y-115552561D01*
X160164855Y-115549151D01*
X160170626Y-115544222D01*
X160170629Y-115544220D01*
X160279536Y-115451204D01*
X160279536Y-115451203D01*
X160285314Y-115446269D01*
X160377755Y-115317624D01*
X160436842Y-115170641D01*
X160459162Y-115013807D01*
X160459307Y-115000000D01*
X160440276Y-114842733D01*
X160384280Y-114694546D01*
X160375814Y-114682228D01*
X160298855Y-114570251D01*
X160298854Y-114570249D01*
X160294553Y-114563992D01*
X160176275Y-114458611D01*
X160168889Y-114454700D01*
X160091655Y-114413807D01*
X160036274Y-114384484D01*
X159882633Y-114345892D01*
X159875034Y-114345852D01*
X159875033Y-114345852D01*
X159809181Y-114345507D01*
X159724221Y-114345062D01*
X159716841Y-114346834D01*
X159716839Y-114346834D01*
X159577563Y-114380271D01*
X159577560Y-114380272D01*
X159570184Y-114382043D01*
X159429414Y-114454700D01*
X159310039Y-114558838D01*
X159218950Y-114688444D01*
X159161406Y-114836037D01*
X159160414Y-114843570D01*
X159160414Y-114843571D01*
X159145653Y-114955695D01*
X159140729Y-114993096D01*
X157677480Y-114993096D01*
X157693742Y-114984917D01*
X157758072Y-114952563D01*
X157758075Y-114952561D01*
X157764855Y-114949151D01*
X157770626Y-114944222D01*
X157770629Y-114944220D01*
X157879536Y-114851204D01*
X157879536Y-114851203D01*
X157885314Y-114846269D01*
X157977755Y-114717624D01*
X158036842Y-114570641D01*
X158053838Y-114451219D01*
X158058581Y-114417891D01*
X158058581Y-114417888D01*
X158059162Y-114413807D01*
X158059307Y-114400000D01*
X158046370Y-114293096D01*
X168440729Y-114293096D01*
X168446466Y-114345062D01*
X168453601Y-114409682D01*
X168458113Y-114450553D01*
X168460723Y-114457684D01*
X168460723Y-114457686D01*
X168504640Y-114577695D01*
X168512553Y-114599319D01*
X168516789Y-114605622D01*
X168516789Y-114605623D01*
X168572443Y-114688444D01*
X168600908Y-114730805D01*
X168606527Y-114735918D01*
X168606528Y-114735919D01*
X168617903Y-114746269D01*
X168718076Y-114837419D01*
X168857293Y-114913008D01*
X169010522Y-114953207D01*
X169094477Y-114954526D01*
X169161319Y-114955576D01*
X169161322Y-114955576D01*
X169168916Y-114955695D01*
X169323332Y-114920329D01*
X169393742Y-114884917D01*
X169458072Y-114852563D01*
X169458075Y-114852561D01*
X169464855Y-114849151D01*
X169470626Y-114844222D01*
X169470629Y-114844220D01*
X169579536Y-114751204D01*
X169579536Y-114751203D01*
X169585314Y-114746269D01*
X169677755Y-114617624D01*
X169736842Y-114470641D01*
X169749703Y-114380271D01*
X169758581Y-114317891D01*
X169758581Y-114317888D01*
X169759162Y-114313807D01*
X169759307Y-114300000D01*
X169740276Y-114142733D01*
X169684280Y-113994546D01*
X169663281Y-113963992D01*
X169598855Y-113870251D01*
X169598854Y-113870249D01*
X169594553Y-113863992D01*
X169588514Y-113858611D01*
X169529121Y-113805695D01*
X169476275Y-113758611D01*
X169468889Y-113754700D01*
X169342988Y-113688039D01*
X169342989Y-113688039D01*
X169336274Y-113684484D01*
X169182633Y-113645892D01*
X169175034Y-113645852D01*
X169175033Y-113645852D01*
X169109181Y-113645507D01*
X169024221Y-113645062D01*
X169016841Y-113646834D01*
X169016839Y-113646834D01*
X168877563Y-113680271D01*
X168877560Y-113680272D01*
X168870184Y-113682043D01*
X168729414Y-113754700D01*
X168610039Y-113858838D01*
X168518950Y-113988444D01*
X168498443Y-114041042D01*
X168469634Y-114114934D01*
X168461406Y-114136037D01*
X168460414Y-114143570D01*
X168460414Y-114143571D01*
X168444998Y-114260672D01*
X168440729Y-114293096D01*
X158046370Y-114293096D01*
X158040276Y-114242733D01*
X157984280Y-114094546D01*
X157920434Y-114001649D01*
X157898855Y-113970251D01*
X157898854Y-113970249D01*
X157894553Y-113963992D01*
X157776275Y-113858611D01*
X157636274Y-113784484D01*
X157482633Y-113745892D01*
X157475034Y-113745852D01*
X157475033Y-113745852D01*
X157409181Y-113745507D01*
X157324221Y-113745062D01*
X157299529Y-113750990D01*
X157228621Y-113747444D01*
X157170887Y-113706126D01*
X157144656Y-113640153D01*
X157145370Y-113610719D01*
X157158581Y-113517891D01*
X157158581Y-113517888D01*
X157159162Y-113513807D01*
X157159307Y-113500000D01*
X157140276Y-113342733D01*
X157084280Y-113194546D01*
X157056506Y-113154134D01*
X157014556Y-113093096D01*
X166590729Y-113093096D01*
X166597083Y-113150646D01*
X166602038Y-113195524D01*
X166608113Y-113250553D01*
X166610723Y-113257684D01*
X166610723Y-113257686D01*
X166641846Y-113342733D01*
X166662553Y-113399319D01*
X166666789Y-113405622D01*
X166666789Y-113405623D01*
X166725569Y-113493096D01*
X166750908Y-113530805D01*
X166756527Y-113535918D01*
X166756528Y-113535919D01*
X166811478Y-113585919D01*
X166868076Y-113637419D01*
X167007293Y-113713008D01*
X167160522Y-113753207D01*
X167244477Y-113754526D01*
X167311319Y-113755576D01*
X167311322Y-113755576D01*
X167318916Y-113755695D01*
X167473332Y-113720329D01*
X167552979Y-113680271D01*
X167608072Y-113652563D01*
X167608075Y-113652561D01*
X167614855Y-113649151D01*
X167620626Y-113644222D01*
X167620629Y-113644220D01*
X167729536Y-113551204D01*
X167729536Y-113551203D01*
X167735314Y-113546269D01*
X167827755Y-113417624D01*
X167886842Y-113270641D01*
X167904994Y-113143096D01*
X170040729Y-113143096D01*
X170045736Y-113188444D01*
X170054811Y-113270641D01*
X170058113Y-113300553D01*
X170060723Y-113307684D01*
X170060723Y-113307686D01*
X170103214Y-113423798D01*
X170112553Y-113449319D01*
X170116789Y-113455622D01*
X170116789Y-113455623D01*
X170163073Y-113524500D01*
X170200908Y-113580805D01*
X170206527Y-113585918D01*
X170206528Y-113585919D01*
X170299637Y-113670641D01*
X170318076Y-113687419D01*
X170457293Y-113763008D01*
X170610522Y-113803207D01*
X170694477Y-113804526D01*
X170761319Y-113805576D01*
X170761322Y-113805576D01*
X170768916Y-113805695D01*
X170923332Y-113770329D01*
X171033474Y-113714934D01*
X171058072Y-113702563D01*
X171058075Y-113702561D01*
X171064855Y-113699151D01*
X171070626Y-113694222D01*
X171070629Y-113694220D01*
X171179536Y-113601204D01*
X171179536Y-113601203D01*
X171185314Y-113596269D01*
X171277755Y-113467624D01*
X171336842Y-113320641D01*
X171347891Y-113243003D01*
X171358581Y-113167891D01*
X171358581Y-113167888D01*
X171359162Y-113163807D01*
X171359307Y-113150000D01*
X171340276Y-112992733D01*
X171284280Y-112844546D01*
X171267636Y-112820329D01*
X171198855Y-112720251D01*
X171198854Y-112720249D01*
X171194553Y-112713992D01*
X171182443Y-112703202D01*
X171158260Y-112681656D01*
X171076275Y-112608611D01*
X171068889Y-112604700D01*
X170942988Y-112538039D01*
X170942989Y-112538039D01*
X170936274Y-112534484D01*
X170782633Y-112495892D01*
X170775034Y-112495852D01*
X170775033Y-112495852D01*
X170709181Y-112495507D01*
X170624221Y-112495062D01*
X170616841Y-112496834D01*
X170616839Y-112496834D01*
X170477563Y-112530271D01*
X170477560Y-112530272D01*
X170470184Y-112532043D01*
X170329414Y-112604700D01*
X170210039Y-112708838D01*
X170118950Y-112838444D01*
X170101000Y-112884484D01*
X170071679Y-112959689D01*
X170061406Y-112986037D01*
X170060414Y-112993570D01*
X170060414Y-112993571D01*
X170046318Y-113100646D01*
X170040729Y-113143096D01*
X167904994Y-113143096D01*
X167908581Y-113117891D01*
X167908581Y-113117888D01*
X167909162Y-113113807D01*
X167909307Y-113100000D01*
X167890276Y-112942733D01*
X167856491Y-112853326D01*
X167838186Y-112804882D01*
X167832818Y-112734089D01*
X167866575Y-112671631D01*
X167928741Y-112637339D01*
X167999578Y-112642101D01*
X168040851Y-112667150D01*
X168046573Y-112672357D01*
X168081180Y-112703846D01*
X168118076Y-112737419D01*
X168257293Y-112813008D01*
X168410522Y-112853207D01*
X168494477Y-112854526D01*
X168561319Y-112855576D01*
X168561322Y-112855576D01*
X168568916Y-112855695D01*
X168723332Y-112820329D01*
X168799088Y-112782228D01*
X168858072Y-112752563D01*
X168858075Y-112752561D01*
X168864855Y-112749151D01*
X168870626Y-112744222D01*
X168870629Y-112744220D01*
X168979536Y-112651204D01*
X168979536Y-112651203D01*
X168985314Y-112646269D01*
X169077755Y-112517624D01*
X169136842Y-112370641D01*
X169142965Y-112327615D01*
X169158581Y-112217891D01*
X169158581Y-112217888D01*
X169159162Y-112213807D01*
X169159307Y-112200000D01*
X169140276Y-112042733D01*
X169084280Y-111894546D01*
X168994553Y-111763992D01*
X168876275Y-111658611D01*
X168868889Y-111654700D01*
X168742988Y-111588039D01*
X168742989Y-111588039D01*
X168736274Y-111584484D01*
X168582633Y-111545892D01*
X168575034Y-111545852D01*
X168575033Y-111545852D01*
X168509181Y-111545507D01*
X168424221Y-111545062D01*
X168416841Y-111546834D01*
X168416839Y-111546834D01*
X168277563Y-111580271D01*
X168277560Y-111580272D01*
X168270184Y-111582043D01*
X168129414Y-111654700D01*
X168010039Y-111758838D01*
X167918950Y-111888444D01*
X167861406Y-112036037D01*
X167860414Y-112043570D01*
X167860414Y-112043571D01*
X167846548Y-112148897D01*
X167840729Y-112193096D01*
X167858113Y-112350553D01*
X167860723Y-112357684D01*
X167860723Y-112357686D01*
X167910855Y-112494679D01*
X167915481Y-112565525D01*
X167881071Y-112627625D01*
X167818549Y-112661264D01*
X167747766Y-112655761D01*
X167708711Y-112632057D01*
X167631951Y-112563667D01*
X167631945Y-112563663D01*
X167626275Y-112558611D01*
X167618889Y-112554700D01*
X167535950Y-112510786D01*
X167486274Y-112484484D01*
X167332633Y-112445892D01*
X167325034Y-112445852D01*
X167325033Y-112445852D01*
X167259181Y-112445507D01*
X167174221Y-112445062D01*
X167166841Y-112446834D01*
X167166839Y-112446834D01*
X167027563Y-112480271D01*
X167027560Y-112480272D01*
X167020184Y-112482043D01*
X166879414Y-112554700D01*
X166760039Y-112658838D01*
X166668950Y-112788444D01*
X166611406Y-112936037D01*
X166610414Y-112943570D01*
X166610414Y-112943571D01*
X166593737Y-113070251D01*
X166590729Y-113093096D01*
X157014556Y-113093096D01*
X156998855Y-113070251D01*
X156998854Y-113070249D01*
X156994553Y-113063992D01*
X156906602Y-112985631D01*
X156878995Y-112961034D01*
X156841439Y-112900783D01*
X156842419Y-112829794D01*
X156881624Y-112770603D01*
X156949088Y-112741885D01*
X156955202Y-112741981D01*
X157109618Y-112706615D01*
X157194365Y-112663992D01*
X157244358Y-112638849D01*
X157244361Y-112638847D01*
X157251141Y-112635437D01*
X157256912Y-112630508D01*
X157256915Y-112630506D01*
X157365822Y-112537490D01*
X157365822Y-112537489D01*
X157371600Y-112532555D01*
X157464041Y-112403910D01*
X157523128Y-112256927D01*
X157533284Y-112185565D01*
X157544867Y-112104177D01*
X157544867Y-112104174D01*
X157545448Y-112100093D01*
X157545593Y-112086286D01*
X157526562Y-111929019D01*
X157470566Y-111780832D01*
X157380839Y-111650278D01*
X157262561Y-111544897D01*
X157255175Y-111540986D01*
X157129274Y-111474325D01*
X157129275Y-111474325D01*
X157122560Y-111470770D01*
X156968919Y-111432178D01*
X156961320Y-111432138D01*
X156961319Y-111432138D01*
X156895467Y-111431793D01*
X156810507Y-111431348D01*
X156803127Y-111433120D01*
X156803125Y-111433120D01*
X156663849Y-111466557D01*
X156663846Y-111466558D01*
X156656470Y-111468329D01*
X156515700Y-111540986D01*
X156396325Y-111645124D01*
X156305236Y-111774730D01*
X156302476Y-111781810D01*
X156260962Y-111888288D01*
X156247692Y-111922323D01*
X156246700Y-111929856D01*
X156246700Y-111929857D01*
X156228666Y-112066842D01*
X156227015Y-112079382D01*
X156233545Y-112138530D01*
X156241401Y-112209682D01*
X156244399Y-112236839D01*
X156298839Y-112385605D01*
X156303075Y-112391908D01*
X156303075Y-112391909D01*
X156375252Y-112499319D01*
X156387194Y-112517091D01*
X156392813Y-112522204D01*
X156392814Y-112522205D01*
X156504362Y-112623705D01*
X156502844Y-112625373D01*
X156539860Y-112672357D01*
X156546671Y-112743026D01*
X156514195Y-112806159D01*
X156452741Y-112841712D01*
X156437406Y-112844455D01*
X156431814Y-112845102D01*
X156424221Y-112845062D01*
X156416841Y-112846834D01*
X156416839Y-112846834D01*
X156277563Y-112880271D01*
X156277560Y-112880272D01*
X156270184Y-112882043D01*
X156129414Y-112954700D01*
X156010039Y-113058838D01*
X155918950Y-113188444D01*
X155916190Y-113195524D01*
X155867409Y-113320641D01*
X155861406Y-113336037D01*
X155860414Y-113343570D01*
X155860414Y-113343571D01*
X155843270Y-113473798D01*
X155840729Y-113493096D01*
X155559500Y-113493096D01*
X155559500Y-112980219D01*
X155553994Y-112927049D01*
X155548496Y-112900783D01*
X155543730Y-112878015D01*
X155543725Y-112877993D01*
X155543415Y-112876513D01*
X155543032Y-112875048D01*
X155543021Y-112875003D01*
X155540087Y-112863792D01*
X155542193Y-112792827D01*
X155580152Y-112736086D01*
X155679536Y-112651204D01*
X155679536Y-112651203D01*
X155685314Y-112646269D01*
X155777755Y-112517624D01*
X155836842Y-112370641D01*
X155842965Y-112327615D01*
X155858581Y-112217891D01*
X155858581Y-112217888D01*
X155859162Y-112213807D01*
X155859307Y-112200000D01*
X155840276Y-112042733D01*
X155784280Y-111894546D01*
X155694553Y-111763992D01*
X155576275Y-111658611D01*
X155568889Y-111654700D01*
X155442988Y-111588039D01*
X155442989Y-111588039D01*
X155436274Y-111584484D01*
X155282633Y-111545892D01*
X155275034Y-111545852D01*
X155275033Y-111545852D01*
X155209181Y-111545507D01*
X155124221Y-111545062D01*
X155116841Y-111546834D01*
X155116839Y-111546834D01*
X154977563Y-111580271D01*
X154977560Y-111580272D01*
X154970184Y-111582043D01*
X154829414Y-111654700D01*
X154710039Y-111758838D01*
X154618950Y-111888444D01*
X154561406Y-112036037D01*
X154560415Y-112043564D01*
X154559832Y-112045835D01*
X154523518Y-112106841D01*
X154459986Y-112138530D01*
X154437791Y-112140500D01*
X148985500Y-112140500D01*
X148917379Y-112120498D01*
X148870886Y-112066842D01*
X148859500Y-112014500D01*
X148859500Y-110599994D01*
X150340710Y-110599994D01*
X150343066Y-110617891D01*
X150347182Y-110649151D01*
X150359767Y-110744748D01*
X150415640Y-110879636D01*
X150504521Y-110995468D01*
X150511071Y-111000494D01*
X150511074Y-111000497D01*
X150613799Y-111079321D01*
X150620352Y-111084349D01*
X150755241Y-111140222D01*
X150899995Y-111159279D01*
X150908183Y-111158201D01*
X151036561Y-111141300D01*
X151044749Y-111140222D01*
X151179638Y-111084349D01*
X151186191Y-111079321D01*
X151288916Y-111000497D01*
X151288919Y-111000494D01*
X151295469Y-110995468D01*
X151384350Y-110879636D01*
X151440223Y-110744748D01*
X151452809Y-110649151D01*
X151456924Y-110617891D01*
X151459280Y-110599994D01*
X151451394Y-110540095D01*
X151441301Y-110463426D01*
X151441300Y-110463424D01*
X151440223Y-110455240D01*
X151384350Y-110320352D01*
X151295469Y-110204520D01*
X151288919Y-110199494D01*
X151288916Y-110199491D01*
X151186191Y-110120667D01*
X151186189Y-110120666D01*
X151179638Y-110115639D01*
X151125215Y-110093096D01*
X161540729Y-110093096D01*
X161543773Y-110120666D01*
X161552476Y-110199491D01*
X161558113Y-110250553D01*
X161560723Y-110257684D01*
X161560723Y-110257686D01*
X161583656Y-110320352D01*
X161612553Y-110399319D01*
X161700908Y-110530805D01*
X161706527Y-110535918D01*
X161706528Y-110535919D01*
X161796615Y-110617891D01*
X161818076Y-110637419D01*
X161957293Y-110713008D01*
X162110522Y-110753207D01*
X162194477Y-110754526D01*
X162261319Y-110755576D01*
X162261322Y-110755576D01*
X162268916Y-110755695D01*
X162423332Y-110720329D01*
X162493742Y-110684917D01*
X162558072Y-110652563D01*
X162558075Y-110652561D01*
X162564855Y-110649151D01*
X162570626Y-110644222D01*
X162570629Y-110644220D01*
X162630487Y-110593096D01*
X164041226Y-110593096D01*
X164058610Y-110750553D01*
X164061220Y-110757684D01*
X164061220Y-110757686D01*
X164103056Y-110872008D01*
X164113050Y-110899319D01*
X164117286Y-110905622D01*
X164117286Y-110905623D01*
X164177660Y-110995468D01*
X164201405Y-111030805D01*
X164207024Y-111035918D01*
X164207025Y-111035919D01*
X164218400Y-111046269D01*
X164318573Y-111137419D01*
X164457790Y-111213008D01*
X164611019Y-111253207D01*
X164694974Y-111254526D01*
X164761816Y-111255576D01*
X164761819Y-111255576D01*
X164769413Y-111255695D01*
X164923829Y-111220329D01*
X165045215Y-111159279D01*
X165058569Y-111152563D01*
X165058572Y-111152561D01*
X165065352Y-111149151D01*
X165071123Y-111144222D01*
X165071126Y-111144220D01*
X165180033Y-111051204D01*
X165180033Y-111051203D01*
X165185811Y-111046269D01*
X165278252Y-110917624D01*
X165337339Y-110770641D01*
X165346057Y-110709385D01*
X165359078Y-110617891D01*
X165359078Y-110617888D01*
X165359659Y-110613807D01*
X165359804Y-110600000D01*
X165358813Y-110591806D01*
X165352555Y-110540095D01*
X165340773Y-110442733D01*
X165284777Y-110294546D01*
X165249353Y-110243003D01*
X165199352Y-110170251D01*
X165199351Y-110170249D01*
X165195050Y-110163992D01*
X165076772Y-110058611D01*
X165069386Y-110054700D01*
X164943485Y-109988039D01*
X164943486Y-109988039D01*
X164936771Y-109984484D01*
X164783130Y-109945892D01*
X164775531Y-109945852D01*
X164775530Y-109945852D01*
X164709678Y-109945507D01*
X164624718Y-109945062D01*
X164617338Y-109946834D01*
X164617336Y-109946834D01*
X164478060Y-109980271D01*
X164478057Y-109980272D01*
X164470681Y-109982043D01*
X164329911Y-110054700D01*
X164210536Y-110158838D01*
X164119447Y-110288444D01*
X164116687Y-110295524D01*
X164066675Y-110423798D01*
X164061903Y-110436037D01*
X164060911Y-110443570D01*
X164060911Y-110443571D01*
X164047391Y-110546269D01*
X164041226Y-110593096D01*
X162630487Y-110593096D01*
X162679536Y-110551204D01*
X162679536Y-110551203D01*
X162685314Y-110546269D01*
X162777755Y-110417624D01*
X162836842Y-110270641D01*
X162845320Y-110211071D01*
X162858581Y-110117891D01*
X162858581Y-110117888D01*
X162859162Y-110113807D01*
X162859307Y-110100000D01*
X162840276Y-109942733D01*
X162784280Y-109794546D01*
X162730927Y-109716916D01*
X162698855Y-109670251D01*
X162698854Y-109670249D01*
X162694553Y-109663992D01*
X162576275Y-109558611D01*
X162568889Y-109554700D01*
X162450433Y-109491981D01*
X162436274Y-109484484D01*
X162282633Y-109445892D01*
X162275034Y-109445852D01*
X162275033Y-109445852D01*
X162209181Y-109445507D01*
X162124221Y-109445062D01*
X162116841Y-109446834D01*
X162116839Y-109446834D01*
X161977563Y-109480271D01*
X161977560Y-109480272D01*
X161970184Y-109482043D01*
X161829414Y-109554700D01*
X161710039Y-109658838D01*
X161618950Y-109788444D01*
X161561406Y-109936037D01*
X161560414Y-109943570D01*
X161560414Y-109943571D01*
X161544604Y-110063664D01*
X161540729Y-110093096D01*
X151125215Y-110093096D01*
X151044749Y-110059766D01*
X151006269Y-110054700D01*
X150908183Y-110041787D01*
X150899995Y-110040709D01*
X150891807Y-110041787D01*
X150763427Y-110058688D01*
X150763425Y-110058689D01*
X150755241Y-110059766D01*
X150707425Y-110079572D01*
X150627981Y-110112479D01*
X150627979Y-110112480D01*
X150620353Y-110115639D01*
X150504521Y-110204520D01*
X150415640Y-110320352D01*
X150359767Y-110455240D01*
X150358690Y-110463424D01*
X150358689Y-110463426D01*
X150348596Y-110540095D01*
X150340710Y-110599994D01*
X148859500Y-110599994D01*
X148859500Y-108385500D01*
X148879502Y-108317379D01*
X148933158Y-108270886D01*
X148985500Y-108259500D01*
X150293694Y-108259500D01*
X150361815Y-108279502D01*
X150408308Y-108333158D01*
X150418412Y-108403432D01*
X150410103Y-108433718D01*
X150372469Y-108524574D01*
X150359767Y-108555240D01*
X150340710Y-108699994D01*
X150341788Y-108708182D01*
X150355694Y-108813807D01*
X150359767Y-108844748D01*
X150362926Y-108852374D01*
X150408797Y-108963115D01*
X150415640Y-108979636D01*
X150420667Y-108986187D01*
X150480059Y-109063588D01*
X150504521Y-109095468D01*
X150511071Y-109100494D01*
X150511074Y-109100497D01*
X150613799Y-109179321D01*
X150620352Y-109184349D01*
X150755241Y-109240222D01*
X150899995Y-109259279D01*
X150908183Y-109258201D01*
X151036561Y-109241300D01*
X151044749Y-109240222D01*
X151179638Y-109184349D01*
X151186191Y-109179321D01*
X151288916Y-109100497D01*
X151288919Y-109100494D01*
X151295469Y-109095468D01*
X151319932Y-109063588D01*
X151379323Y-108986187D01*
X151384350Y-108979636D01*
X151391194Y-108963115D01*
X151437064Y-108852374D01*
X151440223Y-108844748D01*
X151444297Y-108813807D01*
X151447023Y-108793096D01*
X155640729Y-108793096D01*
X155645528Y-108836562D01*
X155657250Y-108942733D01*
X155658113Y-108950553D01*
X155660723Y-108957684D01*
X155660723Y-108957686D01*
X155707520Y-109085565D01*
X155712553Y-109099319D01*
X155716789Y-109105622D01*
X155716789Y-109105623D01*
X155794827Y-109221755D01*
X155800908Y-109230805D01*
X155806526Y-109235917D01*
X155806528Y-109235919D01*
X155852440Y-109277695D01*
X155918076Y-109337419D01*
X156057293Y-109413008D01*
X156210522Y-109453207D01*
X156294477Y-109454526D01*
X156361319Y-109455576D01*
X156361322Y-109455576D01*
X156368916Y-109455695D01*
X156523332Y-109420329D01*
X156608831Y-109377328D01*
X156658072Y-109352563D01*
X156658075Y-109352561D01*
X156664855Y-109349151D01*
X156670626Y-109344222D01*
X156670629Y-109344220D01*
X156779536Y-109251204D01*
X156779536Y-109251203D01*
X156785314Y-109246269D01*
X156877755Y-109117624D01*
X156936842Y-108970641D01*
X156959162Y-108813807D01*
X156959307Y-108800000D01*
X156940276Y-108642733D01*
X156884280Y-108494546D01*
X156823793Y-108406537D01*
X156798855Y-108370251D01*
X156798854Y-108370249D01*
X156794553Y-108363992D01*
X156676275Y-108258611D01*
X156668889Y-108254700D01*
X156542988Y-108188039D01*
X156542989Y-108188039D01*
X156536274Y-108184484D01*
X156382633Y-108145892D01*
X156375034Y-108145852D01*
X156375033Y-108145852D01*
X156309181Y-108145507D01*
X156224221Y-108145062D01*
X156216841Y-108146834D01*
X156216839Y-108146834D01*
X156077563Y-108180271D01*
X156077560Y-108180272D01*
X156070184Y-108182043D01*
X155929414Y-108254700D01*
X155810039Y-108358838D01*
X155718950Y-108488444D01*
X155661406Y-108636037D01*
X155660414Y-108643570D01*
X155660414Y-108643571D01*
X155642160Y-108782228D01*
X155640729Y-108793096D01*
X151447023Y-108793096D01*
X151458202Y-108708182D01*
X151459280Y-108699994D01*
X151440223Y-108555240D01*
X151427521Y-108524574D01*
X151389887Y-108433718D01*
X151382298Y-108363129D01*
X151414077Y-108299642D01*
X151475135Y-108263414D01*
X151506296Y-108259500D01*
X153376923Y-108259500D01*
X153378868Y-108259378D01*
X153378879Y-108259378D01*
X153407298Y-108257600D01*
X153407299Y-108257600D01*
X153409264Y-108257477D01*
X153411197Y-108257234D01*
X153411210Y-108257233D01*
X153434001Y-108254370D01*
X153434002Y-108254370D01*
X153440425Y-108253563D01*
X153506447Y-108230932D01*
X153534378Y-108221358D01*
X153534380Y-108221357D01*
X153540498Y-108219260D01*
X153601556Y-108183033D01*
X153611589Y-108175798D01*
X153631773Y-108161244D01*
X153631776Y-108161242D01*
X153639079Y-108155975D01*
X153644606Y-108148860D01*
X153651090Y-108142603D01*
X153652825Y-108144401D01*
X153699607Y-108110671D01*
X153770502Y-108106877D01*
X153789734Y-108113088D01*
X153845575Y-108136218D01*
X153855241Y-108140222D01*
X153863429Y-108141300D01*
X153898309Y-108145892D01*
X153999995Y-108159279D01*
X154008183Y-108158201D01*
X154025092Y-108155975D01*
X154101681Y-108145892D01*
X154136561Y-108141300D01*
X154144749Y-108140222D01*
X154154416Y-108136218D01*
X154212151Y-108112303D01*
X154282740Y-108104714D01*
X154346227Y-108136493D01*
X154355596Y-108146202D01*
X154358829Y-108149934D01*
X154392118Y-108182056D01*
X154481837Y-108228987D01*
X154487773Y-108230730D01*
X154545635Y-108247720D01*
X154545639Y-108247721D01*
X154549958Y-108248989D01*
X154554406Y-108249629D01*
X154554413Y-108249630D01*
X154618619Y-108258861D01*
X154618626Y-108258861D01*
X154623067Y-108259500D01*
X155174000Y-108259500D01*
X155177346Y-108259140D01*
X155177351Y-108259140D01*
X155225795Y-108253932D01*
X155225801Y-108253931D01*
X155229159Y-108253570D01*
X155281501Y-108242184D01*
X155308291Y-108234834D01*
X155315142Y-108230933D01*
X155315144Y-108230932D01*
X155390899Y-108187794D01*
X155396278Y-108184731D01*
X155425651Y-108159279D01*
X155447811Y-108140078D01*
X155447816Y-108140073D01*
X155449934Y-108138238D01*
X155482056Y-108104949D01*
X155528987Y-108015230D01*
X155548989Y-107947109D01*
X155559500Y-107874000D01*
X155559500Y-107118508D01*
X160085882Y-107118508D01*
X160103266Y-107275965D01*
X160157706Y-107424731D01*
X160246061Y-107556217D01*
X160251680Y-107561330D01*
X160251681Y-107561331D01*
X160263056Y-107571681D01*
X160363229Y-107662831D01*
X160502446Y-107738420D01*
X160509788Y-107740346D01*
X160509790Y-107740347D01*
X160637359Y-107773814D01*
X160698175Y-107810448D01*
X160729530Y-107874145D01*
X160721471Y-107944683D01*
X160688216Y-107990638D01*
X160615766Y-108053841D01*
X160615762Y-108053846D01*
X160610039Y-108058838D01*
X160518950Y-108188444D01*
X160493417Y-108253932D01*
X160475476Y-108299950D01*
X160461406Y-108336037D01*
X160460414Y-108343570D01*
X160460414Y-108343571D01*
X160441726Y-108485524D01*
X160440729Y-108493096D01*
X160446748Y-108547611D01*
X160457250Y-108642733D01*
X160458113Y-108650553D01*
X160460723Y-108657684D01*
X160460723Y-108657686D01*
X160507520Y-108785565D01*
X160512553Y-108799319D01*
X160516789Y-108805622D01*
X160516789Y-108805623D01*
X160548205Y-108852374D01*
X160600908Y-108930805D01*
X160606527Y-108935918D01*
X160606528Y-108935919D01*
X160692318Y-109013981D01*
X160718076Y-109037419D01*
X160857293Y-109113008D01*
X161010522Y-109153207D01*
X161094477Y-109154526D01*
X161161319Y-109155576D01*
X161161322Y-109155576D01*
X161168916Y-109155695D01*
X161323332Y-109120329D01*
X161377480Y-109093096D01*
X168290729Y-109093096D01*
X168297153Y-109151279D01*
X168306959Y-109240099D01*
X168308113Y-109250553D01*
X168310723Y-109257684D01*
X168310723Y-109257686D01*
X168358722Y-109388849D01*
X168362553Y-109399319D01*
X168366789Y-109405622D01*
X168366789Y-109405623D01*
X168423680Y-109490285D01*
X168450908Y-109530805D01*
X168456527Y-109535918D01*
X168456528Y-109535919D01*
X168482651Y-109559689D01*
X168568076Y-109637419D01*
X168707293Y-109713008D01*
X168860522Y-109753207D01*
X168944477Y-109754526D01*
X169011319Y-109755576D01*
X169011322Y-109755576D01*
X169018916Y-109755695D01*
X169173332Y-109720329D01*
X169272902Y-109670251D01*
X169308072Y-109652563D01*
X169308075Y-109652561D01*
X169314855Y-109649151D01*
X169320626Y-109644222D01*
X169320629Y-109644220D01*
X169429536Y-109551204D01*
X169429536Y-109551203D01*
X169435314Y-109546269D01*
X169527755Y-109417624D01*
X169586842Y-109270641D01*
X169603829Y-109151279D01*
X169608581Y-109117891D01*
X169608581Y-109117888D01*
X169609162Y-109113807D01*
X169609307Y-109100000D01*
X169590276Y-108942733D01*
X169534280Y-108794546D01*
X169533283Y-108793096D01*
X174040729Y-108793096D01*
X174045528Y-108836562D01*
X174057250Y-108942733D01*
X174058113Y-108950553D01*
X174060723Y-108957684D01*
X174060723Y-108957686D01*
X174107520Y-109085565D01*
X174112553Y-109099319D01*
X174116789Y-109105622D01*
X174116789Y-109105623D01*
X174194827Y-109221755D01*
X174200908Y-109230805D01*
X174206526Y-109235917D01*
X174206528Y-109235919D01*
X174252440Y-109277695D01*
X174318076Y-109337419D01*
X174457293Y-109413008D01*
X174610522Y-109453207D01*
X174694477Y-109454526D01*
X174761319Y-109455576D01*
X174761322Y-109455576D01*
X174768916Y-109455695D01*
X174923332Y-109420329D01*
X175008831Y-109377328D01*
X175058072Y-109352563D01*
X175058075Y-109352561D01*
X175064855Y-109349151D01*
X175070626Y-109344222D01*
X175070629Y-109344220D01*
X175179536Y-109251204D01*
X175179536Y-109251203D01*
X175185314Y-109246269D01*
X175196601Y-109230561D01*
X175252595Y-109186915D01*
X175323298Y-109180469D01*
X175386262Y-109213272D01*
X175394301Y-109221755D01*
X175396671Y-109224500D01*
X175400908Y-109230805D01*
X175406526Y-109235917D01*
X175414314Y-109243003D01*
X175518076Y-109337419D01*
X175657293Y-109413008D01*
X175810522Y-109453207D01*
X175894477Y-109454526D01*
X175961319Y-109455576D01*
X175961322Y-109455576D01*
X175968916Y-109455695D01*
X176123332Y-109420329D01*
X176208831Y-109377328D01*
X176258072Y-109352563D01*
X176258075Y-109352561D01*
X176264855Y-109349151D01*
X176270626Y-109344222D01*
X176270629Y-109344220D01*
X176358984Y-109268757D01*
X176423774Y-109239726D01*
X176493974Y-109250331D01*
X176525614Y-109271374D01*
X176638075Y-109373705D01*
X176777292Y-109449294D01*
X176930521Y-109489493D01*
X177014476Y-109490812D01*
X177081318Y-109491862D01*
X177081321Y-109491862D01*
X177088915Y-109491981D01*
X177243331Y-109456615D01*
X177320857Y-109417624D01*
X177378071Y-109388849D01*
X177378074Y-109388847D01*
X177384854Y-109385437D01*
X177390625Y-109380508D01*
X177390628Y-109380506D01*
X177499535Y-109287490D01*
X177499535Y-109287489D01*
X177505313Y-109282555D01*
X177597754Y-109153910D01*
X177656841Y-109006927D01*
X177679161Y-108850093D01*
X177679306Y-108836286D01*
X177660275Y-108679019D01*
X177604279Y-108530832D01*
X177583089Y-108500000D01*
X177518854Y-108406537D01*
X177518853Y-108406535D01*
X177514552Y-108400278D01*
X177497966Y-108385500D01*
X177441993Y-108335631D01*
X177396274Y-108294897D01*
X177388888Y-108290986D01*
X177329421Y-108259500D01*
X177256273Y-108220770D01*
X177102632Y-108182178D01*
X177095033Y-108182138D01*
X177095032Y-108182138D01*
X177029180Y-108181793D01*
X176944220Y-108181348D01*
X176936840Y-108183120D01*
X176936838Y-108183120D01*
X176797562Y-108216557D01*
X176797559Y-108216558D01*
X176790183Y-108218329D01*
X176649413Y-108290986D01*
X176643696Y-108295973D01*
X176643689Y-108295978D01*
X176562734Y-108366601D01*
X176498252Y-108396310D01*
X176427945Y-108386441D01*
X176395757Y-108362641D01*
X176394553Y-108363992D01*
X176342235Y-108317379D01*
X176276275Y-108258611D01*
X176268889Y-108254700D01*
X176142988Y-108188039D01*
X176142989Y-108188039D01*
X176136274Y-108184484D01*
X175982633Y-108145892D01*
X175975034Y-108145852D01*
X175975033Y-108145852D01*
X175909181Y-108145507D01*
X175824221Y-108145062D01*
X175816841Y-108146834D01*
X175816839Y-108146834D01*
X175677563Y-108180271D01*
X175677560Y-108180272D01*
X175670184Y-108182043D01*
X175529414Y-108254700D01*
X175410039Y-108358838D01*
X175405672Y-108365051D01*
X175405668Y-108365056D01*
X175403542Y-108368081D01*
X175401430Y-108369763D01*
X175400589Y-108370697D01*
X175400433Y-108370557D01*
X175348007Y-108412311D01*
X175277375Y-108419496D01*
X175214071Y-108387353D01*
X175204115Y-108375740D01*
X175203878Y-108375949D01*
X175198855Y-108370251D01*
X175194553Y-108363992D01*
X175076275Y-108258611D01*
X175068889Y-108254700D01*
X174942988Y-108188039D01*
X174942989Y-108188039D01*
X174936274Y-108184484D01*
X174782633Y-108145892D01*
X174775034Y-108145852D01*
X174775033Y-108145852D01*
X174709181Y-108145507D01*
X174624221Y-108145062D01*
X174616841Y-108146834D01*
X174616839Y-108146834D01*
X174477563Y-108180271D01*
X174477560Y-108180272D01*
X174470184Y-108182043D01*
X174329414Y-108254700D01*
X174210039Y-108358838D01*
X174118950Y-108488444D01*
X174061406Y-108636037D01*
X174060414Y-108643570D01*
X174060414Y-108643571D01*
X174042160Y-108782228D01*
X174040729Y-108793096D01*
X169533283Y-108793096D01*
X169474924Y-108708182D01*
X169448855Y-108670251D01*
X169448854Y-108670249D01*
X169444553Y-108663992D01*
X169326275Y-108558611D01*
X169318889Y-108554700D01*
X169273810Y-108530832D01*
X169186274Y-108484484D01*
X169032633Y-108445892D01*
X169025034Y-108445852D01*
X169025033Y-108445852D01*
X168959181Y-108445507D01*
X168874221Y-108445062D01*
X168866841Y-108446834D01*
X168866839Y-108446834D01*
X168727563Y-108480271D01*
X168727560Y-108480272D01*
X168720184Y-108482043D01*
X168579414Y-108554700D01*
X168460039Y-108658838D01*
X168368950Y-108788444D01*
X168311406Y-108936037D01*
X168310414Y-108943570D01*
X168310414Y-108943571D01*
X168294614Y-109063588D01*
X168290729Y-109093096D01*
X161377480Y-109093096D01*
X161393742Y-109084917D01*
X161458072Y-109052563D01*
X161458075Y-109052561D01*
X161464855Y-109049151D01*
X161470626Y-109044222D01*
X161470629Y-109044220D01*
X161579536Y-108951204D01*
X161579536Y-108951203D01*
X161585314Y-108946269D01*
X161677755Y-108817624D01*
X161736842Y-108670641D01*
X161752067Y-108563664D01*
X161758581Y-108517891D01*
X161758581Y-108517888D01*
X161759162Y-108513807D01*
X161759307Y-108500000D01*
X161740276Y-108342733D01*
X161684280Y-108194546D01*
X161650271Y-108145062D01*
X161598855Y-108070251D01*
X161598854Y-108070249D01*
X161594553Y-108063992D01*
X161476275Y-107958611D01*
X161468889Y-107954700D01*
X161342988Y-107888039D01*
X161342989Y-107888039D01*
X161336274Y-107884484D01*
X161328911Y-107882635D01*
X161328907Y-107882633D01*
X161238147Y-107859836D01*
X161208266Y-107852331D01*
X161147071Y-107816336D01*
X161115050Y-107752971D01*
X161122370Y-107682353D01*
X161157131Y-107634316D01*
X161224689Y-107576616D01*
X161224689Y-107576615D01*
X161230467Y-107571681D01*
X161322908Y-107443036D01*
X161381995Y-107296053D01*
X161404315Y-107139219D01*
X161404460Y-107125412D01*
X161385429Y-106968145D01*
X161329433Y-106819958D01*
X161239706Y-106689404D01*
X161121428Y-106584023D01*
X161114042Y-106580112D01*
X160988141Y-106513451D01*
X160988142Y-106513451D01*
X160981427Y-106509896D01*
X160827786Y-106471304D01*
X160820187Y-106471264D01*
X160820186Y-106471264D01*
X160754334Y-106470919D01*
X160669374Y-106470474D01*
X160661994Y-106472246D01*
X160661992Y-106472246D01*
X160522716Y-106505683D01*
X160522713Y-106505684D01*
X160515337Y-106507455D01*
X160374567Y-106580112D01*
X160255192Y-106684250D01*
X160164103Y-106813856D01*
X160106559Y-106961449D01*
X160085882Y-107118508D01*
X155559500Y-107118508D01*
X155559500Y-105943096D01*
X168190729Y-105943096D01*
X168208113Y-106100553D01*
X168262553Y-106249319D01*
X168350908Y-106380805D01*
X168356527Y-106385918D01*
X168356528Y-106385919D01*
X168450322Y-106471264D01*
X168468076Y-106487419D01*
X168607293Y-106563008D01*
X168760522Y-106603207D01*
X168844477Y-106604526D01*
X168911319Y-106605576D01*
X168911322Y-106605576D01*
X168918916Y-106605695D01*
X169073332Y-106570329D01*
X169143742Y-106534917D01*
X169208072Y-106502563D01*
X169208075Y-106502561D01*
X169214855Y-106499151D01*
X169220626Y-106494222D01*
X169220629Y-106494220D01*
X169329536Y-106401204D01*
X169329536Y-106401203D01*
X169335314Y-106396269D01*
X169427755Y-106267624D01*
X169486842Y-106120641D01*
X169509162Y-105963807D01*
X169509307Y-105950000D01*
X169490276Y-105792733D01*
X169434280Y-105644546D01*
X169344553Y-105513992D01*
X169226275Y-105408611D01*
X169218889Y-105404700D01*
X169092988Y-105338039D01*
X169092989Y-105338039D01*
X169086274Y-105334484D01*
X168932633Y-105295892D01*
X168925034Y-105295852D01*
X168925033Y-105295852D01*
X168859181Y-105295507D01*
X168774221Y-105295062D01*
X168766841Y-105296834D01*
X168766839Y-105296834D01*
X168627563Y-105330271D01*
X168627560Y-105330272D01*
X168620184Y-105332043D01*
X168479414Y-105404700D01*
X168360039Y-105508838D01*
X168268950Y-105638444D01*
X168211406Y-105786037D01*
X168190729Y-105943096D01*
X155559500Y-105943096D01*
X155559500Y-101993096D01*
X158140729Y-101993096D01*
X158158113Y-102150553D01*
X158160723Y-102157684D01*
X158160723Y-102157686D01*
X158184917Y-102223798D01*
X158212553Y-102299319D01*
X158300908Y-102430805D01*
X158306527Y-102435918D01*
X158306528Y-102435919D01*
X158312158Y-102441042D01*
X158418076Y-102537419D01*
X158557293Y-102613008D01*
X158710522Y-102653207D01*
X158794477Y-102654526D01*
X158861319Y-102655576D01*
X158861322Y-102655576D01*
X158868916Y-102655695D01*
X159023332Y-102620329D01*
X159093742Y-102584917D01*
X159158072Y-102552563D01*
X159158075Y-102552561D01*
X159164855Y-102549151D01*
X159170626Y-102544222D01*
X159170629Y-102544220D01*
X159279536Y-102451204D01*
X159279536Y-102451203D01*
X159285314Y-102446269D01*
X159377755Y-102317624D01*
X159436842Y-102170641D01*
X159452917Y-102057686D01*
X159458581Y-102017891D01*
X159458581Y-102017888D01*
X159459162Y-102013807D01*
X159459307Y-102000000D01*
X159446370Y-101893096D01*
X161240729Y-101893096D01*
X161249421Y-101971825D01*
X161253601Y-102009682D01*
X161258113Y-102050553D01*
X161260723Y-102057684D01*
X161260723Y-102057686D01*
X161304640Y-102177695D01*
X161312553Y-102199319D01*
X161400908Y-102330805D01*
X161406527Y-102335918D01*
X161406528Y-102335919D01*
X161417903Y-102346269D01*
X161518076Y-102437419D01*
X161657293Y-102513008D01*
X161810522Y-102553207D01*
X161894477Y-102554526D01*
X161961319Y-102555576D01*
X161961322Y-102555576D01*
X161968916Y-102555695D01*
X162123332Y-102520329D01*
X162193742Y-102484917D01*
X162258072Y-102452563D01*
X162258075Y-102452561D01*
X162264855Y-102449151D01*
X162270626Y-102444222D01*
X162270629Y-102444220D01*
X162379536Y-102351204D01*
X162379536Y-102351203D01*
X162385314Y-102346269D01*
X162477755Y-102217624D01*
X162536842Y-102070641D01*
X162559162Y-101913807D01*
X162559307Y-101900000D01*
X162540276Y-101742733D01*
X162484280Y-101594546D01*
X162463281Y-101563992D01*
X162398855Y-101470251D01*
X162398854Y-101470249D01*
X162394553Y-101463992D01*
X162388514Y-101458611D01*
X162358260Y-101431656D01*
X162276275Y-101358611D01*
X162268889Y-101354700D01*
X162142988Y-101288039D01*
X162142989Y-101288039D01*
X162136274Y-101284484D01*
X161982633Y-101245892D01*
X161975034Y-101245852D01*
X161975033Y-101245852D01*
X161909181Y-101245507D01*
X161824221Y-101245062D01*
X161816841Y-101246834D01*
X161816839Y-101246834D01*
X161677563Y-101280271D01*
X161677560Y-101280272D01*
X161670184Y-101282043D01*
X161529414Y-101354700D01*
X161410039Y-101458838D01*
X161318950Y-101588444D01*
X161316190Y-101595524D01*
X161277583Y-101694546D01*
X161261406Y-101736037D01*
X161260414Y-101743570D01*
X161260414Y-101743571D01*
X161246367Y-101850273D01*
X161240729Y-101893096D01*
X159446370Y-101893096D01*
X159440276Y-101842733D01*
X159384280Y-101694546D01*
X159320434Y-101601649D01*
X159298855Y-101570251D01*
X159298854Y-101570249D01*
X159294553Y-101563992D01*
X159176275Y-101458611D01*
X159168889Y-101454700D01*
X159042988Y-101388039D01*
X159042989Y-101388039D01*
X159036274Y-101384484D01*
X158882633Y-101345892D01*
X158875034Y-101345852D01*
X158875033Y-101345852D01*
X158809181Y-101345507D01*
X158724221Y-101345062D01*
X158716841Y-101346834D01*
X158716839Y-101346834D01*
X158577563Y-101380271D01*
X158577560Y-101380272D01*
X158570184Y-101382043D01*
X158429414Y-101454700D01*
X158310039Y-101558838D01*
X158218950Y-101688444D01*
X158161406Y-101836037D01*
X158160414Y-101843570D01*
X158160414Y-101843571D01*
X158151711Y-101909682D01*
X158140729Y-101993096D01*
X155559500Y-101993096D01*
X155559500Y-100380500D01*
X155579502Y-100312379D01*
X155633158Y-100265886D01*
X155685500Y-100254500D01*
X164559169Y-100254500D01*
X164627290Y-100274502D01*
G37*
%TD.AperFunction*%
%TD*%
M02*
