%TF.GenerationSoftware,KiCad,Pcbnew,(6.0.6)*%
%TF.CreationDate,2022-08-13T21:50:17-05:00*%
%TF.ProjectId,usb-led-controller,7573622d-6c65-4642-9d63-6f6e74726f6c,rev?*%
%TF.SameCoordinates,Original*%
%TF.FileFunction,Soldermask,Top*%
%TF.FilePolarity,Negative*%
%FSLAX46Y46*%
G04 Gerber Fmt 4.6, Leading zero omitted, Abs format (unit mm)*
G04 Created by KiCad (PCBNEW (6.0.6)) date 2022-08-13 21:50:17*
%MOMM*%
%LPD*%
G01*
G04 APERTURE LIST*
G04 Aperture macros list*
%AMRoundRect*
0 Rectangle with rounded corners*
0 $1 Rounding radius*
0 $2 $3 $4 $5 $6 $7 $8 $9 X,Y pos of 4 corners*
0 Add a 4 corners polygon primitive as box body*
4,1,4,$2,$3,$4,$5,$6,$7,$8,$9,$2,$3,0*
0 Add four circle primitives for the rounded corners*
1,1,$1+$1,$2,$3*
1,1,$1+$1,$4,$5*
1,1,$1+$1,$6,$7*
1,1,$1+$1,$8,$9*
0 Add four rect primitives between the rounded corners*
20,1,$1+$1,$2,$3,$4,$5,0*
20,1,$1+$1,$4,$5,$6,$7,0*
20,1,$1+$1,$6,$7,$8,$9,0*
20,1,$1+$1,$8,$9,$2,$3,0*%
G04 Aperture macros list end*
%ADD10RoundRect,0.190000X0.140000X0.170000X-0.140000X0.170000X-0.140000X-0.170000X0.140000X-0.170000X0*%
%ADD11RoundRect,0.050000X-0.510000X-1.585000X0.510000X-1.585000X0.510000X1.585000X-0.510000X1.585000X0*%
%ADD12RoundRect,0.197500X-0.147500X-0.172500X0.147500X-0.172500X0.147500X0.172500X-0.147500X0.172500X0*%
%ADD13RoundRect,0.050000X-0.200000X0.325000X-0.200000X-0.325000X0.200000X-0.325000X0.200000X0.325000X0*%
%ADD14C,3.300000*%
%ADD15RoundRect,0.050000X0.187500X-0.250000X0.187500X0.250000X-0.187500X0.250000X-0.187500X-0.250000X0*%
%ADD16RoundRect,0.050000X0.150000X-0.325000X0.150000X0.325000X-0.150000X0.325000X-0.150000X-0.325000X0*%
%ADD17RoundRect,0.190000X0.170000X-0.140000X0.170000X0.140000X-0.170000X0.140000X-0.170000X-0.140000X0*%
%ADD18RoundRect,0.185000X0.135000X0.185000X-0.135000X0.185000X-0.135000X-0.185000X0.135000X-0.185000X0*%
%ADD19RoundRect,0.050000X1.250000X1.150000X-1.250000X1.150000X-1.250000X-1.150000X1.250000X-1.150000X0*%
%ADD20RoundRect,0.300000X0.312500X1.450000X-0.312500X1.450000X-0.312500X-1.450000X0.312500X-1.450000X0*%
%ADD21RoundRect,0.050000X-0.170000X0.350000X-0.170000X-0.350000X0.170000X-0.350000X0.170000X0.350000X0*%
%ADD22RoundRect,0.050000X0.510000X1.585000X-0.510000X1.585000X-0.510000X-1.585000X0.510000X-1.585000X0*%
%ADD23RoundRect,0.197500X0.172500X-0.147500X0.172500X0.147500X-0.172500X0.147500X-0.172500X-0.147500X0*%
%ADD24RoundRect,0.275000X-0.225000X-0.250000X0.225000X-0.250000X0.225000X0.250000X-0.225000X0.250000X0*%
%ADD25RoundRect,0.197500X0.147500X0.172500X-0.147500X0.172500X-0.147500X-0.172500X0.147500X-0.172500X0*%
%ADD26RoundRect,0.050000X0.800000X0.275000X-0.800000X0.275000X-0.800000X-0.275000X0.800000X-0.275000X0*%
%ADD27RoundRect,0.050000X-0.275000X0.800000X-0.275000X-0.800000X0.275000X-0.800000X0.275000X0.800000X0*%
%ADD28RoundRect,0.185000X-0.135000X-0.185000X0.135000X-0.185000X0.135000X0.185000X-0.135000X0.185000X0*%
%ADD29RoundRect,0.050000X0.200000X-0.325000X0.200000X0.325000X-0.200000X0.325000X-0.200000X-0.325000X0*%
%ADD30RoundRect,0.185000X0.185000X-0.135000X0.185000X0.135000X-0.185000X0.135000X-0.185000X-0.135000X0*%
%ADD31C,1.600000*%
%ADD32RoundRect,0.050000X-0.380000X-1.200000X0.380000X-1.200000X0.380000X1.200000X-0.380000X1.200000X0*%
%ADD33RoundRect,0.185000X-0.185000X0.135000X-0.185000X-0.135000X0.185000X-0.135000X0.185000X0.135000X0*%
G04 APERTURE END LIST*
D10*
%TO.C,C4*%
X163460000Y-115100000D03*
X162500000Y-115100000D03*
%TD*%
D11*
%TO.C,J2*%
X179990000Y-105200000D03*
X182530000Y-105200000D03*
X185070000Y-105200000D03*
X187610000Y-105200000D03*
%TD*%
D12*
%TO.C,R6*%
X155615000Y-121400000D03*
X156585000Y-121400000D03*
%TD*%
%TO.C,R7*%
X143215000Y-121600000D03*
X144185000Y-121600000D03*
%TD*%
D13*
%TO.C,U1*%
X159650000Y-119450000D03*
X159000000Y-119450000D03*
X158350000Y-119450000D03*
X158350000Y-121350000D03*
X159650000Y-121350000D03*
%TD*%
%TO.C,U2*%
X147250000Y-119650000D03*
X146600000Y-119650000D03*
X145950000Y-119650000D03*
X145950000Y-121550000D03*
X147250000Y-121550000D03*
%TD*%
D14*
%TO.C,H2*%
X195860000Y-114000000D03*
%TD*%
%TO.C,H1*%
X134140000Y-114000000D03*
%TD*%
D15*
%TO.C,U5*%
X153462500Y-106850000D03*
D16*
X154000000Y-106925000D03*
D15*
X154537500Y-106850000D03*
X154537500Y-105150000D03*
D16*
X154000000Y-105075000D03*
D15*
X153462500Y-105150000D03*
%TD*%
D17*
%TO.C,C9*%
X161100000Y-120880000D03*
X161100000Y-119920000D03*
%TD*%
%TO.C,C10*%
X148700000Y-121180000D03*
X148700000Y-120220000D03*
%TD*%
D18*
%TO.C,R10*%
X154310000Y-121400000D03*
X153290000Y-121400000D03*
%TD*%
%TO.C,R11*%
X141600000Y-121600000D03*
X140580000Y-121600000D03*
%TD*%
D11*
%TO.C,J3*%
X142390000Y-105200000D03*
X144930000Y-105200000D03*
X147470000Y-105200000D03*
X150010000Y-105200000D03*
%TD*%
D19*
%TO.C,D1*%
X145850000Y-115400000D03*
X141550000Y-115400000D03*
%TD*%
D20*
%TO.C,F1*%
X146637500Y-110800000D03*
X142362500Y-110800000D03*
%TD*%
%TO.C,F2*%
X191137500Y-109700000D03*
X186862500Y-109700000D03*
%TD*%
D21*
%TO.C,Q2*%
X188400000Y-119450000D03*
X188400000Y-120950000D03*
X188900000Y-119450000D03*
X188900000Y-120950000D03*
X187900000Y-119450000D03*
X187900000Y-120950000D03*
%TD*%
%TO.C,Q1*%
X185500000Y-120950000D03*
X185500000Y-119450000D03*
X186000000Y-119450000D03*
X186000000Y-120950000D03*
X185000000Y-119450000D03*
X185000000Y-120950000D03*
%TD*%
%TO.C,Q6*%
X167200000Y-120850000D03*
X167700000Y-119350000D03*
X167700000Y-120850000D03*
X167200000Y-119350000D03*
X166700000Y-119350000D03*
X166700000Y-120850000D03*
%TD*%
D22*
%TO.C,J4*%
X191110000Y-124800000D03*
X188570000Y-124800000D03*
X186030000Y-124800000D03*
X183490000Y-124800000D03*
%TD*%
D21*
%TO.C,Q5*%
X173200000Y-119350000D03*
X173700000Y-119350000D03*
X173200000Y-120850000D03*
X173700000Y-120850000D03*
X172700000Y-119350000D03*
X172700000Y-120850000D03*
%TD*%
D22*
%TO.C,J5*%
X175870000Y-124800000D03*
X173330000Y-124800000D03*
X170790000Y-124800000D03*
X168250000Y-124800000D03*
%TD*%
D21*
%TO.C,Q3*%
X182900000Y-120950000D03*
X182400000Y-120950000D03*
X182900000Y-119450000D03*
X182400000Y-119450000D03*
X181900000Y-119450000D03*
X181900000Y-120950000D03*
%TD*%
%TO.C,Q4*%
X170700000Y-119350000D03*
X170700000Y-120850000D03*
X170200000Y-120850000D03*
X170200000Y-119350000D03*
X169700000Y-119350000D03*
X169700000Y-120850000D03*
%TD*%
D22*
%TO.C,J7*%
X144120000Y-124800000D03*
X141580000Y-124800000D03*
X139040000Y-124800000D03*
%TD*%
%TO.C,J6*%
X156820000Y-124800000D03*
X154280000Y-124800000D03*
X151740000Y-124800000D03*
%TD*%
D23*
%TO.C,R13*%
X157200000Y-116285000D03*
X157200000Y-115315000D03*
%TD*%
%TO.C,R12*%
X156000000Y-116285000D03*
X156000000Y-115315000D03*
%TD*%
D24*
%TO.C,C1*%
X149125000Y-115400000D03*
X150675000Y-115400000D03*
%TD*%
D12*
%TO.C,R9*%
X155415000Y-110800000D03*
X156385000Y-110800000D03*
%TD*%
%TO.C,R8*%
X155415000Y-109800000D03*
X156385000Y-109800000D03*
%TD*%
D24*
%TO.C,C3*%
X164725000Y-115600000D03*
X166275000Y-115600000D03*
%TD*%
D25*
%TO.C,C6*%
X163470000Y-116200000D03*
X162500000Y-116200000D03*
%TD*%
%TO.C,C5*%
X165985000Y-101700000D03*
X165015000Y-101700000D03*
%TD*%
D26*
%TO.C,U3*%
X167250000Y-110700000D03*
X167250000Y-109900000D03*
X167250000Y-109100000D03*
X167250000Y-108300000D03*
X167250000Y-107500000D03*
X167250000Y-106700000D03*
X167250000Y-105900000D03*
X167250000Y-105100000D03*
D27*
X165800000Y-103650000D03*
X165000000Y-103650000D03*
X164200000Y-103650000D03*
X163400000Y-103650000D03*
X162600000Y-103650000D03*
X161800000Y-103650000D03*
X161000000Y-103650000D03*
X160200000Y-103650000D03*
D26*
X158750000Y-105100000D03*
X158750000Y-105900000D03*
X158750000Y-106700000D03*
X158750000Y-107500000D03*
X158750000Y-108300000D03*
X158750000Y-109100000D03*
X158750000Y-109900000D03*
X158750000Y-110700000D03*
D27*
X160200000Y-112150000D03*
X161000000Y-112150000D03*
X161800000Y-112150000D03*
X162600000Y-112150000D03*
X163400000Y-112150000D03*
X164200000Y-112150000D03*
X165000000Y-112150000D03*
X165800000Y-112150000D03*
%TD*%
D28*
%TO.C,R15*%
X159990000Y-101900000D03*
X161010000Y-101900000D03*
%TD*%
D29*
%TO.C,U4*%
X149350000Y-113350000D03*
X150000000Y-113350000D03*
X150650000Y-113350000D03*
X150650000Y-111450000D03*
X149350000Y-111450000D03*
%TD*%
D18*
%TO.C,R18*%
X166810000Y-114050000D03*
X165790000Y-114050000D03*
%TD*%
D30*
%TO.C,R16*%
X156900000Y-106110000D03*
X156900000Y-105090000D03*
%TD*%
D31*
%TO.C,TP1*%
X189100000Y-114100000D03*
%TD*%
D30*
%TO.C,R2*%
X152200000Y-113410000D03*
X152200000Y-112390000D03*
%TD*%
D32*
%TO.C,J1*%
X175560000Y-114950000D03*
X175560000Y-111050000D03*
X176830000Y-114950000D03*
X176830000Y-111050000D03*
X178100000Y-114950000D03*
X178100000Y-111050000D03*
X179370000Y-114950000D03*
X179370000Y-111050000D03*
X180640000Y-114950000D03*
X180640000Y-111050000D03*
%TD*%
D33*
%TO.C,R4*%
X174700000Y-107090000D03*
X174700000Y-108110000D03*
%TD*%
%TO.C,R1*%
X177000000Y-107090000D03*
X177000000Y-108110000D03*
%TD*%
%TO.C,R14*%
X175900000Y-107090000D03*
X175900000Y-108110000D03*
%TD*%
D28*
%TO.C,R17*%
X162690000Y-101900000D03*
X163710000Y-101900000D03*
%TD*%
D24*
%TO.C,C7*%
X149325000Y-109600000D03*
X150875000Y-109600000D03*
%TD*%
D33*
%TO.C,R3*%
X175600000Y-117490000D03*
X175600000Y-118510000D03*
%TD*%
%TO.C,R5*%
X186100000Y-113790000D03*
X186100000Y-114810000D03*
%TD*%
M02*
