M48
; DRILL file {KiCad (6.0.6)} date Sat 13 Aug 2022 09:50:28 PM CDT
; FORMAT={-:-/ absolute / inch / decimal}
; #@! TF.CreationDate,2022-08-13T21:50:28-05:00
; #@! TF.GenerationSoftware,Kicad,Pcbnew,(6.0.6)
; #@! TF.FileFunction,MixedPlating,1,4
FMAT,2
INCH
; #@! TA.AperFunction,Plated,PTH,ComponentDrill
T1C0.0118
; #@! TA.AperFunction,Plated,PTH,ViaDrill
T2C0.0157
; #@! TA.AperFunction,NonPlated,NPTH,ComponentDrill
T3C0.1260
%
G90
G05
T1
X5.4724Y-4.8346
X5.4724Y-4.9921
X5.5079Y-4.7874
X5.5748Y-4.4803
X5.5748Y-4.6063
X5.6732Y-4.8327
X5.6732Y-4.9941
X5.7165Y-4.7087
X5.82Y-4.5118
X5.82Y-4.5433
X5.82Y-4.5748
X5.8543Y-4.7047
X5.8543Y-4.7992
X5.878Y-4.2756
X5.878Y-4.3543
X5.9055Y-4.063
X5.9055Y-4.2165
X5.9331Y-4.5079
X5.9331Y-4.5787
X5.9409Y-4.2795
X5.9409Y-4.3543
X5.9646Y-4.5433
X5.9724Y-4.8346
X5.9724Y-4.9921
X6.0079Y-4.7795
X6.0157Y-4.4882
X6.063Y-4.2362
X6.063Y-4.1102
X6.1417Y-4.6142
X6.1732Y-4.8327
X6.1732Y-4.9941
X6.2087Y-4.7047
X6.3425Y-4.6929
X6.3425Y-4.7913
X6.3937Y-4.6102
X6.437Y-4.6102
X6.4803Y-4.6102
X6.4961Y-3.9724
X6.5354Y-3.9705
X6.5472Y-4.5866
X6.5591Y-4.7874
X6.5827Y-4.5866
X6.6772Y-4.7874
X6.7953Y-4.7874
X6.8465Y-4.2165
X6.9134Y-4.6929
X6.9213Y-4.8346
X6.9213Y-4.9921
X6.9606Y-4.5906
X7.0118Y-4.5906
X7.1102Y-4.5906
X7.1575Y-4.7913
X7.185Y-4.063
X7.185Y-4.2205
X7.2795Y-4.7913
X7.2874Y-4.063
X7.2874Y-4.2205
X7.3268Y-4.5512
X7.3858Y-4.063
X7.3858Y-4.2205
X7.3937Y-4.7913
X7.5236Y-4.2323
X7.5236Y-4.4055
X7.5236Y-4.8346
X7.5236Y-4.9921
T2
X6.1102Y-4.4173
X6.1535Y-4.2835
X6.1614Y-4.4685
X6.1766Y-4.4128
X6.1969Y-4.5039
X6.252Y-4.0157
X6.2913Y-4.5276
X6.3285Y-4.2175
X6.3425Y-4.2717
X6.374Y-4.0118
X6.3858Y-4.3346
X6.4843Y-4.3543
X6.5433Y-4.6417
X6.5846Y-4.4528
X6.6339Y-4.4173
X6.6378Y-4.5827
X6.6476Y-4.1713
X6.6516Y-4.2953
X6.6575Y-4.5
X6.7008Y-4.5866
X6.7008Y-4.626
X6.7205Y-4.4547
X6.878Y-4.2835
X6.9252Y-4.2835
X6.9693Y-4.2849
X7.2008Y-4.5709
X7.2997Y-4.6074
X7.3268Y-4.439
X7.3799Y-4.6181
T3
X5.2811Y-4.4882
X7.711Y-4.4882
T0
M30
